solid OpenSCAD_Model
  facet normal 1 -0 0
    outer loop
      vertex 55 -50 2.5
      vertex 55 50 -2.5
      vertex 55 50 2.5
    endloop
  endfacet
  facet normal 1 0 0
    outer loop
      vertex 55 50 -2.5
      vertex 55 -50 2.5
      vertex 55 -50 -2.5
    endloop
  endfacet
  facet normal 0 0 1
    outer loop
      vertex -51.809 -45.4122 2.5
      vertex -43 -36.1493 2.5
      vertex -50.4673 -2.04735 2.5
    endloop
  endfacet
  facet normal 0 0 1
    outer loop
      vertex -43 -36.1493 2.5
      vertex -50.691 -45.0489 2.5
      vertex -50 -46 2.5
    endloop
  endfacet
  facet normal 0 0 1
    outer loop
      vertex -43 -36.1493 2.5
      vertex -51.809 -45.4122 2.5
      vertex -50.691 -45.0489 2.5
    endloop
  endfacet
  facet normal 0 0 1
    outer loop
      vertex -55 -50 2.5
      vertex -51.809 -45.4122 2.5
      vertex -51.892 -0.911156 2.5
    endloop
  endfacet
  facet normal 0 0 1
    outer loop
      vertex -51.892 -0.911156 2.5
      vertex -51.809 -45.4122 2.5
      vertex -50.4673 -2.04735 2.5
    endloop
  endfacet
  facet normal 0 0 1
    outer loop
      vertex -48.6907 1.64185 2.5
      vertex -42.809 36.1493 2.5
      vertex -43 36.1493 2.5
    endloop
  endfacet
  facet normal 0 0 1
    outer loop
      vertex -42.809 36.1493 2.5
      vertex -47.9 0 2.5
      vertex -42.809 -36.1493 2.5
    endloop
  endfacet
  facet normal 0 0 1
    outer loop
      vertex -43 36.1493 2.5
      vertex -50.4673 2.04735 2.5
      vertex -48.6907 1.64185 2.5
    endloop
  endfacet
  facet normal 0 0 1
    outer loop
      vertex -51.809 45.4122 2.5
      vertex -43 36.1493 2.5
      vertex -50.691 45.0489 2.5
    endloop
  endfacet
  facet normal 0 0 1
    outer loop
      vertex -43 36.1493 2.5
      vertex -51.809 45.4122 2.5
      vertex -50.4673 2.04735 2.5
    endloop
  endfacet
  facet normal 0 0 1
    outer loop
      vertex -50.4673 2.04735 2.5
      vertex -51.809 45.4122 2.5
      vertex -51.892 0.911156 2.5
    endloop
  endfacet
  facet normal 0 0 1
    outer loop
      vertex -42.809 -37.8507 2.5
      vertex -43 -37.8507 2.5
      vertex -42.809 -38 2.5
    endloop
  endfacet
  facet normal 0 0 1
    outer loop
      vertex 41.191 -37.8507 2.5
      vertex 2.1 -45 2.5
      vertex 41.191 -38 2.5
    endloop
  endfacet
  facet normal 0 0 1
    outer loop
      vertex 41.191 -37.8507 2.5
      vertex 1.30933 -43.3582 2.5
      vertex 2.1 -45 2.5
    endloop
  endfacet
  facet normal 0 0 1
    outer loop
      vertex 41.191 -37.8507 2.5
      vertex -0.467294 -42.9527 2.5
      vertex 1.30933 -43.3582 2.5
    endloop
  endfacet
  facet normal -0 0 1
    outer loop
      vertex -41 -38 2.5
      vertex -1.89203 -44.0888 2.5
      vertex -41 -37.8507 2.5
    endloop
  endfacet
  facet normal 0 0 1
    outer loop
      vertex -0.467294 -42.9527 2.5
      vertex -41 -37.8507 2.5
      vertex -1.89203 -44.0888 2.5
    endloop
  endfacet
  facet normal -0 0 1
    outer loop
      vertex -41 -37.8507 2.5
      vertex -0.467294 -42.9527 2.5
      vertex 41.191 -37.8507 2.5
    endloop
  endfacet
  facet normal -0 0 1
    outer loop
      vertex 1.30933 43.3582 2.5
      vertex 41.191 37.8507 2.5
      vertex 2.1 45 2.5
    endloop
  endfacet
  facet normal -0 0 1
    outer loop
      vertex -0.467294 42.9527 2.5
      vertex 41.191 37.8507 2.5
      vertex 1.30933 43.3582 2.5
    endloop
  endfacet
  facet normal 0 0 1
    outer loop
      vertex -41 37.8507 2.5
      vertex -1.89203 44.0888 2.5
      vertex -41 38 2.5
    endloop
  endfacet
  facet normal 0 0 1
    outer loop
      vertex -1.89203 44.0888 2.5
      vertex -41 37.8507 2.5
      vertex -0.467294 42.9527 2.5
    endloop
  endfacet
  facet normal 0 0 1
    outer loop
      vertex -0.467294 42.9527 2.5
      vertex -41 37.8507 2.5
      vertex 41.191 37.8507 2.5
    endloop
  endfacet
  facet normal 0 0 1
    outer loop
      vertex 55 -50 2.5
      vertex 51.3093 -1.64185 2.5
      vertex 52 -46 2.5
    endloop
  endfacet
  facet normal 0 0 1
    outer loop
      vertex 51.3093 -1.64185 2.5
      vertex 51.309 -45.0489 2.5
      vertex 52 -46 2.5
    endloop
  endfacet
  facet normal -0 0 1
    outer loop
      vertex 43 -36.1493 2.5
      vertex 51.309 -45.0489 2.5
      vertex 51.3093 -1.64185 2.5
    endloop
  endfacet
  facet normal -0 0 1
    outer loop
      vertex 43 -37.8507 2.5
      vertex 51.309 -45.0489 2.5
      vertex 43 -36.1493 2.5
    endloop
  endfacet
  facet normal 0 0 1
    outer loop
      vertex 43 -36.1493 2.5
      vertex 51.3093 -1.64185 2.5
      vertex 49.5327 -2.04735 2.5
    endloop
  endfacet
  facet normal 0 0 1
    outer loop
      vertex 55 50 2.5
      vertex 52.1 0 2.5
      vertex 55 -50 2.5
    endloop
  endfacet
  facet normal 0 0 1
    outer loop
      vertex 51.3093 1.64185 2.5
      vertex 55 50 2.5
      vertex 52 46 2.5
    endloop
  endfacet
  facet normal 0 0 1
    outer loop
      vertex 55 50 2.5
      vertex 51.309 46.9511 2.5
      vertex 52 46 2.5
    endloop
  endfacet
  facet normal 0 0 1
    outer loop
      vertex 55 50 2.5
      vertex 50.191 46.5878 2.5
      vertex 51.309 46.9511 2.5
    endloop
  endfacet
  facet normal 0 0 1
    outer loop
      vertex 43 38 2.5
      vertex 50.191 45.4122 2.5
      vertex 50.191 46.5878 2.5
    endloop
  endfacet
  facet normal 0 0 1
    outer loop
      vertex 50.191 45.4122 2.5
      vertex 43 36.1493 2.5
      vertex 49.5327 2.04735 2.5
    endloop
  endfacet
  facet normal 0 0 1
    outer loop
      vertex 50.191 45.4122 2.5
      vertex 43 37.8507 2.5
      vertex 43 36.1493 2.5
    endloop
  endfacet
  facet normal 0 0 1
    outer loop
      vertex 50.191 45.4122 2.5
      vertex 43 38 2.5
      vertex 43 37.8507 2.5
    endloop
  endfacet
  facet normal 0 0 1
    outer loop
      vertex 50.191 46.5878 2.5
      vertex 41.191 38 2.5
      vertex 43 38 2.5
    endloop
  endfacet
  facet normal 0 0 1
    outer loop
      vertex 41.191 38 2.5
      vertex 2.1 45 2.5
      vertex 41.191 37.8507 2.5
    endloop
  endfacet
  facet normal 0 0 1
    outer loop
      vertex 1.30933 46.6418 2.5
      vertex 41.191 38 2.5
      vertex 50.191 46.5878 2.5
    endloop
  endfacet
  facet normal -0 0 1
    outer loop
      vertex 1.30933 46.6418 2.5
      vertex 50.191 46.5878 2.5
      vertex 55 50 2.5
    endloop
  endfacet
  facet normal 0 0 1
    outer loop
      vertex 41.191 38 2.5
      vertex 1.30933 46.6418 2.5
      vertex 2.1 45 2.5
    endloop
  endfacet
  facet normal 0 0 1
    outer loop
      vertex 55 50 2.5
      vertex -0.467294 47.0473 2.5
      vertex 1.30933 46.6418 2.5
    endloop
  endfacet
  facet normal 0 0 1
    outer loop
      vertex -1.89203 45.9112 2.5
      vertex -41 38 2.5
      vertex -1.89203 44.0888 2.5
    endloop
  endfacet
  facet normal -0 0 1
    outer loop
      vertex -50.691 46.9511 2.5
      vertex -1.89203 45.9112 2.5
      vertex -0.467294 47.0473 2.5
    endloop
  endfacet
  facet normal 0 0 1
    outer loop
      vertex -1.89203 45.9112 2.5
      vertex -50 46 2.5
      vertex -41 38 2.5
    endloop
  endfacet
  facet normal 0 0 1
    outer loop
      vertex -42.809 38 2.5
      vertex -43 37.8507 2.5
      vertex -42.809 37.8507 2.5
    endloop
  endfacet
  facet normal 0 0 1
    outer loop
      vertex -42.809 38 2.5
      vertex -50.691 45.0489 2.5
      vertex -43 37.8507 2.5
    endloop
  endfacet
  facet normal -0 0 1
    outer loop
      vertex -48.6907 -1.64185 2.5
      vertex -42.809 -36.1493 2.5
      vertex -47.9 0 2.5
    endloop
  endfacet
  facet normal 0 0 1
    outer loop
      vertex -42.809 -36.1493 2.5
      vertex -48.6907 -1.64185 2.5
      vertex -43 -36.1493 2.5
    endloop
  endfacet
  facet normal 0 0 1
    outer loop
      vertex -42.809 36.1493 2.5
      vertex -48.6907 1.64185 2.5
      vertex -47.9 0 2.5
    endloop
  endfacet
  facet normal 0 0 1
    outer loop
      vertex -43 37.8507 2.5
      vertex -50.691 45.0489 2.5
      vertex -43 36.1493 2.5
    endloop
  endfacet
  facet normal -0 0 1
    outer loop
      vertex -50.691 45.0489 2.5
      vertex -42.809 38 2.5
      vertex -50 46 2.5
    endloop
  endfacet
  facet normal 0 0 1
    outer loop
      vertex -41 38 2.5
      vertex -50 46 2.5
      vertex -42.809 38 2.5
    endloop
  endfacet
  facet normal -0 0 1
    outer loop
      vertex -55 50 2.5
      vertex -0.467294 47.0473 2.5
      vertex 55 50 2.5
    endloop
  endfacet
  facet normal 0 0 1
    outer loop
      vertex -1.89203 45.9112 2.5
      vertex -50.691 46.9511 2.5
      vertex -50 46 2.5
    endloop
  endfacet
  facet normal 0 0 1
    outer loop
      vertex -55 50 2.5
      vertex -51.809 45.4122 2.5
      vertex -51.809 46.5878 2.5
    endloop
  endfacet
  facet normal 0 0 1
    outer loop
      vertex -51.892 0.911156 2.5
      vertex -55 50 2.5
      vertex -51.892 -0.911156 2.5
    endloop
  endfacet
  facet normal 0 0 1
    outer loop
      vertex -51.809 45.4122 2.5
      vertex -55 50 2.5
      vertex -51.892 0.911156 2.5
    endloop
  endfacet
  facet normal 0 0 1
    outer loop
      vertex -50.691 46.9511 2.5
      vertex -55 50 2.5
      vertex -51.809 46.5878 2.5
    endloop
  endfacet
  facet normal 0 0 1
    outer loop
      vertex -0.467294 47.0473 2.5
      vertex -55 50 2.5
      vertex -50.691 46.9511 2.5
    endloop
  endfacet
  facet normal -0 0 1
    outer loop
      vertex 51.3093 -1.64185 2.5
      vertex 55 -50 2.5
      vertex 52.1 0 2.5
    endloop
  endfacet
  facet normal -0 0 1
    outer loop
      vertex 51.309 -46.9511 2.5
      vertex 55 -50 2.5
      vertex 52 -46 2.5
    endloop
  endfacet
  facet normal 0 0 1
    outer loop
      vertex 50.191 -46.5878 2.5
      vertex 55 -50 2.5
      vertex 51.309 -46.9511 2.5
    endloop
  endfacet
  facet normal 0 0 1
    outer loop
      vertex 43 -36.1493 2.5
      vertex 49.5327 -2.04735 2.5
      vertex 48.108 -0.911156 2.5
    endloop
  endfacet
  facet normal 0 0 1
    outer loop
      vertex 49.5327 2.04735 2.5
      vertex 43 36.1493 2.5
      vertex 48.108 0.911156 2.5
    endloop
  endfacet
  facet normal 0 0 1
    outer loop
      vertex 48.108 0.911156 2.5
      vertex 43 36.1493 2.5
      vertex 48.108 -0.911156 2.5
    endloop
  endfacet
  facet normal 0 0 1
    outer loop
      vertex 43 -36.1493 2.5
      vertex 48.108 -0.911156 2.5
      vertex 43 36.1493 2.5
    endloop
  endfacet
  facet normal -0 0 1
    outer loop
      vertex 43 -38 2.5
      vertex 51.309 -45.0489 2.5
      vertex 43 -37.8507 2.5
    endloop
  endfacet
  facet normal 0 0 1
    outer loop
      vertex 51.309 -45.0489 2.5
      vertex 43 -38 2.5
      vertex 50.191 -45.4122 2.5
    endloop
  endfacet
  facet normal 0 0 1
    outer loop
      vertex 50.191 -45.4122 2.5
      vertex 43 -38 2.5
      vertex 50.191 -46.5878 2.5
    endloop
  endfacet
  facet normal -0 0 1
    outer loop
      vertex 41.191 -38 2.5
      vertex 50.191 -46.5878 2.5
      vertex 43 -38 2.5
    endloop
  endfacet
  facet normal 0 0 1
    outer loop
      vertex 1.30933 -46.6418 2.5
      vertex 41.191 -38 2.5
      vertex 2.1 -45 2.5
    endloop
  endfacet
  facet normal 0 0 1
    outer loop
      vertex 41.191 -38 2.5
      vertex 1.30933 -46.6418 2.5
      vertex 50.191 -46.5878 2.5
    endloop
  endfacet
  facet normal 0 0 1
    outer loop
      vertex 50.191 -46.5878 2.5
      vertex 1.30933 -46.6418 2.5
      vertex 55 -50 2.5
    endloop
  endfacet
  facet normal -0 0 1
    outer loop
      vertex -0.467294 -47.0473 2.5
      vertex 55 -50 2.5
      vertex 1.30933 -46.6418 2.5
    endloop
  endfacet
  facet normal 0 0 1
    outer loop
      vertex -1.89203 -44.0888 2.5
      vertex -41 -38 2.5
      vertex -1.89203 -45.9112 2.5
    endloop
  endfacet
  facet normal 0 0 1
    outer loop
      vertex -50 -46 2.5
      vertex -1.89203 -45.9112 2.5
      vertex -41 -38 2.5
    endloop
  endfacet
  facet normal 0 0 1
    outer loop
      vertex -50 -46 2.5
      vertex -41 -38 2.5
      vertex -42.809 -38 2.5
    endloop
  endfacet
  facet normal -0 0 1
    outer loop
      vertex -50.4673 -2.04735 2.5
      vertex -43 -36.1493 2.5
      vertex -48.6907 -1.64185 2.5
    endloop
  endfacet
  facet normal 0 0 1
    outer loop
      vertex -43 -36.1493 2.5
      vertex -50 -46 2.5
      vertex -43 -37.8507 2.5
    endloop
  endfacet
  facet normal 0 0 1
    outer loop
      vertex -50 -46 2.5
      vertex -42.809 -38 2.5
      vertex -43 -37.8507 2.5
    endloop
  endfacet
  facet normal 0 0 1
    outer loop
      vertex -50.691 -46.9511 2.5
      vertex -1.89203 -45.9112 2.5
      vertex -50 -46 2.5
    endloop
  endfacet
  facet normal 0 0 1
    outer loop
      vertex -1.89203 -45.9112 2.5
      vertex -50.691 -46.9511 2.5
      vertex -0.467294 -47.0473 2.5
    endloop
  endfacet
  facet normal 0 0 1
    outer loop
      vertex -55 -50 2.5
      vertex -0.467294 -47.0473 2.5
      vertex -50.691 -46.9511 2.5
    endloop
  endfacet
  facet normal 0 0 1
    outer loop
      vertex -55 -50 2.5
      vertex -51.892 -0.911156 2.5
      vertex -55 50 2.5
    endloop
  endfacet
  facet normal 0 0 1
    outer loop
      vertex -0.467294 -47.0473 2.5
      vertex -55 -50 2.5
      vertex 55 -50 2.5
    endloop
  endfacet
  facet normal 0 0 1
    outer loop
      vertex -51.809 -46.5878 2.5
      vertex -55 -50 2.5
      vertex -50.691 -46.9511 2.5
    endloop
  endfacet
  facet normal 0 0 1
    outer loop
      vertex -51.809 -45.4122 2.5
      vertex -55 -50 2.5
      vertex -51.809 -46.5878 2.5
    endloop
  endfacet
  facet normal 0 0 1
    outer loop
      vertex 55 50 2.5
      vertex 51.3093 1.64185 2.5
      vertex 52.1 0 2.5
    endloop
  endfacet
  facet normal -0 0 1
    outer loop
      vertex 51.309 45.0489 2.5
      vertex 51.3093 1.64185 2.5
      vertex 52 46 2.5
    endloop
  endfacet
  facet normal 0 0 1
    outer loop
      vertex 49.5327 2.04735 2.5
      vertex 51.309 45.0489 2.5
      vertex 50.191 45.4122 2.5
    endloop
  endfacet
  facet normal 0 0 1
    outer loop
      vertex 51.309 45.0489 2.5
      vertex 49.5327 2.04735 2.5
      vertex 51.3093 1.64185 2.5
    endloop
  endfacet
  facet normal 0 0 1
    outer loop
      vertex 41.191 36.1493 2.5
      vertex 35 30 2.5
      vertex 41.191 -36.1493 2.5
    endloop
  endfacet
  facet normal -0 0 1
    outer loop
      vertex -41 36.1493 2.5
      vertex 35 30 2.5
      vertex 41.191 36.1493 2.5
    endloop
  endfacet
  facet normal 0 0 1
    outer loop
      vertex -35 30 2.5
      vertex -41 36.1493 2.5
      vertex -35 -30 2.5
    endloop
  endfacet
  facet normal 0 0 1
    outer loop
      vertex 35 30 2.5
      vertex -41 36.1493 2.5
      vertex -35 30 2.5
    endloop
  endfacet
  facet normal -0 0 1
    outer loop
      vertex 35 -30 2.5
      vertex 41.191 -36.1493 2.5
      vertex 35 30 2.5
    endloop
  endfacet
  facet normal 0 0 1
    outer loop
      vertex -41 -36.1493 2.5
      vertex 35 -30 2.5
      vertex -35 -30 2.5
    endloop
  endfacet
  facet normal 0 0 1
    outer loop
      vertex 35 -30 2.5
      vertex -41 -36.1493 2.5
      vertex 41.191 -36.1493 2.5
    endloop
  endfacet
  facet normal 0 0 1
    outer loop
      vertex -41 -36.1493 2.5
      vertex -35 -30 2.5
      vertex -41 36.1493 2.5
    endloop
  endfacet
  facet normal 0 0 -1
    outer loop
      vertex -50.691 45.0489 -2.5
      vertex -35 30 -2.5
      vertex -50.4673 2.04735 -2.5
    endloop
  endfacet
  facet normal 0 0 -1
    outer loop
      vertex -35 30 -2.5
      vertex -50.691 45.0489 -2.5
      vertex -50 46 -2.5
    endloop
  endfacet
  facet normal 0 0 -1
    outer loop
      vertex -50.4673 2.04735 -2.5
      vertex -51.809 45.4122 -2.5
      vertex -50.691 45.0489 -2.5
    endloop
  endfacet
  facet normal 0 0 -1
    outer loop
      vertex -55 50 -2.5
      vertex -51.809 45.4122 -2.5
      vertex -51.892 0.911156 -2.5
    endloop
  endfacet
  facet normal 0 0 -1
    outer loop
      vertex -51.892 0.911156 -2.5
      vertex -51.809 45.4122 -2.5
      vertex -50.4673 2.04735 -2.5
    endloop
  endfacet
  facet normal 0 0 -1
    outer loop
      vertex -35 -30 -2.5
      vertex -50.4673 -2.04735 -2.5
      vertex -48.6907 -1.64185 -2.5
    endloop
  endfacet
  facet normal -0 0 -1
    outer loop
      vertex -35 -30 -2.5
      vertex -50.691 -45.0489 -2.5
      vertex -50.4673 -2.04735 -2.5
    endloop
  endfacet
  facet normal 0 0 -1
    outer loop
      vertex -51.809 -45.4122 -2.5
      vertex -50.4673 -2.04735 -2.5
      vertex -50.691 -45.0489 -2.5
    endloop
  endfacet
  facet normal -0 0 -1
    outer loop
      vertex -50.4673 -2.04735 -2.5
      vertex -51.809 -45.4122 -2.5
      vertex -51.892 -0.911156 -2.5
    endloop
  endfacet
  facet normal 0 0 -1
    outer loop
      vertex 35 30 -2.5
      vertex 1.30933 43.3582 -2.5
      vertex 2.1 45 -2.5
    endloop
  endfacet
  facet normal 0 0 -1
    outer loop
      vertex 35 30 -2.5
      vertex -0.467294 42.9527 -2.5
      vertex 1.30933 43.3582 -2.5
    endloop
  endfacet
  facet normal -0 0 -1
    outer loop
      vertex -1.89203 44.0888 -2.5
      vertex -35 30 -2.5
      vertex -1.89203 45.9112 -2.5
    endloop
  endfacet
  facet normal -0 0 -1
    outer loop
      vertex -0.467294 42.9527 -2.5
      vertex -35 30 -2.5
      vertex -1.89203 44.0888 -2.5
    endloop
  endfacet
  facet normal 0 0 -1
    outer loop
      vertex -35 30 -2.5
      vertex -0.467294 42.9527 -2.5
      vertex 35 30 -2.5
    endloop
  endfacet
  facet normal 0 0 -1
    outer loop
      vertex 1.30933 -43.3582 -2.5
      vertex 35 -30 -2.5
      vertex 2.1 -45 -2.5
    endloop
  endfacet
  facet normal 0 0 -1
    outer loop
      vertex -0.467294 -42.9527 -2.5
      vertex 35 -30 -2.5
      vertex 1.30933 -43.3582 -2.5
    endloop
  endfacet
  facet normal 0 0 -1
    outer loop
      vertex -0.467294 -42.9527 -2.5
      vertex -35 -30 -2.5
      vertex 35 -30 -2.5
    endloop
  endfacet
  facet normal 0 0 -1
    outer loop
      vertex -35 -30 -2.5
      vertex -0.467294 -42.9527 -2.5
      vertex -1.89203 -44.0888 -2.5
    endloop
  endfacet
  facet normal 0 0 -1
    outer loop
      vertex 55 50 -2.5
      vertex 51.3093 1.64185 -2.5
      vertex 52 46 -2.5
    endloop
  endfacet
  facet normal 0 0 -1
    outer loop
      vertex 51.3093 1.64185 -2.5
      vertex 51.309 45.0489 -2.5
      vertex 52 46 -2.5
    endloop
  endfacet
  facet normal 0 0 -1
    outer loop
      vertex 35 30 -2.5
      vertex 51.309 45.0489 -2.5
      vertex 51.3093 1.64185 -2.5
    endloop
  endfacet
  facet normal -0 0 -1
    outer loop
      vertex 51.309 45.0489 -2.5
      vertex 35 30 -2.5
      vertex 50.191 45.4122 -2.5
    endloop
  endfacet
  facet normal 0 0 -1
    outer loop
      vertex 35 30 -2.5
      vertex 51.3093 1.64185 -2.5
      vertex 49.5327 2.04735 -2.5
    endloop
  endfacet
  facet normal 0 0 -1
    outer loop
      vertex 55 -50 -2.5
      vertex 52.1 0 -2.5
      vertex 55 50 -2.5
    endloop
  endfacet
  facet normal 0 0 -1
    outer loop
      vertex 51.3093 -1.64185 -2.5
      vertex 55 -50 -2.5
      vertex 52 -46 -2.5
    endloop
  endfacet
  facet normal 0 0 -1
    outer loop
      vertex 55 -50 -2.5
      vertex 51.309 -46.9511 -2.5
      vertex 52 -46 -2.5
    endloop
  endfacet
  facet normal 0 0 -1
    outer loop
      vertex 55 -50 -2.5
      vertex 50.191 -46.5878 -2.5
      vertex 51.309 -46.9511 -2.5
    endloop
  endfacet
  facet normal 0 0 -1
    outer loop
      vertex 35 -30 -2.5
      vertex 50.191 -45.4122 -2.5
      vertex 50.191 -46.5878 -2.5
    endloop
  endfacet
  facet normal 0 0 -1
    outer loop
      vertex 50.191 -45.4122 -2.5
      vertex 35 -30 -2.5
      vertex 49.5327 -2.04735 -2.5
    endloop
  endfacet
  facet normal -0 0 -1
    outer loop
      vertex 48.108 -0.911156 -2.5
      vertex 35 -30 -2.5
      vertex 48.108 0.911156 -2.5
    endloop
  endfacet
  facet normal -0 0 -1
    outer loop
      vertex 49.5327 -2.04735 -2.5
      vertex 35 -30 -2.5
      vertex 48.108 -0.911156 -2.5
    endloop
  endfacet
  facet normal 0 0 -1
    outer loop
      vertex 50.191 -46.5878 -2.5
      vertex 2.1 -45 -2.5
      vertex 35 -30 -2.5
    endloop
  endfacet
  facet normal 0 0 -1
    outer loop
      vertex 1.30933 -46.6418 -2.5
      vertex 50.191 -46.5878 -2.5
      vertex 55 -50 -2.5
    endloop
  endfacet
  facet normal -0 0 -1
    outer loop
      vertex 50.191 -46.5878 -2.5
      vertex 1.30933 -46.6418 -2.5
      vertex 2.1 -45 -2.5
    endloop
  endfacet
  facet normal 0 0 -1
    outer loop
      vertex 55 -50 -2.5
      vertex -0.467294 -47.0473 -2.5
      vertex 1.30933 -46.6418 -2.5
    endloop
  endfacet
  facet normal 0 0 -1
    outer loop
      vertex -1.89203 -45.9112 -2.5
      vertex -35 -30 -2.5
      vertex -1.89203 -44.0888 -2.5
    endloop
  endfacet
  facet normal 0 0 -1
    outer loop
      vertex -50.691 -46.9511 -2.5
      vertex -1.89203 -45.9112 -2.5
      vertex -0.467294 -47.0473 -2.5
    endloop
  endfacet
  facet normal 0 0 -1
    outer loop
      vertex -35 -30 -2.5
      vertex -47.9 0 -2.5
      vertex -35 30 -2.5
    endloop
  endfacet
  facet normal 0 0 -1
    outer loop
      vertex -35 -30 -2.5
      vertex -48.6907 -1.64185 -2.5
      vertex -47.9 0 -2.5
    endloop
  endfacet
  facet normal 0 0 -1
    outer loop
      vertex -50.691 -45.0489 -2.5
      vertex -35 -30 -2.5
      vertex -50 -46 -2.5
    endloop
  endfacet
  facet normal -0 0 -1
    outer loop
      vertex -1.89203 -45.9112 -2.5
      vertex -50 -46 -2.5
      vertex -35 -30 -2.5
    endloop
  endfacet
  facet normal 0 0 -1
    outer loop
      vertex -55 -50 -2.5
      vertex -0.467294 -47.0473 -2.5
      vertex 55 -50 -2.5
    endloop
  endfacet
  facet normal 0 0 -1
    outer loop
      vertex -1.89203 -45.9112 -2.5
      vertex -50.691 -46.9511 -2.5
      vertex -50 -46 -2.5
    endloop
  endfacet
  facet normal 0 0 -1
    outer loop
      vertex -55 -50 -2.5
      vertex -51.809 -45.4122 -2.5
      vertex -51.809 -46.5878 -2.5
    endloop
  endfacet
  facet normal -0 0 -1
    outer loop
      vertex -51.892 -0.911156 -2.5
      vertex -55 -50 -2.5
      vertex -51.892 0.911156 -2.5
    endloop
  endfacet
  facet normal -0 0 -1
    outer loop
      vertex -51.809 -45.4122 -2.5
      vertex -55 -50 -2.5
      vertex -51.892 -0.911156 -2.5
    endloop
  endfacet
  facet normal -0 0 -1
    outer loop
      vertex -50.691 -46.9511 -2.5
      vertex -55 -50 -2.5
      vertex -51.809 -46.5878 -2.5
    endloop
  endfacet
  facet normal -0 0 -1
    outer loop
      vertex -0.467294 -47.0473 -2.5
      vertex -55 -50 -2.5
      vertex -50.691 -46.9511 -2.5
    endloop
  endfacet
  facet normal 0 0 -1
    outer loop
      vertex 51.3093 1.64185 -2.5
      vertex 55 50 -2.5
      vertex 52.1 0 -2.5
    endloop
  endfacet
  facet normal 0 0 -1
    outer loop
      vertex 51.309 46.9511 -2.5
      vertex 55 50 -2.5
      vertex 52 46 -2.5
    endloop
  endfacet
  facet normal 0 0 -1
    outer loop
      vertex 50.191 46.5878 -2.5
      vertex 55 50 -2.5
      vertex 51.309 46.9511 -2.5
    endloop
  endfacet
  facet normal 0 0 -1
    outer loop
      vertex 35 30 -2.5
      vertex 49.5327 2.04735 -2.5
      vertex 48.108 0.911156 -2.5
    endloop
  endfacet
  facet normal 0 0 -1
    outer loop
      vertex 35 30 -2.5
      vertex 48.108 0.911156 -2.5
      vertex 35 -30 -2.5
    endloop
  endfacet
  facet normal -0 0 -1
    outer loop
      vertex 50.191 45.4122 -2.5
      vertex 35 30 -2.5
      vertex 50.191 46.5878 -2.5
    endloop
  endfacet
  facet normal 0 0 -1
    outer loop
      vertex 2.1 45 -2.5
      vertex 50.191 46.5878 -2.5
      vertex 35 30 -2.5
    endloop
  endfacet
  facet normal 0 0 -1
    outer loop
      vertex 1.30933 46.6418 -2.5
      vertex 50.191 46.5878 -2.5
      vertex 2.1 45 -2.5
    endloop
  endfacet
  facet normal 0 0 -1
    outer loop
      vertex 50.191 46.5878 -2.5
      vertex 1.30933 46.6418 -2.5
      vertex 55 50 -2.5
    endloop
  endfacet
  facet normal 0 0 -1
    outer loop
      vertex -0.467294 47.0473 -2.5
      vertex 55 50 -2.5
      vertex 1.30933 46.6418 -2.5
    endloop
  endfacet
  facet normal 0 0 -1
    outer loop
      vertex -50 46 -2.5
      vertex -1.89203 45.9112 -2.5
      vertex -35 30 -2.5
    endloop
  endfacet
  facet normal 0 0 -1
    outer loop
      vertex -48.6907 1.64185 -2.5
      vertex -35 30 -2.5
      vertex -47.9 0 -2.5
    endloop
  endfacet
  facet normal 0 0 -1
    outer loop
      vertex -50.4673 2.04735 -2.5
      vertex -35 30 -2.5
      vertex -48.6907 1.64185 -2.5
    endloop
  endfacet
  facet normal 0 0 -1
    outer loop
      vertex -50.691 46.9511 -2.5
      vertex -1.89203 45.9112 -2.5
      vertex -50 46 -2.5
    endloop
  endfacet
  facet normal 0 0 -1
    outer loop
      vertex -1.89203 45.9112 -2.5
      vertex -50.691 46.9511 -2.5
      vertex -0.467294 47.0473 -2.5
    endloop
  endfacet
  facet normal 0 0 -1
    outer loop
      vertex -55 50 -2.5
      vertex -0.467294 47.0473 -2.5
      vertex -50.691 46.9511 -2.5
    endloop
  endfacet
  facet normal 0 0 -1
    outer loop
      vertex -55 50 -2.5
      vertex -51.892 0.911156 -2.5
      vertex -55 -50 -2.5
    endloop
  endfacet
  facet normal 0 0 -1
    outer loop
      vertex -0.467294 47.0473 -2.5
      vertex -55 50 -2.5
      vertex 55 50 -2.5
    endloop
  endfacet
  facet normal 0 0 -1
    outer loop
      vertex -51.809 46.5878 -2.5
      vertex -55 50 -2.5
      vertex -50.691 46.9511 -2.5
    endloop
  endfacet
  facet normal 0 0 -1
    outer loop
      vertex -51.809 45.4122 -2.5
      vertex -55 50 -2.5
      vertex -51.809 46.5878 -2.5
    endloop
  endfacet
  facet normal 0 0 -1
    outer loop
      vertex 55 -50 -2.5
      vertex 51.3093 -1.64185 -2.5
      vertex 52.1 0 -2.5
    endloop
  endfacet
  facet normal 0 0 -1
    outer loop
      vertex 51.309 -45.0489 -2.5
      vertex 51.3093 -1.64185 -2.5
      vertex 52 -46 -2.5
    endloop
  endfacet
  facet normal 0 0 -1
    outer loop
      vertex 49.5327 -2.04735 -2.5
      vertex 51.309 -45.0489 -2.5
      vertex 50.191 -45.4122 -2.5
    endloop
  endfacet
  facet normal 0 0 -1
    outer loop
      vertex 51.309 -45.0489 -2.5
      vertex 49.5327 -2.04735 -2.5
      vertex 51.3093 -1.64185 -2.5
    endloop
  endfacet
  facet normal -1 0 0
    outer loop
      vertex -55 -50 -2.5
      vertex -55 50 2.5
      vertex -55 50 -2.5
    endloop
  endfacet
  facet normal -1 -0 0
    outer loop
      vertex -55 50 2.5
      vertex -55 -50 -2.5
      vertex -55 -50 2.5
    endloop
  endfacet
  facet normal 0 1 -0
    outer loop
      vertex 55 50 -2.5
      vertex -55 50 2.5
      vertex 55 50 2.5
    endloop
  endfacet
  facet normal 0 1 0
    outer loop
      vertex -55 50 2.5
      vertex 55 50 -2.5
      vertex -55 50 -2.5
    endloop
  endfacet
  facet normal 0 -1 0
    outer loop
      vertex -55 -50 -2.5
      vertex 55 -50 2.5
      vertex -55 -50 2.5
    endloop
  endfacet
  facet normal 0 -1 -0
    outer loop
      vertex 55 -50 2.5
      vertex -55 -50 -2.5
      vertex 55 -50 -2.5
    endloop
  endfacet
  facet normal -1 0 0
    outer loop
      vertex 35 -30 -2.5
      vertex 35 30 2.5
      vertex 35 30 -2.5
    endloop
  endfacet
  facet normal -1 -0 0
    outer loop
      vertex 35 30 2.5
      vertex 35 -30 -2.5
      vertex 35 -30 2.5
    endloop
  endfacet
  facet normal 1 -0 0
    outer loop
      vertex -35 -30 2.5
      vertex -35 30 -2.5
      vertex -35 30 2.5
    endloop
  endfacet
  facet normal 1 0 0
    outer loop
      vertex -35 30 -2.5
      vertex -35 -30 2.5
      vertex -35 -30 -2.5
    endloop
  endfacet
  facet normal 0 -1 0
    outer loop
      vertex -35 30 -2.5
      vertex 35 30 2.5
      vertex -35 30 2.5
    endloop
  endfacet
  facet normal 0 -1 -0
    outer loop
      vertex 35 30 2.5
      vertex -35 30 -2.5
      vertex 35 30 -2.5
    endloop
  endfacet
  facet normal 0 1 -0
    outer loop
      vertex 35 -30 -2.5
      vertex -35 -30 2.5
      vertex 35 -30 2.5
    endloop
  endfacet
  facet normal 0 1 0
    outer loop
      vertex -35 -30 2.5
      vertex 35 -30 -2.5
      vertex -35 -30 -2.5
    endloop
  endfacet
  facet normal 0.309025 0 0.951054
    outer loop
      vertex 41.191 -37.5674 1.91221
      vertex 42.309 -38 1.54894
      vertex 42.309 -37.0674 1.54894
    endloop
  endfacet
  facet normal 0.309025 0 0.951054
    outer loop
      vertex 42.309 -38 1.54894
      vertex 41.191 -37.5674 1.91221
      vertex 41.191 -38 1.91221
    endloop
  endfacet
  facet normal 0.309025 -0 0.951054
    outer loop
      vertex 41.191 37.5674 1.91221
      vertex 42.309 38 1.54894
      vertex 41.191 38 1.91221
    endloop
  endfacet
  facet normal 0.309025 0 0.951054
    outer loop
      vertex 42.309 38 1.54894
      vertex 41.191 37.5674 1.91221
      vertex 42.309 37.0674 1.54894
    endloop
  endfacet
  facet normal 0.309025 0 0.951054
    outer loop
      vertex 41.191 36.4326 1.91221
      vertex 42.309 -36.9326 1.54894
      vertex 42.309 36.9326 1.54894
    endloop
  endfacet
  facet normal 0.309025 0 0.951054
    outer loop
      vertex 42.309 -36.9326 1.54894
      vertex 41.191 36.4326 1.91221
      vertex 41.191 -36.4326 1.91221
    endloop
  endfacet
  facet normal 1 0 0
    outer loop
      vertex 41.191 -37.8507 2.5
      vertex 41.191 -38 2.5
      vertex 41.191 -37.9511 2.19098
    endloop
  endfacet
  facet normal 1 0 0
    outer loop
      vertex 41.191 -37.9511 2.19098
      vertex 41.191 -38 1.91221
      vertex 41.191 -37.5674 1.91221
    endloop
  endfacet
  facet normal 1 0 0
    outer loop
      vertex 41.191 -38 1.91221
      vertex 41.191 -37.9511 2.19098
      vertex 41.191 -38 2.5
    endloop
  endfacet
  facet normal 1 0 0
    outer loop
      vertex 41.191 38 2.5
      vertex 41.191 37.9511 2.19098
      vertex 41.191 38 1.91221
    endloop
  endfacet
  facet normal 1 0 -0
    outer loop
      vertex 41.191 37.9511 2.19098
      vertex 41.191 38 2.5
      vertex 41.191 37.8507 2.5
    endloop
  endfacet
  facet normal 1 0 0
    outer loop
      vertex 41.191 38 1.91221
      vertex 41.191 37.9511 2.19098
      vertex 41.191 37.5674 1.91221
    endloop
  endfacet
  facet normal 1 0 0
    outer loop
      vertex 41.191 36.1493 2.5
      vertex 41.191 -36.0489 2.19098
      vertex 41.191 36.0489 2.19098
    endloop
  endfacet
  facet normal 1 0 -0
    outer loop
      vertex 41.191 -36.0489 2.19098
      vertex 41.191 36.1493 2.5
      vertex 41.191 -36.1493 2.5
    endloop
  endfacet
  facet normal 1 -0 0
    outer loop
      vertex 41.191 -36.0489 2.19098
      vertex 41.191 36.4326 1.91221
      vertex 41.191 36.0489 2.19098
    endloop
  endfacet
  facet normal 1 0 0
    outer loop
      vertex 41.191 36.4326 1.91221
      vertex 41.191 -36.0489 2.19098
      vertex 41.191 -36.4326 1.91221
    endloop
  endfacet
  facet normal 0 1 -0
    outer loop
      vertex 42.309 -38 1.54894
      vertex 41.191 -38 2.5
      vertex 43 -38 2.5
    endloop
  endfacet
  facet normal 0 1 0
    outer loop
      vertex 41.191 -38 2.5
      vertex 42.309 -38 1.54894
      vertex 41.191 -38 1.91221
    endloop
  endfacet
  facet normal -0.809011 -0.000345301 0.587793
    outer loop
      vertex 42.309 38 1.54894
      vertex 42.7755 37.9511 2.19098
      vertex 43 38 2.5
    endloop
  endfacet
  facet normal -0.808999 0 0.587811
    outer loop
      vertex 42.7755 37.9511 2.19098
      vertex 42.309 38 1.54894
      vertex 42.309 37.0674 1.54894
    endloop
  endfacet
  facet normal -0.809037 0 0.587758
    outer loop
      vertex 43 38 2.5
      vertex 42.7755 37.9511 2.19098
      vertex 43 37.8507 2.5
    endloop
  endfacet
  facet normal -0.808999 0 0.587811
    outer loop
      vertex 42.309 -37.0674 1.54894
      vertex 42.309 -38 1.54894
      vertex 42.7755 -37.9511 2.19098
    endloop
  endfacet
  facet normal -0.809037 0 0.587758
    outer loop
      vertex 42.7755 -37.9511 2.19098
      vertex 43 -38 2.5
      vertex 43 -37.8507 2.5
    endloop
  endfacet
  facet normal -0.809011 0.000345301 0.587793
    outer loop
      vertex 43 -38 2.5
      vertex 42.7755 -37.9511 2.19098
      vertex 42.309 -38 1.54894
    endloop
  endfacet
  facet normal -0.808999 0 0.587811
    outer loop
      vertex 42.309 36.9326 1.54894
      vertex 42.7755 -36.0489 2.19098
      vertex 42.7755 36.0489 2.19098
    endloop
  endfacet
  facet normal -0.808999 0 0.587811
    outer loop
      vertex 42.7755 -36.0489 2.19098
      vertex 42.309 36.9326 1.54894
      vertex 42.309 -36.9326 1.54894
    endloop
  endfacet
  facet normal -0.809037 0 0.587758
    outer loop
      vertex 42.7755 -36.0489 2.19098
      vertex 43 36.1493 2.5
      vertex 42.7755 36.0489 2.19098
    endloop
  endfacet
  facet normal -0.809037 0 0.587758
    outer loop
      vertex 43 36.1493 2.5
      vertex 42.7755 -36.0489 2.19098
      vertex 43 -36.1493 2.5
    endloop
  endfacet
  facet normal 0 -1 0
    outer loop
      vertex 42.309 38 1.54894
      vertex 41.191 38 2.5
      vertex 41.191 38 1.91221
    endloop
  endfacet
  facet normal 0 -1 0
    outer loop
      vertex 41.191 38 2.5
      vertex 42.309 38 1.54894
      vertex 43 38 2.5
    endloop
  endfacet
  facet normal 0.309025 0 0.951054
    outer loop
      vertex -42.809 -37.5674 1.91221
      vertex -41.691 -38 1.54894
      vertex -41.691 -37.0674 1.54894
    endloop
  endfacet
  facet normal 0.309025 0 0.951054
    outer loop
      vertex -41.691 -38 1.54894
      vertex -42.809 -37.5674 1.91221
      vertex -42.809 -38 1.91221
    endloop
  endfacet
  facet normal 0.309025 -0 0.951054
    outer loop
      vertex -42.809 37.5674 1.91221
      vertex -41.691 38 1.54894
      vertex -42.809 38 1.91221
    endloop
  endfacet
  facet normal 0.309025 0 0.951054
    outer loop
      vertex -41.691 38 1.54894
      vertex -42.809 37.5674 1.91221
      vertex -41.691 37.0674 1.54894
    endloop
  endfacet
  facet normal 0.309025 0 0.951054
    outer loop
      vertex -42.809 36.4326 1.91221
      vertex -41.691 -36.9326 1.54894
      vertex -41.691 36.9326 1.54894
    endloop
  endfacet
  facet normal 0.309025 0 0.951054
    outer loop
      vertex -41.691 -36.9326 1.54894
      vertex -42.809 36.4326 1.91221
      vertex -42.809 -36.4326 1.91221
    endloop
  endfacet
  facet normal 0 1 -0
    outer loop
      vertex -41.691 -38 1.54894
      vertex -42.809 -38 2.5
      vertex -41 -38 2.5
    endloop
  endfacet
  facet normal 0 1 0
    outer loop
      vertex -42.809 -38 2.5
      vertex -41.691 -38 1.54894
      vertex -42.809 -38 1.91221
    endloop
  endfacet
  facet normal 1 0 0
    outer loop
      vertex -42.809 -37.8507 2.5
      vertex -42.809 -38 2.5
      vertex -42.809 -37.9511 2.19098
    endloop
  endfacet
  facet normal 1 0 0
    outer loop
      vertex -42.809 -37.9511 2.19098
      vertex -42.809 -38 1.91221
      vertex -42.809 -37.5674 1.91221
    endloop
  endfacet
  facet normal 1 0 0
    outer loop
      vertex -42.809 -38 1.91221
      vertex -42.809 -37.9511 2.19098
      vertex -42.809 -38 2.5
    endloop
  endfacet
  facet normal 1 0 0
    outer loop
      vertex -42.809 38 2.5
      vertex -42.809 37.9511 2.19098
      vertex -42.809 38 1.91221
    endloop
  endfacet
  facet normal 1 0 -0
    outer loop
      vertex -42.809 37.9511 2.19098
      vertex -42.809 38 2.5
      vertex -42.809 37.8507 2.5
    endloop
  endfacet
  facet normal 1 0 0
    outer loop
      vertex -42.809 38 1.91221
      vertex -42.809 37.9511 2.19098
      vertex -42.809 37.5674 1.91221
    endloop
  endfacet
  facet normal 1 0 0
    outer loop
      vertex -42.809 36.1493 2.5
      vertex -42.809 -36.0489 2.19098
      vertex -42.809 36.0489 2.19098
    endloop
  endfacet
  facet normal 1 0 -0
    outer loop
      vertex -42.809 -36.0489 2.19098
      vertex -42.809 36.1493 2.5
      vertex -42.809 -36.1493 2.5
    endloop
  endfacet
  facet normal 1 -0 0
    outer loop
      vertex -42.809 -36.0489 2.19098
      vertex -42.809 36.4326 1.91221
      vertex -42.809 36.0489 2.19098
    endloop
  endfacet
  facet normal 1 0 0
    outer loop
      vertex -42.809 36.4326 1.91221
      vertex -42.809 -36.0489 2.19098
      vertex -42.809 -36.4326 1.91221
    endloop
  endfacet
  facet normal 0 -1 0
    outer loop
      vertex -41.691 38 1.54894
      vertex -42.809 38 2.5
      vertex -42.809 38 1.91221
    endloop
  endfacet
  facet normal 0 -1 0
    outer loop
      vertex -42.809 38 2.5
      vertex -41.691 38 1.54894
      vertex -41 38 2.5
    endloop
  endfacet
  facet normal -0.808999 0 0.587811
    outer loop
      vertex -41.691 -37.0674 1.54894
      vertex -41.691 -38 1.54894
      vertex -41.2245 -37.9511 2.19098
    endloop
  endfacet
  facet normal -0.809037 0 0.587758
    outer loop
      vertex -41.2245 -37.9511 2.19098
      vertex -41 -38 2.5
      vertex -41 -37.8507 2.5
    endloop
  endfacet
  facet normal -0.809011 0.000345301 0.587793
    outer loop
      vertex -41 -38 2.5
      vertex -41.2245 -37.9511 2.19098
      vertex -41.691 -38 1.54894
    endloop
  endfacet
  facet normal -0.809011 -0.000345301 0.587793
    outer loop
      vertex -41.691 38 1.54894
      vertex -41.2245 37.9511 2.19098
      vertex -41 38 2.5
    endloop
  endfacet
  facet normal -0.808999 0 0.587811
    outer loop
      vertex -41.2245 37.9511 2.19098
      vertex -41.691 38 1.54894
      vertex -41.691 37.0674 1.54894
    endloop
  endfacet
  facet normal -0.809037 0 0.587758
    outer loop
      vertex -41 38 2.5
      vertex -41.2245 37.9511 2.19098
      vertex -41 37.8507 2.5
    endloop
  endfacet
  facet normal -0.808999 0 0.587811
    outer loop
      vertex -41.691 36.9326 1.54894
      vertex -41.2245 -36.0489 2.19098
      vertex -41.2245 36.0489 2.19098
    endloop
  endfacet
  facet normal -0.808999 0 0.587811
    outer loop
      vertex -41.2245 -36.0489 2.19098
      vertex -41.691 36.9326 1.54894
      vertex -41.691 -36.9326 1.54894
    endloop
  endfacet
  facet normal -0.809037 0 0.587758
    outer loop
      vertex -41.2245 -36.0489 2.19098
      vertex -41 36.1493 2.5
      vertex -41.2245 36.0489 2.19098
    endloop
  endfacet
  facet normal -0.809037 0 0.587758
    outer loop
      vertex -41 36.1493 2.5
      vertex -41.2245 -36.0489 2.19098
      vertex -41 -36.1493 2.5
    endloop
  endfacet
  facet normal -1 0 0
    outer loop
      vertex 43 37 1.5
      vertex 43 37.8507 2.5
      vertex 43 37.9511 2.19098
    endloop
  endfacet
  facet normal -1 0 0
    outer loop
      vertex 43 37 1.5
      vertex 43 36.1493 2.5
      vertex 43 37.8507 2.5
    endloop
  endfacet
  facet normal -1 0 -0
    outer loop
      vertex 43 36.1493 2.5
      vertex 43 37 1.5
      vertex 43 36.0489 2.19098
    endloop
  endfacet
  facet normal 0 -0.951063 -0.308998
    outer loop
      vertex -43 37.9511 2.19098
      vertex -42.809 37.8507 2.5
      vertex -43 37.8507 2.5
    endloop
  endfacet
  facet normal 0 -0.951063 -0.308998
    outer loop
      vertex -42.809 37.8507 2.5
      vertex -43 37.9511 2.19098
      vertex -42.809 37.9511 2.19098
    endloop
  endfacet
  facet normal -0 -0.951063 -0.308998
    outer loop
      vertex 43 37.9511 2.19098
      vertex 43 37.8507 2.5
      vertex 42.7755 37.9511 2.19098
    endloop
  endfacet
  facet normal -0 -0.951063 -0.308998
    outer loop
      vertex 41.191 37.9511 2.19098
      vertex -41 37.8507 2.5
      vertex -41.2245 37.9511 2.19098
    endloop
  endfacet
  facet normal 0 -0.951063 -0.308998
    outer loop
      vertex -41 37.8507 2.5
      vertex 41.191 37.9511 2.19098
      vertex 41.191 37.8507 2.5
    endloop
  endfacet
  facet normal 0 0.951063 -0.308998
    outer loop
      vertex 43 36.1493 2.5
      vertex 43 36.0489 2.19098
      vertex 42.7755 36.0489 2.19098
    endloop
  endfacet
  facet normal 0 0.951063 -0.308998
    outer loop
      vertex -42.809 36.0489 2.19098
      vertex -43 36.1493 2.5
      vertex -42.809 36.1493 2.5
    endloop
  endfacet
  facet normal 0 0.951063 -0.308998
    outer loop
      vertex -43 36.1493 2.5
      vertex -42.809 36.0489 2.19098
      vertex -43 36.0489 2.19098
    endloop
  endfacet
  facet normal 0 0.951063 -0.308998
    outer loop
      vertex 41.191 36.0489 2.19098
      vertex -41 36.1493 2.5
      vertex 41.191 36.1493 2.5
    endloop
  endfacet
  facet normal 0 0.951063 -0.308998
    outer loop
      vertex -41 36.1493 2.5
      vertex 41.191 36.0489 2.19098
      vertex -41.2245 36.0489 2.19098
    endloop
  endfacet
  facet normal 1 0 0
    outer loop
      vertex -43 37.8507 2.5
      vertex -43 37 1.5
      vertex -43 37.9511 2.19098
    endloop
  endfacet
  facet normal 1 -0 0
    outer loop
      vertex -43 36.1493 2.5
      vertex -43 37 1.5
      vertex -43 37.8507 2.5
    endloop
  endfacet
  facet normal 1 0 0
    outer loop
      vertex -43 37 1.5
      vertex -43 36.1493 2.5
      vertex -43 36.0489 2.19098
    endloop
  endfacet
  facet normal 0 -0.587779 0.809021
    outer loop
      vertex -42.809 37.9511 2.19098
      vertex -43 37.9511 2.19098
      vertex -42.809 37.5674 1.91221
    endloop
  endfacet
  facet normal 0 -0.587779 0.809021
    outer loop
      vertex 41.191 37.9511 2.19098
      vertex -41.2245 37.9511 2.19098
      vertex 41.191 37.5674 1.91221
    endloop
  endfacet
  facet normal 0 -0.587766 0.809031
    outer loop
      vertex 42.7755 37.9511 2.19098
      vertex 43 37 1.5
      vertex 43 37.9511 2.19098
    endloop
  endfacet
  facet normal -3.1775e-05 -0.587771 0.809027
    outer loop
      vertex 42.309 37.0674 1.54894
      vertex 43 37 1.5
      vertex 42.7755 37.9511 2.19098
    endloop
  endfacet
  facet normal -1.88266e-08 -0.587782 0.809019
    outer loop
      vertex -41.691 37.0674 1.54894
      vertex 41.191 37.5674 1.91221
      vertex -41.2245 37.9511 2.19098
    endloop
  endfacet
  facet normal 0 -0.587784 0.809018
    outer loop
      vertex 41.191 37.5674 1.91221
      vertex -41.691 37.0674 1.54894
      vertex 42.309 37.0674 1.54894
    endloop
  endfacet
  facet normal 0 -0.587558 0.809182
    outer loop
      vertex 42.309 37.0674 1.54894
      vertex -41.691 37.0674 1.54894
      vertex 43 37 1.5
    endloop
  endfacet
  facet normal 0 -0.587558 0.809182
    outer loop
      vertex -41.691 37.0674 1.54894
      vertex -43 37 1.5
      vertex 43 37 1.5
    endloop
  endfacet
  facet normal 1.596e-05 -0.587761 0.809035
    outer loop
      vertex -42.809 37.5674 1.91221
      vertex -43 37 1.5
      vertex -41.691 37.0674 1.54894
    endloop
  endfacet
  facet normal 4.06208e-05 -0.587766 0.809031
    outer loop
      vertex -43 37 1.5
      vertex -42.809 37.5674 1.91221
      vertex -43 37.9511 2.19098
    endloop
  endfacet
  facet normal 0 0.587766 0.809031
    outer loop
      vertex 43 37 1.5
      vertex 42.7755 36.0489 2.19098
      vertex 43 36.0489 2.19098
    endloop
  endfacet
  facet normal -3.1775e-05 0.587771 0.809027
    outer loop
      vertex 43 37 1.5
      vertex 42.309 36.9326 1.54894
      vertex 42.7755 36.0489 2.19098
    endloop
  endfacet
  facet normal 0 0.587779 0.809021
    outer loop
      vertex 41.191 36.4326 1.91221
      vertex -41.2245 36.0489 2.19098
      vertex 41.191 36.0489 2.19098
    endloop
  endfacet
  facet normal -0 0.587784 0.809018
    outer loop
      vertex -41.691 36.9326 1.54894
      vertex 41.191 36.4326 1.91221
      vertex 42.309 36.9326 1.54894
    endloop
  endfacet
  facet normal -0 0.587558 0.809182
    outer loop
      vertex -41.691 36.9326 1.54894
      vertex 42.309 36.9326 1.54894
      vertex 43 37 1.5
    endloop
  endfacet
  facet normal -1.88266e-08 0.587782 0.809019
    outer loop
      vertex 41.191 36.4326 1.91221
      vertex -41.691 36.9326 1.54894
      vertex -41.2245 36.0489 2.19098
    endloop
  endfacet
  facet normal -0 0.587558 0.809182
    outer loop
      vertex -43 37 1.5
      vertex -41.691 36.9326 1.54894
      vertex 43 37 1.5
    endloop
  endfacet
  facet normal 1.596e-05 0.587761 0.809035
    outer loop
      vertex -43 37 1.5
      vertex -42.809 36.4326 1.91221
      vertex -41.691 36.9326 1.54894
    endloop
  endfacet
  facet normal 4.06208e-05 0.587766 0.809031
    outer loop
      vertex -43 36.0489 2.19098
      vertex -42.809 36.4326 1.91221
      vertex -43 37 1.5
    endloop
  endfacet
  facet normal 0 0.587779 0.809021
    outer loop
      vertex -42.809 36.4326 1.91221
      vertex -43 36.0489 2.19098
      vertex -42.809 36.0489 2.19098
    endloop
  endfacet
  facet normal 0 -0.587779 0.809021
    outer loop
      vertex -42.809 -36.0489 2.19098
      vertex -43 -36.0489 2.19098
      vertex -42.809 -36.4326 1.91221
    endloop
  endfacet
  facet normal 0 -0.587779 0.809021
    outer loop
      vertex 41.191 -36.0489 2.19098
      vertex -41.2245 -36.0489 2.19098
      vertex 41.191 -36.4326 1.91221
    endloop
  endfacet
  facet normal 0 -0.587766 0.809031
    outer loop
      vertex 42.7755 -36.0489 2.19098
      vertex 43 -37 1.5
      vertex 43 -36.0489 2.19098
    endloop
  endfacet
  facet normal -3.1775e-05 -0.587771 0.809027
    outer loop
      vertex 42.309 -36.9326 1.54894
      vertex 43 -37 1.5
      vertex 42.7755 -36.0489 2.19098
    endloop
  endfacet
  facet normal -1.88266e-08 -0.587782 0.809019
    outer loop
      vertex -41.691 -36.9326 1.54894
      vertex 41.191 -36.4326 1.91221
      vertex -41.2245 -36.0489 2.19098
    endloop
  endfacet
  facet normal 0 -0.587784 0.809018
    outer loop
      vertex 41.191 -36.4326 1.91221
      vertex -41.691 -36.9326 1.54894
      vertex 42.309 -36.9326 1.54894
    endloop
  endfacet
  facet normal 0 -0.587558 0.809182
    outer loop
      vertex 42.309 -36.9326 1.54894
      vertex -41.691 -36.9326 1.54894
      vertex 43 -37 1.5
    endloop
  endfacet
  facet normal 0 -0.587558 0.809182
    outer loop
      vertex -41.691 -36.9326 1.54894
      vertex -43 -37 1.5
      vertex 43 -37 1.5
    endloop
  endfacet
  facet normal 1.596e-05 -0.587761 0.809035
    outer loop
      vertex -42.809 -36.4326 1.91221
      vertex -43 -37 1.5
      vertex -41.691 -36.9326 1.54894
    endloop
  endfacet
  facet normal 4.06208e-05 -0.587766 0.809031
    outer loop
      vertex -43 -37 1.5
      vertex -42.809 -36.4326 1.91221
      vertex -43 -36.0489 2.19098
    endloop
  endfacet
  facet normal 0 -0.951063 -0.308998
    outer loop
      vertex -43 -36.0489 2.19098
      vertex -42.809 -36.1493 2.5
      vertex -43 -36.1493 2.5
    endloop
  endfacet
  facet normal 0 -0.951063 -0.308998
    outer loop
      vertex -42.809 -36.1493 2.5
      vertex -43 -36.0489 2.19098
      vertex -42.809 -36.0489 2.19098
    endloop
  endfacet
  facet normal -0 -0.951063 -0.308998
    outer loop
      vertex 43 -36.0489 2.19098
      vertex 43 -36.1493 2.5
      vertex 42.7755 -36.0489 2.19098
    endloop
  endfacet
  facet normal -0 -0.951063 -0.308998
    outer loop
      vertex 41.191 -36.0489 2.19098
      vertex -41 -36.1493 2.5
      vertex -41.2245 -36.0489 2.19098
    endloop
  endfacet
  facet normal 0 -0.951063 -0.308998
    outer loop
      vertex -41 -36.1493 2.5
      vertex 41.191 -36.0489 2.19098
      vertex 41.191 -36.1493 2.5
    endloop
  endfacet
  facet normal 0 0.951063 -0.308998
    outer loop
      vertex -42.809 -37.9511 2.19098
      vertex -43 -37.8507 2.5
      vertex -42.809 -37.8507 2.5
    endloop
  endfacet
  facet normal 0 0.951063 -0.308998
    outer loop
      vertex -43 -37.8507 2.5
      vertex -42.809 -37.9511 2.19098
      vertex -43 -37.9511 2.19098
    endloop
  endfacet
  facet normal 0 0.951063 -0.308998
    outer loop
      vertex 43 -37.8507 2.5
      vertex 43 -37.9511 2.19098
      vertex 42.7755 -37.9511 2.19098
    endloop
  endfacet
  facet normal 0 0.951063 -0.308998
    outer loop
      vertex 41.191 -37.9511 2.19098
      vertex -41 -37.8507 2.5
      vertex 41.191 -37.8507 2.5
    endloop
  endfacet
  facet normal 0 0.951063 -0.308998
    outer loop
      vertex -41 -37.8507 2.5
      vertex 41.191 -37.9511 2.19098
      vertex -41.2245 -37.9511 2.19098
    endloop
  endfacet
  facet normal 0 0.587766 0.809031
    outer loop
      vertex 43 -37 1.5
      vertex 42.7755 -37.9511 2.19098
      vertex 43 -37.9511 2.19098
    endloop
  endfacet
  facet normal -3.1775e-05 0.587771 0.809027
    outer loop
      vertex 43 -37 1.5
      vertex 42.309 -37.0674 1.54894
      vertex 42.7755 -37.9511 2.19098
    endloop
  endfacet
  facet normal 0 0.587779 0.809021
    outer loop
      vertex 41.191 -37.5674 1.91221
      vertex -41.2245 -37.9511 2.19098
      vertex 41.191 -37.9511 2.19098
    endloop
  endfacet
  facet normal -0 0.587784 0.809018
    outer loop
      vertex -41.691 -37.0674 1.54894
      vertex 41.191 -37.5674 1.91221
      vertex 42.309 -37.0674 1.54894
    endloop
  endfacet
  facet normal -0 0.587558 0.809182
    outer loop
      vertex -41.691 -37.0674 1.54894
      vertex 42.309 -37.0674 1.54894
      vertex 43 -37 1.5
    endloop
  endfacet
  facet normal -1.88266e-08 0.587782 0.809019
    outer loop
      vertex 41.191 -37.5674 1.91221
      vertex -41.691 -37.0674 1.54894
      vertex -41.2245 -37.9511 2.19098
    endloop
  endfacet
  facet normal -0 0.587558 0.809182
    outer loop
      vertex -43 -37 1.5
      vertex -41.691 -37.0674 1.54894
      vertex 43 -37 1.5
    endloop
  endfacet
  facet normal 1.596e-05 0.587761 0.809035
    outer loop
      vertex -43 -37 1.5
      vertex -42.809 -37.5674 1.91221
      vertex -41.691 -37.0674 1.54894
    endloop
  endfacet
  facet normal 4.06208e-05 0.587766 0.809031
    outer loop
      vertex -43 -37.9511 2.19098
      vertex -42.809 -37.5674 1.91221
      vertex -43 -37 1.5
    endloop
  endfacet
  facet normal 0 0.587779 0.809021
    outer loop
      vertex -42.809 -37.5674 1.91221
      vertex -43 -37.9511 2.19098
      vertex -42.809 -37.9511 2.19098
    endloop
  endfacet
  facet normal 1 0 0
    outer loop
      vertex -43 -36.1493 2.5
      vertex -43 -37 1.5
      vertex -43 -36.0489 2.19098
    endloop
  endfacet
  facet normal 1 -0 0
    outer loop
      vertex -43 -37.8507 2.5
      vertex -43 -37 1.5
      vertex -43 -36.1493 2.5
    endloop
  endfacet
  facet normal 1 0 0
    outer loop
      vertex -43 -37 1.5
      vertex -43 -37.8507 2.5
      vertex -43 -37.9511 2.19098
    endloop
  endfacet
  facet normal -1 0 0
    outer loop
      vertex 43 -37 1.5
      vertex 43 -36.1493 2.5
      vertex 43 -36.0489 2.19098
    endloop
  endfacet
  facet normal -1 0 0
    outer loop
      vertex 43 -37 1.5
      vertex 43 -37.8507 2.5
      vertex 43 -36.1493 2.5
    endloop
  endfacet
  facet normal -1 0 -0
    outer loop
      vertex 43 -37.8507 2.5
      vertex 43 -37 1.5
      vertex 43 -37.9511 2.19098
    endloop
  endfacet
  facet normal -0.222522 -0.974928 0
    outer loop
      vertex 49.5327 2.04735 -2.5
      vertex 51.3093 1.64185 2.5
      vertex 49.5327 2.04735 2.5
    endloop
  endfacet
  facet normal -0.222522 -0.974928 -0
    outer loop
      vertex 51.3093 1.64185 2.5
      vertex 49.5327 2.04735 -2.5
      vertex 51.3093 1.64185 -2.5
    endloop
  endfacet
  facet normal -0.900963 -0.433896 0
    outer loop
      vertex 52.1 0 -2.5
      vertex 51.3093 1.64185 2.5
      vertex 51.3093 1.64185 -2.5
    endloop
  endfacet
  facet normal -0.900963 -0.433896 0
    outer loop
      vertex 51.3093 1.64185 2.5
      vertex 52.1 0 -2.5
      vertex 52.1 0 2.5
    endloop
  endfacet
  facet normal 0.623501 -0.781822 0
    outer loop
      vertex 48.108 0.911156 -2.5
      vertex 49.5327 2.04735 2.5
      vertex 48.108 0.911156 2.5
    endloop
  endfacet
  facet normal 0.623501 -0.781822 0
    outer loop
      vertex 49.5327 2.04735 2.5
      vertex 48.108 0.911156 -2.5
      vertex 49.5327 2.04735 -2.5
    endloop
  endfacet
  facet normal 1 -0 0
    outer loop
      vertex 48.108 -0.911156 2.5
      vertex 48.108 0.911156 -2.5
      vertex 48.108 0.911156 2.5
    endloop
  endfacet
  facet normal 1 0 0
    outer loop
      vertex 48.108 0.911156 -2.5
      vertex 48.108 -0.911156 2.5
      vertex 48.108 -0.911156 -2.5
    endloop
  endfacet
  facet normal -0.222522 0.974928 0
    outer loop
      vertex 51.3093 -1.64185 -2.5
      vertex 49.5327 -2.04735 2.5
      vertex 51.3093 -1.64185 2.5
    endloop
  endfacet
  facet normal -0.222522 0.974928 0
    outer loop
      vertex 49.5327 -2.04735 2.5
      vertex 51.3093 -1.64185 -2.5
      vertex 49.5327 -2.04735 -2.5
    endloop
  endfacet
  facet normal -0.900963 0.433896 0
    outer loop
      vertex 51.3093 -1.64185 -2.5
      vertex 52.1 0 2.5
      vertex 52.1 0 -2.5
    endloop
  endfacet
  facet normal -0.900963 0.433896 0
    outer loop
      vertex 52.1 0 2.5
      vertex 51.3093 -1.64185 -2.5
      vertex 51.3093 -1.64185 2.5
    endloop
  endfacet
  facet normal 0.623501 0.781822 -0
    outer loop
      vertex 49.5327 -2.04735 -2.5
      vertex 48.108 -0.911156 2.5
      vertex 49.5327 -2.04735 2.5
    endloop
  endfacet
  facet normal 0.623501 0.781822 0
    outer loop
      vertex 48.108 -0.911156 2.5
      vertex 49.5327 -2.04735 -2.5
      vertex 48.108 -0.911156 -2.5
    endloop
  endfacet
  facet normal -0.222522 -0.974928 0
    outer loop
      vertex -50.4673 2.04735 -2.5
      vertex -48.6907 1.64185 2.5
      vertex -50.4673 2.04735 2.5
    endloop
  endfacet
  facet normal -0.222522 -0.974928 -0
    outer loop
      vertex -48.6907 1.64185 2.5
      vertex -50.4673 2.04735 -2.5
      vertex -48.6907 1.64185 -2.5
    endloop
  endfacet
  facet normal -0.900963 -0.433896 0
    outer loop
      vertex -47.9 0 -2.5
      vertex -48.6907 1.64185 2.5
      vertex -48.6907 1.64185 -2.5
    endloop
  endfacet
  facet normal -0.900963 -0.433896 0
    outer loop
      vertex -48.6907 1.64185 2.5
      vertex -47.9 0 -2.5
      vertex -47.9 0 2.5
    endloop
  endfacet
  facet normal 0.623501 -0.781822 0
    outer loop
      vertex -51.892 0.911156 -2.5
      vertex -50.4673 2.04735 2.5
      vertex -51.892 0.911156 2.5
    endloop
  endfacet
  facet normal 0.623501 -0.781822 0
    outer loop
      vertex -50.4673 2.04735 2.5
      vertex -51.892 0.911156 -2.5
      vertex -50.4673 2.04735 -2.5
    endloop
  endfacet
  facet normal 1 -0 0
    outer loop
      vertex -51.892 -0.911156 2.5
      vertex -51.892 0.911156 -2.5
      vertex -51.892 0.911156 2.5
    endloop
  endfacet
  facet normal 1 0 0
    outer loop
      vertex -51.892 0.911156 -2.5
      vertex -51.892 -0.911156 2.5
      vertex -51.892 -0.911156 -2.5
    endloop
  endfacet
  facet normal -0.222522 0.974928 0
    outer loop
      vertex -48.6907 -1.64185 -2.5
      vertex -50.4673 -2.04735 2.5
      vertex -48.6907 -1.64185 2.5
    endloop
  endfacet
  facet normal -0.222522 0.974928 0
    outer loop
      vertex -50.4673 -2.04735 2.5
      vertex -48.6907 -1.64185 -2.5
      vertex -50.4673 -2.04735 -2.5
    endloop
  endfacet
  facet normal -0.900963 0.433896 0
    outer loop
      vertex -48.6907 -1.64185 -2.5
      vertex -47.9 0 2.5
      vertex -47.9 0 -2.5
    endloop
  endfacet
  facet normal -0.900963 0.433896 0
    outer loop
      vertex -47.9 0 2.5
      vertex -48.6907 -1.64185 -2.5
      vertex -48.6907 -1.64185 2.5
    endloop
  endfacet
  facet normal 0.623501 0.781822 -0
    outer loop
      vertex -50.4673 -2.04735 -2.5
      vertex -51.892 -0.911156 2.5
      vertex -50.4673 -2.04735 2.5
    endloop
  endfacet
  facet normal 0.623501 0.781822 0
    outer loop
      vertex -51.892 -0.911156 2.5
      vertex -50.4673 -2.04735 -2.5
      vertex -51.892 -0.911156 -2.5
    endloop
  endfacet
  facet normal -0.222519 -0.974928 0
    outer loop
      vertex -0.467294 47.0473 -2.5
      vertex 1.30933 46.6418 2.5
      vertex -0.467294 47.0473 2.5
    endloop
  endfacet
  facet normal -0.222519 -0.974928 -0
    outer loop
      vertex 1.30933 46.6418 2.5
      vertex -0.467294 47.0473 -2.5
      vertex 1.30933 46.6418 -2.5
    endloop
  endfacet
  facet normal -0.900964 -0.433893 0
    outer loop
      vertex 2.1 45 -2.5
      vertex 1.30933 46.6418 2.5
      vertex 1.30933 46.6418 -2.5
    endloop
  endfacet
  facet normal -0.900964 -0.433893 0
    outer loop
      vertex 1.30933 46.6418 2.5
      vertex 2.1 45 -2.5
      vertex 2.1 45 2.5
    endloop
  endfacet
  facet normal 0.62346 -0.781855 0
    outer loop
      vertex -1.89203 45.9112 -2.5
      vertex -0.467294 47.0473 2.5
      vertex -1.89203 45.9112 2.5
    endloop
  endfacet
  facet normal 0.62346 -0.781855 0
    outer loop
      vertex -0.467294 47.0473 2.5
      vertex -1.89203 45.9112 -2.5
      vertex -0.467294 47.0473 -2.5
    endloop
  endfacet
  facet normal 1 -0 0
    outer loop
      vertex -1.89203 44.0888 2.5
      vertex -1.89203 45.9112 -2.5
      vertex -1.89203 45.9112 2.5
    endloop
  endfacet
  facet normal 1 0 0
    outer loop
      vertex -1.89203 45.9112 -2.5
      vertex -1.89203 44.0888 2.5
      vertex -1.89203 44.0888 -2.5
    endloop
  endfacet
  facet normal -0.222519 0.974928 0
    outer loop
      vertex 1.30933 43.3582 -2.5
      vertex -0.467294 42.9527 2.5
      vertex 1.30933 43.3582 2.5
    endloop
  endfacet
  facet normal -0.222519 0.974928 0
    outer loop
      vertex -0.467294 42.9527 2.5
      vertex 1.30933 43.3582 -2.5
      vertex -0.467294 42.9527 -2.5
    endloop
  endfacet
  facet normal -0.900964 0.433893 0
    outer loop
      vertex 1.30933 43.3582 -2.5
      vertex 2.1 45 2.5
      vertex 2.1 45 -2.5
    endloop
  endfacet
  facet normal -0.900964 0.433893 0
    outer loop
      vertex 2.1 45 2.5
      vertex 1.30933 43.3582 -2.5
      vertex 1.30933 43.3582 2.5
    endloop
  endfacet
  facet normal 0.62346 0.781855 -0
    outer loop
      vertex -0.467294 42.9527 -2.5
      vertex -1.89203 44.0888 2.5
      vertex -0.467294 42.9527 2.5
    endloop
  endfacet
  facet normal 0.62346 0.781855 0
    outer loop
      vertex -1.89203 44.0888 2.5
      vertex -0.467294 42.9527 -2.5
      vertex -1.89203 44.0888 -2.5
    endloop
  endfacet
  facet normal -0.222519 -0.974928 0
    outer loop
      vertex -0.467294 -42.9527 -2.5
      vertex 1.30933 -43.3582 2.5
      vertex -0.467294 -42.9527 2.5
    endloop
  endfacet
  facet normal -0.222519 -0.974928 -0
    outer loop
      vertex 1.30933 -43.3582 2.5
      vertex -0.467294 -42.9527 -2.5
      vertex 1.30933 -43.3582 -2.5
    endloop
  endfacet
  facet normal -0.900964 -0.433893 0
    outer loop
      vertex 2.1 -45 -2.5
      vertex 1.30933 -43.3582 2.5
      vertex 1.30933 -43.3582 -2.5
    endloop
  endfacet
  facet normal -0.900964 -0.433893 0
    outer loop
      vertex 1.30933 -43.3582 2.5
      vertex 2.1 -45 -2.5
      vertex 2.1 -45 2.5
    endloop
  endfacet
  facet normal 0.62346 -0.781855 0
    outer loop
      vertex -1.89203 -44.0888 -2.5
      vertex -0.467294 -42.9527 2.5
      vertex -1.89203 -44.0888 2.5
    endloop
  endfacet
  facet normal 0.62346 -0.781855 0
    outer loop
      vertex -0.467294 -42.9527 2.5
      vertex -1.89203 -44.0888 -2.5
      vertex -0.467294 -42.9527 -2.5
    endloop
  endfacet
  facet normal 1 -0 0
    outer loop
      vertex -1.89203 -45.9112 2.5
      vertex -1.89203 -44.0888 -2.5
      vertex -1.89203 -44.0888 2.5
    endloop
  endfacet
  facet normal 1 0 0
    outer loop
      vertex -1.89203 -44.0888 -2.5
      vertex -1.89203 -45.9112 2.5
      vertex -1.89203 -45.9112 -2.5
    endloop
  endfacet
  facet normal -0.222519 0.974928 0
    outer loop
      vertex 1.30933 -46.6418 -2.5
      vertex -0.467294 -47.0473 2.5
      vertex 1.30933 -46.6418 2.5
    endloop
  endfacet
  facet normal -0.222519 0.974928 0
    outer loop
      vertex -0.467294 -47.0473 2.5
      vertex 1.30933 -46.6418 -2.5
      vertex -0.467294 -47.0473 -2.5
    endloop
  endfacet
  facet normal -0.900964 0.433893 0
    outer loop
      vertex 1.30933 -46.6418 -2.5
      vertex 2.1 -45 2.5
      vertex 2.1 -45 -2.5
    endloop
  endfacet
  facet normal -0.900964 0.433893 0
    outer loop
      vertex 2.1 -45 2.5
      vertex 1.30933 -46.6418 -2.5
      vertex 1.30933 -46.6418 2.5
    endloop
  endfacet
  facet normal 0.62346 0.781855 -0
    outer loop
      vertex -0.467294 -47.0473 -2.5
      vertex -1.89203 -45.9112 2.5
      vertex -0.467294 -47.0473 2.5
    endloop
  endfacet
  facet normal 0.62346 0.781855 0
    outer loop
      vertex -1.89203 -45.9112 2.5
      vertex -0.467294 -47.0473 -2.5
      vertex -1.89203 -45.9112 -2.5
    endloop
  endfacet
  facet normal 0.309048 0.951047 -0
    outer loop
      vertex 51.309 45.0489 -2.5
      vertex 50.191 45.4122 2.5
      vertex 51.309 45.0489 2.5
    endloop
  endfacet
  facet normal 0.309048 0.951047 0
    outer loop
      vertex 50.191 45.4122 2.5
      vertex 51.309 45.0489 -2.5
      vertex 50.191 45.4122 -2.5
    endloop
  endfacet
  facet normal 0.309048 -0.951047 0
    outer loop
      vertex 50.191 46.5878 -2.5
      vertex 51.309 46.9511 2.5
      vertex 50.191 46.5878 2.5
    endloop
  endfacet
  facet normal 0.309048 -0.951047 0
    outer loop
      vertex 51.309 46.9511 2.5
      vertex 50.191 46.5878 -2.5
      vertex 51.309 46.9511 -2.5
    endloop
  endfacet
  facet normal -0.809023 -0.587777 0
    outer loop
      vertex 52 46 -2.5
      vertex 51.309 46.9511 2.5
      vertex 51.309 46.9511 -2.5
    endloop
  endfacet
  facet normal -0.809023 -0.587777 0
    outer loop
      vertex 51.309 46.9511 2.5
      vertex 52 46 -2.5
      vertex 52 46 2.5
    endloop
  endfacet
  facet normal 1 -0 0
    outer loop
      vertex 50.191 45.4122 2.5
      vertex 50.191 46.5878 -2.5
      vertex 50.191 46.5878 2.5
    endloop
  endfacet
  facet normal 1 0 0
    outer loop
      vertex 50.191 46.5878 -2.5
      vertex 50.191 45.4122 2.5
      vertex 50.191 45.4122 -2.5
    endloop
  endfacet
  facet normal -0.809023 0.587777 0
    outer loop
      vertex 51.309 45.0489 -2.5
      vertex 52 46 2.5
      vertex 52 46 -2.5
    endloop
  endfacet
  facet normal -0.809023 0.587777 0
    outer loop
      vertex 52 46 2.5
      vertex 51.309 45.0489 -2.5
      vertex 51.309 45.0489 2.5
    endloop
  endfacet
  facet normal 0.309048 0.951047 -0
    outer loop
      vertex 51.309 -46.9511 -2.5
      vertex 50.191 -46.5878 2.5
      vertex 51.309 -46.9511 2.5
    endloop
  endfacet
  facet normal 0.309048 0.951047 0
    outer loop
      vertex 50.191 -46.5878 2.5
      vertex 51.309 -46.9511 -2.5
      vertex 50.191 -46.5878 -2.5
    endloop
  endfacet
  facet normal 0.309048 -0.951047 0
    outer loop
      vertex 50.191 -45.4122 -2.5
      vertex 51.309 -45.0489 2.5
      vertex 50.191 -45.4122 2.5
    endloop
  endfacet
  facet normal 0.309048 -0.951047 0
    outer loop
      vertex 51.309 -45.0489 2.5
      vertex 50.191 -45.4122 -2.5
      vertex 51.309 -45.0489 -2.5
    endloop
  endfacet
  facet normal -0.809023 -0.587777 0
    outer loop
      vertex 52 -46 -2.5
      vertex 51.309 -45.0489 2.5
      vertex 51.309 -45.0489 -2.5
    endloop
  endfacet
  facet normal -0.809023 -0.587777 0
    outer loop
      vertex 51.309 -45.0489 2.5
      vertex 52 -46 -2.5
      vertex 52 -46 2.5
    endloop
  endfacet
  facet normal 1 -0 0
    outer loop
      vertex 50.191 -46.5878 2.5
      vertex 50.191 -45.4122 -2.5
      vertex 50.191 -45.4122 2.5
    endloop
  endfacet
  facet normal 1 0 0
    outer loop
      vertex 50.191 -45.4122 -2.5
      vertex 50.191 -46.5878 2.5
      vertex 50.191 -46.5878 -2.5
    endloop
  endfacet
  facet normal -0.809023 0.587777 0
    outer loop
      vertex 51.309 -46.9511 -2.5
      vertex 52 -46 2.5
      vertex 52 -46 -2.5
    endloop
  endfacet
  facet normal -0.809023 0.587777 0
    outer loop
      vertex 52 -46 2.5
      vertex 51.309 -46.9511 -2.5
      vertex 51.309 -46.9511 2.5
    endloop
  endfacet
  facet normal 0.309048 0.951047 -0
    outer loop
      vertex -50.691 -46.9511 -2.5
      vertex -51.809 -46.5878 2.5
      vertex -50.691 -46.9511 2.5
    endloop
  endfacet
  facet normal 0.309048 0.951047 0
    outer loop
      vertex -51.809 -46.5878 2.5
      vertex -50.691 -46.9511 -2.5
      vertex -51.809 -46.5878 -2.5
    endloop
  endfacet
  facet normal 0.309048 -0.951047 0
    outer loop
      vertex -51.809 -45.4122 -2.5
      vertex -50.691 -45.0489 2.5
      vertex -51.809 -45.4122 2.5
    endloop
  endfacet
  facet normal 0.309048 -0.951047 0
    outer loop
      vertex -50.691 -45.0489 2.5
      vertex -51.809 -45.4122 -2.5
      vertex -50.691 -45.0489 -2.5
    endloop
  endfacet
  facet normal -0.809023 -0.587777 0
    outer loop
      vertex -50 -46 -2.5
      vertex -50.691 -45.0489 2.5
      vertex -50.691 -45.0489 -2.5
    endloop
  endfacet
  facet normal -0.809023 -0.587777 0
    outer loop
      vertex -50.691 -45.0489 2.5
      vertex -50 -46 -2.5
      vertex -50 -46 2.5
    endloop
  endfacet
  facet normal 1 -0 0
    outer loop
      vertex -51.809 -46.5878 2.5
      vertex -51.809 -45.4122 -2.5
      vertex -51.809 -45.4122 2.5
    endloop
  endfacet
  facet normal 1 0 0
    outer loop
      vertex -51.809 -45.4122 -2.5
      vertex -51.809 -46.5878 2.5
      vertex -51.809 -46.5878 -2.5
    endloop
  endfacet
  facet normal -0.809023 0.587777 0
    outer loop
      vertex -50.691 -46.9511 -2.5
      vertex -50 -46 2.5
      vertex -50 -46 -2.5
    endloop
  endfacet
  facet normal -0.809023 0.587777 0
    outer loop
      vertex -50 -46 2.5
      vertex -50.691 -46.9511 -2.5
      vertex -50.691 -46.9511 2.5
    endloop
  endfacet
  facet normal 0.309048 0.951047 -0
    outer loop
      vertex -50.691 45.0489 -2.5
      vertex -51.809 45.4122 2.5
      vertex -50.691 45.0489 2.5
    endloop
  endfacet
  facet normal 0.309048 0.951047 0
    outer loop
      vertex -51.809 45.4122 2.5
      vertex -50.691 45.0489 -2.5
      vertex -51.809 45.4122 -2.5
    endloop
  endfacet
  facet normal 0.309048 -0.951047 0
    outer loop
      vertex -51.809 46.5878 -2.5
      vertex -50.691 46.9511 2.5
      vertex -51.809 46.5878 2.5
    endloop
  endfacet
  facet normal 0.309048 -0.951047 0
    outer loop
      vertex -50.691 46.9511 2.5
      vertex -51.809 46.5878 -2.5
      vertex -50.691 46.9511 -2.5
    endloop
  endfacet
  facet normal -0.809023 -0.587777 0
    outer loop
      vertex -50 46 -2.5
      vertex -50.691 46.9511 2.5
      vertex -50.691 46.9511 -2.5
    endloop
  endfacet
  facet normal -0.809023 -0.587777 0
    outer loop
      vertex -50.691 46.9511 2.5
      vertex -50 46 -2.5
      vertex -50 46 2.5
    endloop
  endfacet
  facet normal 1 -0 0
    outer loop
      vertex -51.809 45.4122 2.5
      vertex -51.809 46.5878 -2.5
      vertex -51.809 46.5878 2.5
    endloop
  endfacet
  facet normal 1 0 0
    outer loop
      vertex -51.809 46.5878 -2.5
      vertex -51.809 45.4122 2.5
      vertex -51.809 45.4122 -2.5
    endloop
  endfacet
  facet normal -0.809023 0.587777 0
    outer loop
      vertex -50.691 45.0489 -2.5
      vertex -50 46 2.5
      vertex -50 46 -2.5
    endloop
  endfacet
  facet normal -0.809023 0.587777 0
    outer loop
      vertex -50 46 2.5
      vertex -50.691 45.0489 -2.5
      vertex -50.691 45.0489 2.5
    endloop
  endfacet
endsolid OpenSCAD_Model
