solid OpenSCAD_Model
  facet normal 1 -0 0
    outer loop
      vertex 55 -50 1
      vertex 55 50 -1
      vertex 55 50 1
    endloop
  endfacet
  facet normal 1 0 0
    outer loop
      vertex 55 50 -1
      vertex 55 -50 1
      vertex 55 -50 -1
    endloop
  endfacet
  facet normal -0 0 1
    outer loop
      vertex 0 41.5 1
      vertex 46.5 0 1
      vertex 1.76777 42.2322 1
    endloop
  endfacet
  facet normal 0 0 1
    outer loop
      vertex 46.5 0 1
      vertex 1.76777 -42.2322 1
      vertex 2.5 -44 1
    endloop
  endfacet
  facet normal 0 0 1
    outer loop
      vertex 0 -41.5 1
      vertex 46.5 0 1
      vertex 0 41.5 1
    endloop
  endfacet
  facet normal 0 0 1
    outer loop
      vertex 46.5 0 1
      vertex 0 -41.5 1
      vertex 1.76777 -42.2322 1
    endloop
  endfacet
  facet normal 0 0 1
    outer loop
      vertex -46.5 0 1
      vertex 0 41.5 1
      vertex -1.76777 42.2322 1
    endloop
  endfacet
  facet normal 0 0 1
    outer loop
      vertex 0 41.5 1
      vertex -46.5 0 1
      vertex 0 -41.5 1
    endloop
  endfacet
  facet normal 0 0 1
    outer loop
      vertex -55 50 1
      vertex -1.76777 42.2322 1
      vertex -2.5 44 1
    endloop
  endfacet
  facet normal 0 0 1
    outer loop
      vertex 0 -41.5 1
      vertex -46.5 0 1
      vertex -1.76777 -42.2322 1
    endloop
  endfacet
  facet normal 0 0 1
    outer loop
      vertex 55 50 1
      vertex 51.5 0 1
      vertex 55 -50 1
    endloop
  endfacet
  facet normal 0 0 1
    outer loop
      vertex 55 50 1
      vertex 50.7678 1.76777 1
      vertex 51.5 0 1
    endloop
  endfacet
  facet normal 0 0 1
    outer loop
      vertex 55 50 1
      vertex 49 2.5 1
      vertex 50.7678 1.76777 1
    endloop
  endfacet
  facet normal 0 0 1
    outer loop
      vertex 55 50 1
      vertex 47.2322 1.76777 1
      vertex 49 2.5 1
    endloop
  endfacet
  facet normal 0 0 1
    outer loop
      vertex 1.76777 42.2322 1
      vertex 55 50 1
      vertex 2.5 44 1
    endloop
  endfacet
  facet normal 0 0 1
    outer loop
      vertex 55 50 1
      vertex 1.76777 42.2322 1
      vertex 47.2322 1.76777 1
    endloop
  endfacet
  facet normal 0 0 1
    outer loop
      vertex 55 50 1
      vertex 1.76777 45.7678 1
      vertex 2.5 44 1
    endloop
  endfacet
  facet normal 0 0 1
    outer loop
      vertex 55 50 1
      vertex 0 46.5 1
      vertex 1.76777 45.7678 1
    endloop
  endfacet
  facet normal -0 0 1
    outer loop
      vertex -47.2322 -1.76777 1
      vertex -1.76777 -42.2322 1
      vertex -46.5 0 1
    endloop
  endfacet
  facet normal 0 0 1
    outer loop
      vertex -55 50 1
      vertex -2.5 44 1
      vertex -1.76777 45.7678 1
    endloop
  endfacet
  facet normal 0 0 1
    outer loop
      vertex -1.76777 42.2322 1
      vertex -47.2322 1.76777 1
      vertex -46.5 0 1
    endloop
  endfacet
  facet normal 0 0 1
    outer loop
      vertex -1.76777 42.2322 1
      vertex -55 50 1
      vertex -47.2322 1.76777 1
    endloop
  endfacet
  facet normal 0 0 1
    outer loop
      vertex -47.2322 1.76777 1
      vertex -55 50 1
      vertex -49 2.5 1
    endloop
  endfacet
  facet normal 0 0 1
    outer loop
      vertex -50.7678 1.76777 1
      vertex -55 50 1
      vertex -51.5 0 1
    endloop
  endfacet
  facet normal 0 0 1
    outer loop
      vertex -49 2.5 1
      vertex -55 50 1
      vertex -50.7678 1.76777 1
    endloop
  endfacet
  facet normal 0 0 1
    outer loop
      vertex 0 46.5 1
      vertex -55 50 1
      vertex -1.76777 45.7678 1
    endloop
  endfacet
  facet normal -0 0 1
    outer loop
      vertex -55 50 1
      vertex 0 46.5 1
      vertex 55 50 1
    endloop
  endfacet
  facet normal -0 0 1
    outer loop
      vertex 50.7678 -1.76777 1
      vertex 55 -50 1
      vertex 51.5 0 1
    endloop
  endfacet
  facet normal -0 0 1
    outer loop
      vertex 49 -2.5 1
      vertex 55 -50 1
      vertex 50.7678 -1.76777 1
    endloop
  endfacet
  facet normal 0 0 1
    outer loop
      vertex 47.2322 -1.76777 1
      vertex 55 -50 1
      vertex 49 -2.5 1
    endloop
  endfacet
  facet normal 0 0 1
    outer loop
      vertex 2.5 -44 1
      vertex 47.2322 -1.76777 1
      vertex 46.5 0 1
    endloop
  endfacet
  facet normal 0 0 1
    outer loop
      vertex 47.2322 1.76777 1
      vertex 1.76777 42.2322 1
      vertex 46.5 0 1
    endloop
  endfacet
  facet normal 0 0 1
    outer loop
      vertex 47.2322 -1.76777 1
      vertex 2.5 -44 1
      vertex 55 -50 1
    endloop
  endfacet
  facet normal -0 0 1
    outer loop
      vertex 1.76777 -45.7678 1
      vertex 55 -50 1
      vertex 2.5 -44 1
    endloop
  endfacet
  facet normal -0 0 1
    outer loop
      vertex 0 -46.5 1
      vertex 55 -50 1
      vertex 1.76777 -45.7678 1
    endloop
  endfacet
  facet normal 0 0 1
    outer loop
      vertex -55 -50 1
      vertex -1.76777 -42.2322 1
      vertex -47.2322 -1.76777 1
    endloop
  endfacet
  facet normal 0 0 1
    outer loop
      vertex -1.76777 -42.2322 1
      vertex -55 -50 1
      vertex -2.5 -44 1
    endloop
  endfacet
  facet normal 0 0 1
    outer loop
      vertex -55 -50 1
      vertex -47.2322 -1.76777 1
      vertex -49 -2.5 1
    endloop
  endfacet
  facet normal 0 0 1
    outer loop
      vertex -55 -50 1
      vertex -49 -2.5 1
      vertex -50.7678 -1.76777 1
    endloop
  endfacet
  facet normal 0 0 1
    outer loop
      vertex 0 -46.5 1
      vertex -55 -50 1
      vertex 55 -50 1
    endloop
  endfacet
  facet normal 0 0 1
    outer loop
      vertex -1.76777 -45.7678 1
      vertex -55 -50 1
      vertex 0 -46.5 1
    endloop
  endfacet
  facet normal 0 0 1
    outer loop
      vertex -2.5 -44 1
      vertex -55 -50 1
      vertex -1.76777 -45.7678 1
    endloop
  endfacet
  facet normal 0 0 1
    outer loop
      vertex -51.5 0 1
      vertex -55 -50 1
      vertex -50.7678 -1.76777 1
    endloop
  endfacet
  facet normal 0 0 1
    outer loop
      vertex -55 -50 1
      vertex -51.5 0 1
      vertex -55 50 1
    endloop
  endfacet
  facet normal 0 0 -1
    outer loop
      vertex 0 -41.5 -1
      vertex 46.5 0 -1
      vertex 1.76777 -42.2322 -1
    endloop
  endfacet
  facet normal 0 0 -1
    outer loop
      vertex 46.5 0 -1
      vertex 1.76777 42.2322 -1
      vertex 2.5 44 -1
    endloop
  endfacet
  facet normal 0 0 -1
    outer loop
      vertex 0 41.5 -1
      vertex 46.5 0 -1
      vertex 0 -41.5 -1
    endloop
  endfacet
  facet normal 0 0 -1
    outer loop
      vertex 46.5 0 -1
      vertex 0 41.5 -1
      vertex 1.76777 42.2322 -1
    endloop
  endfacet
  facet normal 0 0 -1
    outer loop
      vertex -46.5 0 -1
      vertex 0 -41.5 -1
      vertex -1.76777 -42.2322 -1
    endloop
  endfacet
  facet normal 0 0 -1
    outer loop
      vertex 0 -41.5 -1
      vertex -46.5 0 -1
      vertex 0 41.5 -1
    endloop
  endfacet
  facet normal 0 0 -1
    outer loop
      vertex -55 -50 -1
      vertex -1.76777 -42.2322 -1
      vertex -2.5 -44 -1
    endloop
  endfacet
  facet normal -0 0 -1
    outer loop
      vertex 0 41.5 -1
      vertex -46.5 0 -1
      vertex -1.76777 42.2322 -1
    endloop
  endfacet
  facet normal 0 0 -1
    outer loop
      vertex 55 -50 -1
      vertex 51.5 0 -1
      vertex 55 50 -1
    endloop
  endfacet
  facet normal 0 0 -1
    outer loop
      vertex 55 -50 -1
      vertex 50.7678 -1.76777 -1
      vertex 51.5 0 -1
    endloop
  endfacet
  facet normal 0 0 -1
    outer loop
      vertex 55 -50 -1
      vertex 49 -2.5 -1
      vertex 50.7678 -1.76777 -1
    endloop
  endfacet
  facet normal 0 0 -1
    outer loop
      vertex 55 -50 -1
      vertex 47.2322 -1.76777 -1
      vertex 49 -2.5 -1
    endloop
  endfacet
  facet normal 0 0 -1
    outer loop
      vertex 1.76777 -42.2322 -1
      vertex 55 -50 -1
      vertex 2.5 -44 -1
    endloop
  endfacet
  facet normal 0 0 -1
    outer loop
      vertex 55 -50 -1
      vertex 1.76777 -42.2322 -1
      vertex 47.2322 -1.76777 -1
    endloop
  endfacet
  facet normal 0 0 -1
    outer loop
      vertex 55 -50 -1
      vertex 1.76777 -45.7678 -1
      vertex 2.5 -44 -1
    endloop
  endfacet
  facet normal 0 0 -1
    outer loop
      vertex 55 -50 -1
      vertex 0 -46.5 -1
      vertex 1.76777 -45.7678 -1
    endloop
  endfacet
  facet normal 0 0 -1
    outer loop
      vertex -47.2322 1.76777 -1
      vertex -1.76777 42.2322 -1
      vertex -46.5 0 -1
    endloop
  endfacet
  facet normal 0 0 -1
    outer loop
      vertex -55 -50 -1
      vertex -2.5 -44 -1
      vertex -1.76777 -45.7678 -1
    endloop
  endfacet
  facet normal 0 0 -1
    outer loop
      vertex -1.76777 -42.2322 -1
      vertex -47.2322 -1.76777 -1
      vertex -46.5 0 -1
    endloop
  endfacet
  facet normal -0 0 -1
    outer loop
      vertex -1.76777 -42.2322 -1
      vertex -55 -50 -1
      vertex -47.2322 -1.76777 -1
    endloop
  endfacet
  facet normal 0 0 -1
    outer loop
      vertex -47.2322 -1.76777 -1
      vertex -55 -50 -1
      vertex -49 -2.5 -1
    endloop
  endfacet
  facet normal -0 0 -1
    outer loop
      vertex -50.7678 -1.76777 -1
      vertex -55 -50 -1
      vertex -51.5 0 -1
    endloop
  endfacet
  facet normal -0 0 -1
    outer loop
      vertex -49 -2.5 -1
      vertex -55 -50 -1
      vertex -50.7678 -1.76777 -1
    endloop
  endfacet
  facet normal -0 0 -1
    outer loop
      vertex 0 -46.5 -1
      vertex -55 -50 -1
      vertex -1.76777 -45.7678 -1
    endloop
  endfacet
  facet normal 0 0 -1
    outer loop
      vertex -55 -50 -1
      vertex 0 -46.5 -1
      vertex 55 -50 -1
    endloop
  endfacet
  facet normal 0 0 -1
    outer loop
      vertex 50.7678 1.76777 -1
      vertex 55 50 -1
      vertex 51.5 0 -1
    endloop
  endfacet
  facet normal 0 0 -1
    outer loop
      vertex 49 2.5 -1
      vertex 55 50 -1
      vertex 50.7678 1.76777 -1
    endloop
  endfacet
  facet normal 0 0 -1
    outer loop
      vertex 47.2322 1.76777 -1
      vertex 55 50 -1
      vertex 49 2.5 -1
    endloop
  endfacet
  facet normal 0 0 -1
    outer loop
      vertex 2.5 44 -1
      vertex 47.2322 1.76777 -1
      vertex 46.5 0 -1
    endloop
  endfacet
  facet normal -0 0 -1
    outer loop
      vertex 47.2322 -1.76777 -1
      vertex 1.76777 -42.2322 -1
      vertex 46.5 0 -1
    endloop
  endfacet
  facet normal 0 0 -1
    outer loop
      vertex 47.2322 1.76777 -1
      vertex 2.5 44 -1
      vertex 55 50 -1
    endloop
  endfacet
  facet normal 0 0 -1
    outer loop
      vertex 1.76777 45.7678 -1
      vertex 55 50 -1
      vertex 2.5 44 -1
    endloop
  endfacet
  facet normal 0 0 -1
    outer loop
      vertex 0 46.5 -1
      vertex 55 50 -1
      vertex 1.76777 45.7678 -1
    endloop
  endfacet
  facet normal 0 0 -1
    outer loop
      vertex -55 50 -1
      vertex -1.76777 42.2322 -1
      vertex -47.2322 1.76777 -1
    endloop
  endfacet
  facet normal 0 0 -1
    outer loop
      vertex -1.76777 42.2322 -1
      vertex -55 50 -1
      vertex -2.5 44 -1
    endloop
  endfacet
  facet normal 0 0 -1
    outer loop
      vertex -55 50 -1
      vertex -47.2322 1.76777 -1
      vertex -49 2.5 -1
    endloop
  endfacet
  facet normal 0 0 -1
    outer loop
      vertex -55 50 -1
      vertex -49 2.5 -1
      vertex -50.7678 1.76777 -1
    endloop
  endfacet
  facet normal 0 0 -1
    outer loop
      vertex 0 46.5 -1
      vertex -55 50 -1
      vertex 55 50 -1
    endloop
  endfacet
  facet normal 0 0 -1
    outer loop
      vertex -1.76777 45.7678 -1
      vertex -55 50 -1
      vertex 0 46.5 -1
    endloop
  endfacet
  facet normal 0 0 -1
    outer loop
      vertex -2.5 44 -1
      vertex -55 50 -1
      vertex -1.76777 45.7678 -1
    endloop
  endfacet
  facet normal 0 0 -1
    outer loop
      vertex -51.5 0 -1
      vertex -55 50 -1
      vertex -50.7678 1.76777 -1
    endloop
  endfacet
  facet normal 0 0 -1
    outer loop
      vertex -55 50 -1
      vertex -51.5 0 -1
      vertex -55 -50 -1
    endloop
  endfacet
  facet normal -1 0 0
    outer loop
      vertex -55 -50 -1
      vertex -55 50 1
      vertex -55 50 -1
    endloop
  endfacet
  facet normal -1 -0 0
    outer loop
      vertex -55 50 1
      vertex -55 -50 -1
      vertex -55 -50 1
    endloop
  endfacet
  facet normal 0 1 -0
    outer loop
      vertex 55 50 -1
      vertex -55 50 1
      vertex 55 50 1
    endloop
  endfacet
  facet normal 0 1 0
    outer loop
      vertex -55 50 1
      vertex 55 50 -1
      vertex -55 50 -1
    endloop
  endfacet
  facet normal 0 -1 0
    outer loop
      vertex -55 -50 -1
      vertex 55 -50 1
      vertex -55 -50 1
    endloop
  endfacet
  facet normal 0 -1 -0
    outer loop
      vertex 55 -50 1
      vertex -55 -50 -1
      vertex 55 -50 -1
    endloop
  endfacet
  facet normal -0.382676 -0.923883 0
    outer loop
      vertex 49 2.5 -1
      vertex 50.7678 1.76777 1
      vertex 49 2.5 1
    endloop
  endfacet
  facet normal -0.382676 -0.923883 -0
    outer loop
      vertex 50.7678 1.76777 1
      vertex 49 2.5 -1
      vertex 50.7678 1.76777 -1
    endloop
  endfacet
  facet normal -0.923886 -0.382668 0
    outer loop
      vertex 51.5 0 -1
      vertex 50.7678 1.76777 1
      vertex 50.7678 1.76777 -1
    endloop
  endfacet
  facet normal -0.923886 -0.382668 0
    outer loop
      vertex 50.7678 1.76777 1
      vertex 51.5 0 -1
      vertex 51.5 0 1
    endloop
  endfacet
  facet normal 0.382676 -0.923883 0
    outer loop
      vertex 47.2322 1.76777 -1
      vertex 49 2.5 1
      vertex 47.2322 1.76777 1
    endloop
  endfacet
  facet normal 0.382676 -0.923883 0
    outer loop
      vertex 49 2.5 1
      vertex 47.2322 1.76777 -1
      vertex 49 2.5 -1
    endloop
  endfacet
  facet normal -0.923886 0.382668 0
    outer loop
      vertex 50.7678 -1.76777 -1
      vertex 51.5 0 1
      vertex 51.5 0 -1
    endloop
  endfacet
  facet normal -0.923886 0.382668 0
    outer loop
      vertex 51.5 0 1
      vertex 50.7678 -1.76777 -1
      vertex 50.7678 -1.76777 1
    endloop
  endfacet
  facet normal 0.923886 -0.382668 0
    outer loop
      vertex 46.5 0 1
      vertex 47.2322 1.76777 -1
      vertex 47.2322 1.76777 1
    endloop
  endfacet
  facet normal 0.923886 -0.382668 0
    outer loop
      vertex 47.2322 1.76777 -1
      vertex 46.5 0 1
      vertex 46.5 0 -1
    endloop
  endfacet
  facet normal 0.382676 0.923883 -0
    outer loop
      vertex 49 -2.5 -1
      vertex 47.2322 -1.76777 1
      vertex 49 -2.5 1
    endloop
  endfacet
  facet normal 0.382676 0.923883 0
    outer loop
      vertex 47.2322 -1.76777 1
      vertex 49 -2.5 -1
      vertex 47.2322 -1.76777 -1
    endloop
  endfacet
  facet normal -0.382676 0.923883 0
    outer loop
      vertex 50.7678 -1.76777 -1
      vertex 49 -2.5 1
      vertex 50.7678 -1.76777 1
    endloop
  endfacet
  facet normal -0.382676 0.923883 0
    outer loop
      vertex 49 -2.5 1
      vertex 50.7678 -1.76777 -1
      vertex 49 -2.5 -1
    endloop
  endfacet
  facet normal 0.923886 0.382668 0
    outer loop
      vertex 47.2322 -1.76777 1
      vertex 46.5 0 -1
      vertex 46.5 0 1
    endloop
  endfacet
  facet normal 0.923886 0.382668 0
    outer loop
      vertex 46.5 0 -1
      vertex 47.2322 -1.76777 1
      vertex 47.2322 -1.76777 -1
    endloop
  endfacet
  facet normal 0.382676 0.923883 -0
    outer loop
      vertex -49 -2.5 -1
      vertex -50.7678 -1.76777 1
      vertex -49 -2.5 1
    endloop
  endfacet
  facet normal 0.382676 0.923883 0
    outer loop
      vertex -50.7678 -1.76777 1
      vertex -49 -2.5 -1
      vertex -50.7678 -1.76777 -1
    endloop
  endfacet
  facet normal -0.382676 -0.923883 0
    outer loop
      vertex -49 2.5 -1
      vertex -47.2322 1.76777 1
      vertex -49 2.5 1
    endloop
  endfacet
  facet normal -0.382676 -0.923883 -0
    outer loop
      vertex -47.2322 1.76777 1
      vertex -49 2.5 -1
      vertex -47.2322 1.76777 -1
    endloop
  endfacet
  facet normal -0.923886 -0.382668 0
    outer loop
      vertex -46.5 0 -1
      vertex -47.2322 1.76777 1
      vertex -47.2322 1.76777 -1
    endloop
  endfacet
  facet normal -0.923886 -0.382668 0
    outer loop
      vertex -47.2322 1.76777 1
      vertex -46.5 0 -1
      vertex -46.5 0 1
    endloop
  endfacet
  facet normal 0.382676 -0.923883 0
    outer loop
      vertex -50.7678 1.76777 -1
      vertex -49 2.5 1
      vertex -50.7678 1.76777 1
    endloop
  endfacet
  facet normal 0.382676 -0.923883 0
    outer loop
      vertex -49 2.5 1
      vertex -50.7678 1.76777 -1
      vertex -49 2.5 -1
    endloop
  endfacet
  facet normal -0.382676 0.923883 0
    outer loop
      vertex -47.2322 -1.76777 -1
      vertex -49 -2.5 1
      vertex -47.2322 -1.76777 1
    endloop
  endfacet
  facet normal -0.382676 0.923883 0
    outer loop
      vertex -49 -2.5 1
      vertex -47.2322 -1.76777 -1
      vertex -49 -2.5 -1
    endloop
  endfacet
  facet normal -0.923886 0.382668 0
    outer loop
      vertex -47.2322 -1.76777 -1
      vertex -46.5 0 1
      vertex -46.5 0 -1
    endloop
  endfacet
  facet normal -0.923886 0.382668 0
    outer loop
      vertex -46.5 0 1
      vertex -47.2322 -1.76777 -1
      vertex -47.2322 -1.76777 1
    endloop
  endfacet
  facet normal 0.923886 -0.382668 0
    outer loop
      vertex -51.5 0 1
      vertex -50.7678 1.76777 -1
      vertex -50.7678 1.76777 1
    endloop
  endfacet
  facet normal 0.923886 -0.382668 0
    outer loop
      vertex -50.7678 1.76777 -1
      vertex -51.5 0 1
      vertex -51.5 0 -1
    endloop
  endfacet
  facet normal 0.923886 0.382668 0
    outer loop
      vertex -50.7678 -1.76777 1
      vertex -51.5 0 -1
      vertex -51.5 0 1
    endloop
  endfacet
  facet normal 0.923886 0.382668 0
    outer loop
      vertex -51.5 0 -1
      vertex -50.7678 -1.76777 1
      vertex -50.7678 -1.76777 -1
    endloop
  endfacet
  facet normal 0.382668 0.923886 -0
    outer loop
      vertex 0 41.5 -1
      vertex -1.76777 42.2322 1
      vertex 0 41.5 1
    endloop
  endfacet
  facet normal 0.382668 0.923886 0
    outer loop
      vertex -1.76777 42.2322 1
      vertex 0 41.5 -1
      vertex -1.76777 42.2322 -1
    endloop
  endfacet
  facet normal -0.382668 -0.923886 0
    outer loop
      vertex 0 46.5 -1
      vertex 1.76777 45.7678 1
      vertex 0 46.5 1
    endloop
  endfacet
  facet normal -0.382668 -0.923886 -0
    outer loop
      vertex 1.76777 45.7678 1
      vertex 0 46.5 -1
      vertex 1.76777 45.7678 -1
    endloop
  endfacet
  facet normal -0.923883 -0.382676 0
    outer loop
      vertex 2.5 44 -1
      vertex 1.76777 45.7678 1
      vertex 1.76777 45.7678 -1
    endloop
  endfacet
  facet normal -0.923883 -0.382676 0
    outer loop
      vertex 1.76777 45.7678 1
      vertex 2.5 44 -1
      vertex 2.5 44 1
    endloop
  endfacet
  facet normal 0.382668 -0.923886 0
    outer loop
      vertex -1.76777 45.7678 -1
      vertex 0 46.5 1
      vertex -1.76777 45.7678 1
    endloop
  endfacet
  facet normal 0.382668 -0.923886 0
    outer loop
      vertex 0 46.5 1
      vertex -1.76777 45.7678 -1
      vertex 0 46.5 -1
    endloop
  endfacet
  facet normal -0.382668 0.923886 0
    outer loop
      vertex 1.76777 42.2322 -1
      vertex 0 41.5 1
      vertex 1.76777 42.2322 1
    endloop
  endfacet
  facet normal -0.382668 0.923886 0
    outer loop
      vertex 0 41.5 1
      vertex 1.76777 42.2322 -1
      vertex 0 41.5 -1
    endloop
  endfacet
  facet normal -0.923883 0.382676 0
    outer loop
      vertex 1.76777 42.2322 -1
      vertex 2.5 44 1
      vertex 2.5 44 -1
    endloop
  endfacet
  facet normal -0.923883 0.382676 0
    outer loop
      vertex 2.5 44 1
      vertex 1.76777 42.2322 -1
      vertex 1.76777 42.2322 1
    endloop
  endfacet
  facet normal 0.923883 0.382676 0
    outer loop
      vertex -1.76777 42.2322 1
      vertex -2.5 44 -1
      vertex -2.5 44 1
    endloop
  endfacet
  facet normal 0.923883 0.382676 0
    outer loop
      vertex -2.5 44 -1
      vertex -1.76777 42.2322 1
      vertex -1.76777 42.2322 -1
    endloop
  endfacet
  facet normal 0.923883 -0.382676 0
    outer loop
      vertex -2.5 44 1
      vertex -1.76777 45.7678 -1
      vertex -1.76777 45.7678 1
    endloop
  endfacet
  facet normal 0.923883 -0.382676 0
    outer loop
      vertex -1.76777 45.7678 -1
      vertex -2.5 44 1
      vertex -2.5 44 -1
    endloop
  endfacet
  facet normal -0.382668 -0.923886 0
    outer loop
      vertex 0 -41.5 -1
      vertex 1.76777 -42.2322 1
      vertex 0 -41.5 1
    endloop
  endfacet
  facet normal -0.382668 -0.923886 -0
    outer loop
      vertex 1.76777 -42.2322 1
      vertex 0 -41.5 -1
      vertex 1.76777 -42.2322 -1
    endloop
  endfacet
  facet normal -0.923883 -0.382676 0
    outer loop
      vertex 2.5 -44 -1
      vertex 1.76777 -42.2322 1
      vertex 1.76777 -42.2322 -1
    endloop
  endfacet
  facet normal -0.923883 -0.382676 0
    outer loop
      vertex 1.76777 -42.2322 1
      vertex 2.5 -44 -1
      vertex 2.5 -44 1
    endloop
  endfacet
  facet normal 0.382668 -0.923886 0
    outer loop
      vertex -1.76777 -42.2322 -1
      vertex 0 -41.5 1
      vertex -1.76777 -42.2322 1
    endloop
  endfacet
  facet normal 0.382668 -0.923886 0
    outer loop
      vertex 0 -41.5 1
      vertex -1.76777 -42.2322 -1
      vertex 0 -41.5 -1
    endloop
  endfacet
  facet normal 0.923883 -0.382676 0
    outer loop
      vertex -2.5 -44 1
      vertex -1.76777 -42.2322 -1
      vertex -1.76777 -42.2322 1
    endloop
  endfacet
  facet normal 0.923883 -0.382676 0
    outer loop
      vertex -1.76777 -42.2322 -1
      vertex -2.5 -44 1
      vertex -2.5 -44 -1
    endloop
  endfacet
  facet normal 0.382668 0.923886 -0
    outer loop
      vertex 0 -46.5 -1
      vertex -1.76777 -45.7678 1
      vertex 0 -46.5 1
    endloop
  endfacet
  facet normal 0.382668 0.923886 0
    outer loop
      vertex -1.76777 -45.7678 1
      vertex 0 -46.5 -1
      vertex -1.76777 -45.7678 -1
    endloop
  endfacet
  facet normal -0.382668 0.923886 0
    outer loop
      vertex 1.76777 -45.7678 -1
      vertex 0 -46.5 1
      vertex 1.76777 -45.7678 1
    endloop
  endfacet
  facet normal -0.382668 0.923886 0
    outer loop
      vertex 0 -46.5 1
      vertex 1.76777 -45.7678 -1
      vertex 0 -46.5 -1
    endloop
  endfacet
  facet normal 0.923883 0.382676 0
    outer loop
      vertex -1.76777 -45.7678 1
      vertex -2.5 -44 -1
      vertex -2.5 -44 1
    endloop
  endfacet
  facet normal 0.923883 0.382676 0
    outer loop
      vertex -2.5 -44 -1
      vertex -1.76777 -45.7678 1
      vertex -1.76777 -45.7678 -1
    endloop
  endfacet
  facet normal -0.923883 0.382676 0
    outer loop
      vertex 1.76777 -45.7678 -1
      vertex 2.5 -44 1
      vertex 2.5 -44 -1
    endloop
  endfacet
  facet normal -0.923883 0.382676 0
    outer loop
      vertex 2.5 -44 1
      vertex 1.76777 -45.7678 -1
      vertex 1.76777 -45.7678 1
    endloop
  endfacet
endsolid OpenSCAD_Model
