  0
SECTION
  2
HEADER
  9
$ACADVER
  1
AC1027
  9
$ACADMAINTVER
 70
   125
  9
$DWGCODEPAGE
  3
ANSI_1252
  9
$LASTSAVEDBY
  1
ashton
  9
$REQUIREDVERSIONS
160
                 0
  9
$INSBASE
 10
0.0
 20
0.0
 30
0.0
  9
$EXTMIN
 10
0.0
 20
-0.0000000000000087
 30
0.0
  9
$EXTMAX
 10
45.52317080064617
 20
29.99999999999909
 30
0.0
  9
$LIMMIN
 10
0.0
 20
0.0
  9
$LIMMAX
 10
12.0
 20
9.0
  9
$ORTHOMODE
 70
     0
  9
$REGENMODE
 70
     1
  9
$FILLMODE
 70
     1
  9
$QTEXTMODE
 70
     0
  9
$MIRRTEXT
 70
     0
  9
$LTSCALE
 40
1.0
  9
$ATTMODE
 70
     1
  9
$TEXTSIZE
 40
0.2
  9
$TRACEWID
 40
0.05
  9
$TEXTSTYLE
  7
Standard
  9
$CLAYER
  8
glassOutline
  9
$CELTYPE
  6
ByLayer
  9
$CECOLOR
 62
   256
  9
$CELTSCALE
 40
1.0
  9
$DISPSILH
 70
     0
  9
$DIMSCALE
 40
10.0
  9
$DIMASZ
 40
0.18
  9
$DIMEXO
 40
0.0625
  9
$DIMDLI
 40
0.38
  9
$DIMRND
 40
0.0
  9
$DIMDLE
 40
0.0
  9
$DIMEXE
 40
0.18
  9
$DIMTP
 40
0.0
  9
$DIMTM
 40
0.0
  9
$DIMTXT
 40
0.18
  9
$DIMCEN
 40
0.09
  9
$DIMTSZ
 40
0.0
  9
$DIMTOL
 70
     0
  9
$DIMLIM
 70
     0
  9
$DIMTIH
 70
     1
  9
$DIMTOH
 70
     1
  9
$DIMSE1
 70
     0
  9
$DIMSE2
 70
     0
  9
$DIMTAD
 70
     0
  9
$DIMZIN
 70
     0
  9
$DIMBLK
  1

  9
$DIMASO
 70
     1
  9
$DIMSHO
 70
     1
  9
$DIMPOST
  1

  9
$DIMAPOST
  1

  9
$DIMALT
 70
     0
  9
$DIMALTD
 70
     2
  9
$DIMALTF
 40
25.4
  9
$DIMLFAC
 40
1.0
  9
$DIMTOFL
 70
     0
  9
$DIMTVP
 40
0.0
  9
$DIMTIX
 70
     0
  9
$DIMSOXD
 70
     0
  9
$DIMSAH
 70
     0
  9
$DIMBLK1
  1

  9
$DIMBLK2
  1

  9
$DIMSTYLE
  2
Standard
  9
$DIMCLRD
 70
     0
  9
$DIMCLRE
 70
     0
  9
$DIMCLRT
 70
     0
  9
$DIMTFAC
 40
1.0
  9
$DIMGAP
 40
0.09
  9
$DIMJUST
 70
     0
  9
$DIMSD1
 70
     0
  9
$DIMSD2
 70
     0
  9
$DIMTOLJ
 70
     1
  9
$DIMTZIN
 70
     0
  9
$DIMALTZ
 70
     0
  9
$DIMALTTZ
 70
     0
  9
$DIMUPT
 70
     0
  9
$DIMDEC
 70
     4
  9
$DIMTDEC
 70
     4
  9
$DIMALTU
 70
     2
  9
$DIMALTTD
 70
     2
  9
$DIMTXSTY
  7
Standard
  9
$DIMAUNIT
 70
     0
  9
$DIMADEC
 70
     0
  9
$DIMALTRND
 40
0.0
  9
$DIMAZIN
 70
     0
  9
$DIMDSEP
 70
    46
  9
$DIMATFIT
 70
     3
  9
$DIMFRAC
 70
     0
  9
$DIMLDRBLK
  1

  9
$DIMLUNIT
 70
     2
  9
$DIMLWD
 70
    -2
  9
$DIMLWE
 70
    -2
  9
$DIMTMOVE
 70
     0
  9
$DIMFXL
 40
1.0
  9
$DIMFXLON
 70
     0
  9
$DIMJOGANG
 40
0.7853981633974483
  9
$DIMTFILL
 70
     0
  9
$DIMTFILLCLR
 70
     0
  9
$DIMARCSYM
 70
     0
  9
$DIMLTYPE
  6

  9
$DIMLTEX1
  6

  9
$DIMLTEX2
  6

  9
$DIMTXTDIRECTION
 70
     0
  9
$LUNITS
 70
     2
  9
$LUPREC
 70
     4
  9
$SKETCHINC
 40
0.1
  9
$FILLETRAD
 40
0.5
  9
$AUNITS
 70
     0
  9
$AUPREC
 70
     0
  9
$MENU
  1
.
  9
$ELEVATION
 40
0.0
  9
$PELEVATION
 40
0.0
  9
$THICKNESS
 40
0.0
  9
$LIMCHECK
 70
     0
  9
$CHAMFERA
 40
0.0
  9
$CHAMFERB
 40
0.0
  9
$CHAMFERC
 40
0.0
  9
$CHAMFERD
 40
0.0
  9
$SKPOLY
 70
     0
  9
$TDCREATE
 40
2452643.063379630
  9
$TDUCREATE
 40
2452643.063384271
  9
$TDUPDATE
 40
2458381.379710648
  9
$TDUUPDATE
 40
2458381.338043982
  9
$TDINDWG
 40
0.0035766782
  9
$TDUSRTIMER
 40
0.0047807870
  9
$USRTIMER
 70
     1
  9
$ANGBASE
 50
0.0
  9
$ANGDIR
 70
     0
  9
$PDMODE
 70
     0
  9
$PDSIZE
 40
0.0
  9
$PLINEWID
 40
0.0
  9
$SPLFRAME
 70
     0
  9
$SPLINETYPE
 70
     6
  9
$SPLINESEGS
 70
     8
  9
$HANDSEED
  5
1446
  9
$SURFTAB1
 70
     6
  9
$SURFTAB2
 70
     6
  9
$SURFTYPE
 70
     6
  9
$SURFU
 70
     6
  9
$SURFV
 70
     6
  9
$UCSBASE
  2

  9
$UCSNAME
  2

  9
$UCSORG
 10
0.0
 20
0.0
 30
0.0
  9
$UCSXDIR
 10
1.0
 20
0.0
 30
0.0
  9
$UCSYDIR
 10
0.0
 20
1.0
 30
0.0
  9
$UCSORTHOREF
  2

  9
$UCSORTHOVIEW
 70
     0
  9
$UCSORGTOP
 10
0.0
 20
0.0
 30
0.0
  9
$UCSORGBOTTOM
 10
0.0
 20
0.0
 30
0.0
  9
$UCSORGLEFT
 10
0.0
 20
0.0
 30
0.0
  9
$UCSORGRIGHT
 10
0.0
 20
0.0
 30
0.0
  9
$UCSORGFRONT
 10
0.0
 20
0.0
 30
0.0
  9
$UCSORGBACK
 10
0.0
 20
0.0
 30
0.0
  9
$PUCSBASE
  2

  9
$PUCSNAME
  2

  9
$PUCSORG
 10
0.0
 20
0.0
 30
0.0
  9
$PUCSXDIR
 10
1.0
 20
0.0
 30
0.0
  9
$PUCSYDIR
 10
0.0
 20
1.0
 30
0.0
  9
$PUCSORTHOREF
  2

  9
$PUCSORTHOVIEW
 70
     0
  9
$PUCSORGTOP
 10
0.0
 20
0.0
 30
0.0
  9
$PUCSORGBOTTOM
 10
0.0
 20
0.0
 30
0.0
  9
$PUCSORGLEFT
 10
0.0
 20
0.0
 30
0.0
  9
$PUCSORGRIGHT
 10
0.0
 20
0.0
 30
0.0
  9
$PUCSORGFRONT
 10
0.0
 20
0.0
 30
0.0
  9
$PUCSORGBACK
 10
0.0
 20
0.0
 30
0.0
  9
$USERI1
 70
     0
  9
$USERI2
 70
     0
  9
$USERI3
 70
     0
  9
$USERI4
 70
     0
  9
$USERI5
 70
     0
  9
$USERR1
 40
0.0
  9
$USERR2
 40
0.0
  9
$USERR3
 40
0.0
  9
$USERR4
 40
0.0
  9
$USERR5
 40
0.0
  9
$WORLDVIEW
 70
     1
  9
$SHADEDGE
 70
     3
  9
$SHADEDIF
 70
    70
  9
$TILEMODE
 70
     1
  9
$MAXACTVP
 70
    64
  9
$PINSBASE
 10
0.0
 20
0.0
 30
0.0
  9
$PLIMCHECK
 70
     0
  9
$PEXTMIN
 10
0.0
 20
0.0
 30
0.0
  9
$PEXTMAX
 10
0.0
 20
0.0
 30
0.0
  9
$PLIMMIN
 10
0.0
 20
0.0
  9
$PLIMMAX
 10
0.0
 20
0.0
  9
$UNITMODE
 70
     0
  9
$VISRETAIN
 70
     1
  9
$PLINEGEN
 70
     0
  9
$PSLTSCALE
 70
     1
  9
$TREEDEPTH
 70
  3020
  9
$CMLSTYLE
  2
Standard
  9
$CMLJUST
 70
     0
  9
$CMLSCALE
 40
1.0
  9
$PROXYGRAPHICS
 70
     1
  9
$MEASUREMENT
 70
     0
  9
$CELWEIGHT
370
    -1
  9
$ENDCAPS
280
     0
  9
$JOINSTYLE
280
     0
  9
$LWDISPLAY
290
     0
  9
$INSUNITS
 70
     1
  9
$HYPERLINKBASE
  1

  9
$STYLESHEET
  1

  9
$XEDIT
290
     1
  9
$CEPSNTYPE
380
     0
  9
$PSTYLEMODE
290
     1
  9
$FINGERPRINTGUID
  2
{FDEAD576-A652-11D2-9A35-0060089B3A3F}
  9
$VERSIONGUID
  2
{F9AC045F-E2F9-ED4C-89DA-C5AA08533B34}
  9
$EXTNAMES
290
     1
  9
$PSVPSCALE
 40
0.0
  9
$OLESTARTUP
290
     0
  9
$SORTENTS
280
   127
  9
$INDEXCTL
280
     0
  9
$HIDETEXT
280
     1
  9
$XCLIPFRAME
280
     0
  9
$HALOGAP
280
     0
  9
$OBSCOLOR
 70
   257
  9
$OBSLTYPE
280
     0
  9
$INTERSECTIONDISPLAY
280
     0
  9
$INTERSECTIONCOLOR
 70
   257
  9
$DIMASSOC
280
     2
  9
$PROJECTNAME
  1

  9
$CAMERADISPLAY
290
     0
  9
$LENSLENGTH
 40
50.0
  9
$CAMERAHEIGHT
 40
0.0
  9
$STEPSPERSEC
 40
2.0
  9
$STEPSIZE
 40
6.0
  9
$3DDWFPREC
 40
2.0
  9
$PSOLWIDTH
 40
0.25
  9
$PSOLHEIGHT
 40
4.0
  9
$LOFTANG1
 40
1.570796326794897
  9
$LOFTANG2
 40
1.570796326794897
  9
$LOFTMAG1
 40
0.0
  9
$LOFTMAG2
 40
0.0
  9
$LOFTPARAM
 70
     7
  9
$LOFTNORMALS
280
     1
  9
$LATITUDE
 40
37.795
  9
$LONGITUDE
 40
-122.394
  9
$NORTHDIRECTION
 40
0.0
  9
$TIMEZONE
 70
 -8000
  9
$LIGHTGLYPHDISPLAY
280
     1
  9
$TILEMODELIGHTSYNCH
280
     1
  9
$CMATERIAL
347
96
  9
$SOLIDHIST
280
     1
  9
$SHOWHIST
280
     1
  9
$DWFFRAME
280
     2
  9
$DGNFRAME
280
     0
  9
$REALWORLDSCALE
290
     1
  9
$INTERFERECOLOR
 62
     1
  9
$INTERFEREOBJVS
345
A3
  9
$INTERFEREVPVS
346
E3
  9
$CSHADOW
280
     0
  9
$SHADOWPLANELOCATION
 40
0.0
  0
ENDSEC
  0
SECTION
  2
CLASSES
  0
CLASS
  1
ACDBDICTIONARYWDFLT
  2
AcDbDictionaryWithDefault
  3
ObjectDBX Classes
 90
        0
 91
        1
280
     0
281
     0
  0
CLASS
  1
DICTIONARYVAR
  2
AcDbDictionaryVar
  3
ObjectDBX Classes
 90
        0
 91
        9
280
     0
281
     0
  0
CLASS
  1
TABLESTYLE
  2
AcDbTableStyle
  3
ObjectDBX Classes
 90
     4095
 91
        1
280
     0
281
     0
  0
CLASS
  1
MATERIAL
  2
AcDbMaterial
  3
ObjectDBX Classes
 90
     1153
 91
        3
280
     0
281
     0
  0
CLASS
  1
VISUALSTYLE
  2
AcDbVisualStyle
  3
ObjectDBX Classes
 90
     4095
 91
       26
280
     0
281
     0
  0
CLASS
  1
SCALE
  2
AcDbScale
  3
ObjectDBX Classes
 90
     1153
 91
       33
280
     0
281
     0
  0
CLASS
  1
CELLSTYLEMAP
  2
AcDbCellStyleMap
  3
ObjectDBX Classes
 90
     1152
 91
        2
280
     0
281
     0
  0
CLASS
  1
RASTERVARIABLES
  2
AcDbRasterVariables
  3
ISM
 90
        0
 91
        1
280
     0
281
     0
  0
CLASS
  1
SUN
  2
AcDbSun
  3
SCENEOE
 90
     1153
 91
        1
280
     0
281
     0
  0
CLASS
  1
MLEADERSTYLE
  2
AcDbMLeaderStyle
  3
ACDB_MLEADERSTYLE_CLASS
 90
     4095
 91
        1
280
     0
281
     0
  0
CLASS
  1
SORTENTSTABLE
  2
AcDbSortentsTable
  3
ObjectDBX Classes
 90
        0
 91
        1
280
     0
281
     0
  0
CLASS
  1
DIMASSOC
  2
AcDbDimAssoc
  3
"AcDbDimAssoc|Product Desc:     AcDim ARX App For Dimension|Company:          Autodesk, Inc.|WEB Address:      www.autodesk.com"
 90
        0
 91
        0
280
     0
281
     0
  0
CLASS
  1
ACDBSECTIONVIEWSTYLE
  2
AcDbSectionViewStyle
  3
ObjectDBX Classes
 90
     1025
 91
        1
280
     0
281
     0
  0
CLASS
  1
ACDBDETAILVIEWSTYLE
  2
AcDbDetailViewStyle
  3
ObjectDBX Classes
 90
     1025
 91
        1
280
     0
281
     0
  0
ENDSEC
  0
SECTION
  2
TABLES
  0
TABLE
  2
VPORT
  5
8
330
0
100
AcDbSymbolTable
 70
     1
1001
ACAD
1000
DbSaveVer
1071
        8
  0
VPORT
  5
94
330
8
100
AcDbSymbolTableRecord
100
AcDbViewportTableRecord
  2
*Active
 70
     0
 10
0.0
 20
0.0
 11
1.0
 21
1.0
 12
54.14334976408369
 22
34.5490576876974
 13
0.0
 23
0.0
 14
0.5
 24
0.5
 15
0.5
 25
0.5
 16
0.0
 26
0.0
 36
1.0
 17
-27.66959356597967
 27
-19.53870295786205
 37
0.0
 40
38.06591589302012
 41
2.022364217252396
 42
50.0
 43
0.0
 44
0.0
 50
0.0
 51
0.0
 71
    16
 72
  1000
 73
     1
 74
     3
 75
     0
 76
     0
 77
     0
 78
     0
281
     0
 65
     1
110
0.0
120
0.0
130
0.0
111
1.0
121
0.0
131
0.0
112
0.0
122
1.0
132
0.0
 79
     0
146
0.0
348
9F
 60
     2
 61
     5
292
     1
282
     1
141
0.0
142
0.0
 63
   250
421
  3355443
361
ED
1001
ACAD_NAV_VCDISPLAY
1070
     3
  0
ENDTAB
  0
TABLE
  2
LTYPE
  5
5
330
0
100
AcDbSymbolTable
 70
     1
  0
LTYPE
  5
14
330
5
100
AcDbSymbolTableRecord
100
AcDbLinetypeTableRecord
  2
ByBlock
 70
     0
  3

 72
    65
 73
     0
 40
0.0
  0
LTYPE
  5
15
330
5
100
AcDbSymbolTableRecord
100
AcDbLinetypeTableRecord
  2
ByLayer
 70
     0
  3
Solid line
 72
    65
 73
     0
 40
0.0
  0
LTYPE
  5
16
330
5
100
AcDbSymbolTableRecord
100
AcDbLinetypeTableRecord
  2
Continuous
 70
     0
  3
Solid line
 72
    65
 73
     0
 40
0.0
  0
ENDTAB
  0
TABLE
  2
LAYER
  5
2
102
{ACAD_XDICTIONARY
360
293
102
}
330
0
100
AcDbSymbolTable
 70
    20
  0
LAYER
  5
10
330
2
100
AcDbSymbolTableRecord
100
AcDbLayerTableRecord
  2
0
 70
     0
 62
    -7
  6
Continuous
370
    -3
390
F
347
98
348
0
  0
LAYER
  5
12B
330
2
100
AcDbSymbolTableRecord
100
AcDbLayerTableRecord
  2
pixel-electrodes-small-lower
 70
     0
 62
    -4
  6
Continuous
370
    -3
390
F
347
98
348
0
1001
AcAecLayerStandard
1000

1000

1001
ACCMTRANSPARENCY
1071
 33554687
  0
LAYER
  5
131
330
2
100
AcDbSymbolTableRecord
100
AcDbLayerTableRecord
  2
TC-etch-lines-chemical
 70
     0
 62
    -1
  6
Continuous
370
    -3
390
F
347
98
348
0
1001
AcAecLayerStandard
1000

1000

1001
ACCMTRANSPARENCY
1071
 33554687
  0
LAYER
  5
132
330
2
100
AcDbSymbolTableRecord
100
AcDbLayerTableRecord
  2
encapsulation
 70
     0
 62
    -3
  6
Continuous
370
    -3
390
F
347
98
348
0
1001
AcAecLayerStandard
1000

1000

1001
ACCMTRANSPARENCY
1071
 33554687
  0
LAYER
  5
133
330
2
100
AcDbSymbolTableRecord
100
AcDbLayerTableRecord
  2
lightMask-small-upper
 70
     0
 62
    -2
  6
Continuous
370
    -3
390
F
347
98
348
0
1001
AcAecLayerStandard
1000

1000

1001
ACCMTRANSPARENCY
1071
 33554687
  0
LAYER
  5
134
330
2
100
AcDbSymbolTableRecord
100
AcDbLayerTableRecord
  2
pinPlacements
 70
     0
 62
    -6
  6
Continuous
370
    -3
390
F
347
98
348
0
1001
AcAecLayerStandard
1000

1000

1001
ACCMTRANSPARENCY
1071
        0
  0
LAYER
  5
135
330
2
100
AcDbSymbolTableRecord
100
AcDbLayerTableRecord
  2
glassOutline
 70
     0
 62
     7
  6
Continuous
370
    -3
390
F
347
98
348
0
1001
AcAecLayerStandard
1000

1000

1001
ACCMTRANSPARENCY
1071
        0
  0
LAYER
  5
136
330
2
100
AcDbSymbolTableRecord
100
AcDbLayerTableRecord
  2
lightMask-small-lower
 70
     0
 62
    -2
  6
Continuous
370
    -3
390
F
347
98
348
0
1001
AcAecLayerStandard
1000

1000

1001
ACCMTRANSPARENCY
1071
 33554687
  0
LAYER
  5
137
330
2
100
AcDbSymbolTableRecord
100
AcDbLayerTableRecord
  2
pixel-electrodes-small-upper
 70
     0
 62
    -4
  6
Continuous
370
    -3
390
F
347
98
348
0
1001
AcAecLayerStandard
1000

1000

1001
ACCMTRANSPARENCY
1071
 33554687
  0
LAYER
  5
138
330
2
100
AcDbSymbolTableRecord
100
AcDbLayerTableRecord
  2
TC-electrode-small
 70
     0
 62
    -4
  6
Continuous
370
    -3
390
F
347
98
348
0
1001
AcAecLayerStandard
1000

1000

1001
ACCMTRANSPARENCY
1071
 33554687
  0
LAYER
  5
139
330
2
100
AcDbSymbolTableRecord
100
AcDbLayerTableRecord
  2
pixel-electrode-large-lower
 70
     0
 62
    -4
  6
Continuous
370
    -3
390
F
347
98
348
0
1001
AcAecLayerStandard
1000

1000

1001
ACCMTRANSPARENCY
1071
 33554687
  0
LAYER
  5
13A
330
2
100
AcDbSymbolTableRecord
100
AcDbLayerTableRecord
  2
pixel-electrode-large-upper
 70
     0
 62
    -4
  6
Continuous
370
    -3
390
F
347
98
348
0
1001
AcAecLayerStandard
1000

1000

1001
ACCMTRANSPARENCY
1071
 33554687
  0
LAYER
  5
13B
330
2
100
AcDbSymbolTableRecord
100
AcDbLayerTableRecord
  2
lightMask-large-upper
 70
     0
 62
     2
  6
Continuous
370
    -3
390
F
347
98
348
0
1001
AcAecLayerStandard
1000

1000

1001
ACCMTRANSPARENCY
1071
 33554687
  0
LAYER
  5
13C
330
2
100
AcDbSymbolTableRecord
100
AcDbLayerTableRecord
  2
lightMask-large-lower
 70
     0
 62
     2
  6
Continuous
370
    -3
390
F
347
98
348
0
1001
AcAecLayerStandard
1000

1000

1001
ACCMTRANSPARENCY
1071
 33554687
  0
LAYER
  5
13E
330
2
100
AcDbSymbolTableRecord
100
AcDbLayerTableRecord
  2
active-layer-mask
 70
     0
 62
    -3
  6
Continuous
370
    -3
390
F
347
98
348
0
1001
AcAecLayerStandard
1000

1000

1001
ACCMTRANSPARENCY
1071
 33554687
  0
LAYER
  5
5EE
330
2
100
AcDbSymbolTableRecord
100
AcDbLayerTableRecord
  2
TC-etch-lines-laser
 70
     0
 62
    -1
  6
Continuous
370
    -3
390
F
347
98
348
0
1001
AcAecLayerStandard
1000

1000

1001
ACCMTRANSPARENCY
1071
 33554687
  0
LAYER
  5
759
330
2
100
AcDbSymbolTableRecord
100
AcDbLayerTableRecord
  2
Defpoints
 70
     0
 62
    -7
  6
Continuous
290
     0
370
    -3
390
F
347
98
348
0
  0
LAYER
  5
DEF
330
2
100
AcDbSymbolTableRecord
100
AcDbLayerTableRecord
  2
notes
 70
     0
 62
    -3
  6
Continuous
370
    -3
390
F
347
98
348
0
1001
AcAecLayerStandard
1000

1000

1001
ACCMTRANSPARENCY
1071
 33554687
  0
LAYER
  5
F0D
330
2
100
AcDbSymbolTableRecord
100
AcDbLayerTableRecord
  2
large-pixel-dark-area
 70
     0
 62
    -5
  6
Continuous
370
    -3
390
F
347
98
348
0
1001
AcAecLayerStandard
1000

1000

1001
ACCMTRANSPARENCY
1071
 33554687
  0
LAYER
  5
F0E
330
2
100
AcDbSymbolTableRecord
100
AcDbLayerTableRecord
  2
small-pixel-dark-area
 70
     0
 62
    -5
  6
Continuous
370
    -3
390
F
347
98
348
0
1001
AcAecLayerStandard
1000

1000

1001
ACCMTRANSPARENCY
1071
 33554687
  0
ENDTAB
  0
TABLE
  2
STYLE
  5
3
330
0
100
AcDbSymbolTable
 70
     2
  0
STYLE
  5
11
330
3
100
AcDbSymbolTableRecord
100
AcDbTextStyleTableRecord
  2
Standard
 70
     0
 40
0.0
 41
1.0
 50
0.0
 71
     0
 42
0.2
  3
arial.ttf
  4

1001
ACAD
1000
Arial
1071
        0
  0
STYLE
  5
125
330
3
100
AcDbSymbolTableRecord
100
AcDbTextStyleTableRecord
  2
Annotative
 70
     0
 40
0.0
 41
1.0
 50
0.0
 71
     0
 42
0.2
  3
arial.ttf
  4

1001
ACAD
1000
Arial
1071
        0
1001
AcadAnnotative
1000
AnnotativeData
1002
{
1070
     1
1070
     1
1002
}
  0
ENDTAB
  0
TABLE
  2
VIEW
  5
6
330
0
100
AcDbSymbolTable
 70
     0
  0
ENDTAB
  0
TABLE
  2
UCS
  5
7
330
0
100
AcDbSymbolTable
 70
     0
  0
ENDTAB
  0
TABLE
  2
APPID
  5
9
330
0
100
AcDbSymbolTable
 70
    12
  0
APPID
  5
12
330
9
100
AcDbSymbolTableRecord
100
AcDbRegAppTableRecord
  2
ACAD
 70
     0
  0
APPID
  5
126
330
9
100
AcDbSymbolTableRecord
100
AcDbRegAppTableRecord
  2
AcadAnnotative
 70
     0
  0
APPID
  5
12F
330
9
100
AcDbSymbolTableRecord
100
AcDbRegAppTableRecord
  2
AcAecLayerStandard
 70
     0
  0
APPID
  5
130
330
9
100
AcDbSymbolTableRecord
100
AcDbRegAppTableRecord
  2
ACCMTRANSPARENCY
 70
     0
  0
APPID
  5
141
330
9
100
AcDbSymbolTableRecord
100
AcDbRegAppTableRecord
  2
ACAD_DSTYLE_DIMJAG
 70
     0
  0
APPID
  5
142
330
9
100
AcDbSymbolTableRecord
100
AcDbRegAppTableRecord
  2
ACAD_DSTYLE_DIMBREAK
 70
     0
  0
APPID
  5
143
330
9
100
AcDbSymbolTableRecord
100
AcDbRegAppTableRecord
  2
ACAD_PSEXT
 70
     0
  0
APPID
  5
144
330
9
100
AcDbSymbolTableRecord
100
AcDbRegAppTableRecord
  2
ACAD_NAV_VCDISPLAY
 70
     0
  0
APPID
  5
145
330
9
100
AcDbSymbolTableRecord
100
AcDbRegAppTableRecord
  2
GENIUS_GENREC_14
 70
     0
  0
APPID
  5
146
330
9
100
AcDbSymbolTableRecord
100
AcDbRegAppTableRecord
  2
GENIUS_GENOBJ-N-REC_13
 70
     0
  0
APPID
  5
147
330
9
100
AcDbSymbolTableRecord
100
AcDbRegAppTableRecord
  2
GENIUS_GENODEF_13
 70
     0
  0
APPID
  5
148
330
9
100
AcDbSymbolTableRecord
100
AcDbRegAppTableRecord
  2
GENIUS_GENOBJ-N-FIL_13
 70
     0
  0
ENDTAB
  0
TABLE
  2
DIMSTYLE
  5
A
330
0
100
AcDbSymbolTable
 70
     3
100
AcDbDimStyleTable
 71
     0
  0
DIMSTYLE
105
27
330
A
100
AcDbSymbolTableRecord
100
AcDbDimStyleTableRecord
  2
Standard
 70
     0
 40
10.0
340
11
  0
DIMSTYLE
105
127
330
A
100
AcDbSymbolTableRecord
100
AcDbDimStyleTableRecord
  2
Annotative
 70
     0
 40
0.0
340
11
1001
AcadAnnotative
1000
AnnotativeData
1002
{
1070
     1
1070
     1
1002
}
  0
DIMSTYLE
105
13F
330
A
100
AcDbSymbolTableRecord
100
AcDbDimStyleTableRecord
  2
AM_ISO
 70
     0
  4
"
 41
3.5
 42
1.0
 43
10.0
 44
1.0
 47
0.1
 48
0.1
 73
     0
 74
     0
 77
     1
 78
     8
 79
     2
 90
     1
140
3.5
141
0.0
143
0.0393701
146
0.71
147
1.5
172
     1
176
   256
177
   256
178
     2
272
     3
274
     4
283
     0
284
     8
340
11
345
14
346
14
347
14
371
    -1
372
    -1
1001
ACAD_DSTYLE_DIMJAG
1070
   388
1040
1.5
1001
ACAD_DSTYLE_DIMBREAK
1070
   391
1040
3.75
  0
ENDTAB
  0
TABLE
  2
BLOCK_RECORD
  5
1
330
0
100
AcDbSymbolTable
 70
    19
  0
BLOCK_RECORD
  5
1F
102
{ACAD_XDICTIONARY
360
6D9
102
}
330
1
100
AcDbSymbolTableRecord
100
AcDbBlockTableRecord
  2
*Model_Space
340
22
 70
     0
280
     1
281
     0
  0
BLOCK_RECORD
  5
58
330
1
100
AcDbSymbolTableRecord
100
AcDbBlockTableRecord
  2
*Paper_Space
340
59
 70
     0
280
     1
281
     0
  0
BLOCK_RECORD
  5
5D
330
1
100
AcDbSymbolTableRecord
100
AcDbBlockTableRecord
  2
*Paper_Space0
340
5E
 70
     0
280
     1
281
     0
  0
BLOCK_RECORD
  5
970
330
1
100
AcDbSymbolTableRecord
100
AcDbBlockTableRecord
  2
*D1
340
0
 70
     0
280
     1
281
     0
  0
BLOCK_RECORD
  5
9FB
330
1
100
AcDbSymbolTableRecord
100
AcDbBlockTableRecord
  2
*D2
340
0
 70
     0
280
     1
281
     0
  0
BLOCK_RECORD
  5
A0B
330
1
100
AcDbSymbolTableRecord
100
AcDbBlockTableRecord
  2
*D3
340
0
 70
     0
280
     1
281
     0
  0
BLOCK_RECORD
  5
AF9
330
1
100
AcDbSymbolTableRecord
100
AcDbBlockTableRecord
  2
*D4
340
0
 70
     0
280
     1
281
     0
  0
BLOCK_RECORD
  5
C2B
330
1
100
AcDbSymbolTableRecord
100
AcDbBlockTableRecord
  2
*D5
340
0
 70
     0
280
     1
281
     0
  0
BLOCK_RECORD
  5
C3B
330
1
100
AcDbSymbolTableRecord
100
AcDbBlockTableRecord
  2
*D6
340
0
 70
     0
280
     1
281
     0
  0
BLOCK_RECORD
  5
C4B
330
1
100
AcDbSymbolTableRecord
100
AcDbBlockTableRecord
  2
*D7
340
0
 70
     0
280
     1
281
     0
  0
BLOCK_RECORD
  5
C5D
330
1
100
AcDbSymbolTableRecord
100
AcDbBlockTableRecord
  2
*D8
340
0
 70
     0
280
     1
281
     0
  0
BLOCK_RECORD
  5
C6D
330
1
100
AcDbSymbolTableRecord
100
AcDbBlockTableRecord
  2
*D9
340
0
 70
     0
280
     1
281
     0
  0
BLOCK_RECORD
  5
C8B
330
1
100
AcDbSymbolTableRecord
100
AcDbBlockTableRecord
  2
*D10
340
0
 70
     0
280
     1
281
     0
  0
BLOCK_RECORD
  5
C9C
330
1
100
AcDbSymbolTableRecord
100
AcDbBlockTableRecord
  2
*D11
340
0
 70
     0
280
     1
281
     0
  0
BLOCK_RECORD
  5
DCC
330
1
100
AcDbSymbolTableRecord
100
AcDbBlockTableRecord
  2
*D12
340
0
 70
     0
280
     1
281
     0
  0
BLOCK_RECORD
  5
DDC
330
1
100
AcDbSymbolTableRecord
100
AcDbBlockTableRecord
  2
*D13
340
0
 70
     0
280
     1
281
     0
  0
BLOCK_RECORD
  5
E17
330
1
100
AcDbSymbolTableRecord
100
AcDbBlockTableRecord
  2
*D14
340
0
 70
     0
280
     1
281
     0
  0
BLOCK_RECORD
  5
E27
330
1
100
AcDbSymbolTableRecord
100
AcDbBlockTableRecord
  2
*D15
340
0
 70
     0
280
     1
281
     0
  0
BLOCK_RECORD
  5
104B
330
1
100
AcDbSymbolTableRecord
100
AcDbBlockTableRecord
  2
*D16
340
0
 70
     0
280
     1
281
     0
  0
BLOCK_RECORD
  5
105B
330
1
100
AcDbSymbolTableRecord
100
AcDbBlockTableRecord
  2
*D17
340
0
 70
     0
280
     1
281
     0
  0
BLOCK_RECORD
  5
1335
330
1
100
AcDbSymbolTableRecord
100
AcDbBlockTableRecord
  2
*D18
340
0
 70
     0
280
     1
281
     0
  0
ENDTAB
  0
ENDSEC
  0
SECTION
  2
BLOCKS
  0
BLOCK
  5
20
330
1F
100
AcDbEntity
  8
0
100
AcDbBlockBegin
  2
*Model_Space
 70
     0
 10
0.0
 20
0.0
 30
0.0
  3
*Model_Space
  1

  0
ENDBLK
  5
21
330
1F
100
AcDbEntity
  8
0
100
AcDbBlockEnd
  0
BLOCK
  5
5A
330
58
100
AcDbEntity
 67
     1
  8
0
100
AcDbBlockBegin
  2
*Paper_Space
 70
     0
 10
0.0
 20
0.0
 30
0.0
  3
*Paper_Space
  1

  0
ENDBLK
  5
5B
330
58
100
AcDbEntity
 67
     1
  8
0
100
AcDbBlockEnd
  0
BLOCK
  5
5F
330
5D
100
AcDbEntity
 67
     1
  8
0
100
AcDbBlockBegin
  2
*Paper_Space0
 70
     0
 10
0.0
 20
0.0
 30
0.0
  3
*Paper_Space0
  1

  0
ENDBLK
  5
60
330
5D
100
AcDbEntity
 67
     1
  8
0
100
AcDbBlockEnd
  0
BLOCK
  5
971
330
970
100
AcDbEntity
  8
0
100
AcDbBlockBegin
  2
*D1
 70
     1
 10
0.0
 20
0.0
 30
0.0
  3
*D1
  1

  0
LINE
  5
973
330
970
100
AcDbEntity
  8
pixel-electrodes-small-lower
 62
     0
370
    -2
100
AcDbLine
 10
12.09261012444218
 20
2.436001355576811
 30
0.0
 11
12.09261012444218
 21
5.900238065094269
 31
0.0
  0
LINE
  5
974
330
970
100
AcDbEntity
  8
pixel-electrodes-small-lower
 62
     0
370
    -2
100
AcDbLine
 10
12.82750000000011
 20
2.436000110325034
 30
0.0
 11
12.82750000000011
 21
5.900238065094269
 31
0.0
  0
LINE
  5
975
330
970
100
AcDbEntity
  8
pixel-electrodes-small-lower
 62
     0
370
    -2
100
AcDbLine
 10
12.82750000000011
 20
5.720238065094271
 30
0.0
 11
13.00750000000011
 21
5.720238065094271
 31
0.0
  0
LINE
  5
976
330
970
100
AcDbEntity
  8
pixel-electrodes-small-lower
 62
     0
370
    -2
100
AcDbLine
 10
12.27261012444218
 20
5.720238065094271
 30
0.0
 11
12.64750000000011
 21
5.720238065094271
 31
0.0
  0
LINE
  5
977
330
970
100
AcDbEntity
  8
pixel-electrodes-small-lower
 62
     0
370
    -2
100
AcDbLine
 10
12.64750000000011
 20
5.720238065094271
 30
0.0
 11
12.27261012444218
 21
5.720238065094271
 31
0.0
  0
SOLID
  5
978
330
970
100
AcDbEntity
  8
pixel-electrodes-small-lower
 62
     0
100
AcDbTrace
 10
12.27261012444218
 20
5.750238065094271
 30
0.0
 11
12.27261012444218
 21
5.690238065094269
 31
0.0
 12
12.09261012444218
 22
5.720238065094271
 32
0.0
 13
12.09261012444218
 23
5.720238065094271
 33
0.0
  0
SOLID
  5
979
330
970
100
AcDbEntity
  8
pixel-electrodes-small-lower
 62
     0
100
AcDbTrace
 10
12.64750000000011
 20
5.690238065094269
 30
0.0
 11
12.64750000000011
 21
5.750238065094271
 31
0.0
 12
12.82750000000011
 22
5.720238065094271
 32
0.0
 13
12.82750000000011
 23
5.720238065094271
 33
0.0
  0
MTEXT
  5
97A
330
970
100
AcDbEntity
  8
pixel-electrodes-small-lower
 62
     0
100
AcDbMText
 10
13.47131309686232
 20
5.720238065094271
 30
0.0
 40
0.18
 41
0.0
 46
0.0
 71
     5
 72
     1
  1
\A1;0.7349
 73
     1
 44
1.0
  0
POINT
  5
97B
330
970
100
AcDbEntity
  8
Defpoints
 62
     0
100
AcDbPoint
 10
12.09261012444218
 20
2.373501355576811
 30
0.0
  0
POINT
  5
97C
330
970
100
AcDbEntity
  8
Defpoints
 62
     0
100
AcDbPoint
 10
12.82750000000011
 20
2.373500110325034
 30
0.0
  0
POINT
  5
97D
330
970
100
AcDbEntity
  8
Defpoints
 62
     0
100
AcDbPoint
 10
12.82750000000011
 20
5.720238065094271
 30
0.0
  0
ENDBLK
  5
972
330
970
100
AcDbEntity
  8
0
100
AcDbBlockEnd
  0
BLOCK
  5
9FC
330
9FB
100
AcDbEntity
  8
0
100
AcDbBlockBegin
  2
*D2
 70
     1
 10
0.0
 20
0.0
 30
0.0
  3
*D2
  1

  0
LINE
  5
9FE
330
9FB
100
AcDbEntity
  8
TC-electrode-small
 62
     0
370
    -2
100
AcDbLine
 10
14.50000123096698
 20
25.1905342251322
 30
0.0
 11
14.50000123096698
 21
25.01672772228185
 31
0.0
  0
LINE
  5
9FF
330
9FB
100
AcDbEntity
  8
TC-electrode-small
 62
     0
370
    -2
100
AcDbLine
 10
15.50004273882358
 20
25.19053560058203
 30
0.0
 11
15.50004273882358
 21
25.01672772228185
 31
0.0
  0
LINE
  5
A00
330
9FB
100
AcDbEntity
  8
TC-electrode-small
 62
     0
370
    -2
100
AcDbLine
 10
14.32000123096698
 20
25.19672772228185
 30
0.0
 11
14.14000123096698
 21
25.19672772228185
 31
0.0
  0
LINE
  5
A01
330
9FB
100
AcDbEntity
  8
TC-electrode-small
 62
     0
370
    -2
100
AcDbLine
 10
15.68004273882358
 20
25.19672772228185
 30
0.0
 11
15.86004273882358
 21
25.19672772228185
 31
0.0
  0
SOLID
  5
A02
330
9FB
100
AcDbEntity
  8
TC-electrode-small
 62
     0
100
AcDbTrace
 10
14.32000123096698
 20
25.16672772228185
 30
0.0
 11
14.32000123096698
 21
25.22672772228185
 31
0.0
 12
14.50000123096698
 22
25.19672772228185
 32
0.0
 13
14.50000123096698
 23
25.19672772228185
 33
0.0
  0
SOLID
  5
A03
330
9FB
100
AcDbEntity
  8
TC-electrode-small
 62
     0
100
AcDbTrace
 10
15.68004273882358
 20
25.22672772228185
 30
0.0
 11
15.68004273882358
 21
25.16672772228185
 31
0.0
 12
15.50004273882358
 22
25.19672772228185
 32
0.0
 13
15.50004273882358
 23
25.19672772228185
 33
0.0
  0
MTEXT
  5
A04
330
9FB
100
AcDbEntity
  8
TC-electrode-small
 62
     0
100
AcDbMText
 10
15.00002198489528
 20
25.19672772228185
 30
0.0
 40
0.18
 41
0.0
 46
0.0
 71
     5
 72
     1
  1
\A1;1.0000
 73
     1
 44
1.0
  0
POINT
  5
A05
330
9FB
100
AcDbEntity
  8
Defpoints
 62
     0
100
AcDbPoint
 10
14.50000123096698
 20
25.2530342251322
 30
0.0
  0
POINT
  5
A06
330
9FB
100
AcDbEntity
  8
Defpoints
 62
     0
100
AcDbPoint
 10
15.50004273882358
 20
25.25303560058203
 30
0.0
  0
POINT
  5
A07
330
9FB
100
AcDbEntity
  8
Defpoints
 62
     0
100
AcDbPoint
 10
15.50004273882358
 20
25.19672772228185
 30
0.0
  0
ENDBLK
  5
9FD
330
9FB
100
AcDbEntity
  8
0
100
AcDbBlockEnd
  0
BLOCK
  5
A0C
330
A0B
100
AcDbEntity
  8
0
100
AcDbBlockBegin
  2
*D3
 70
     1
 10
0.0
 20
0.0
 30
0.0
  3
*D3
  1

  0
LINE
  5
A0E
330
A0B
100
AcDbEntity
  8
TC-electrode-small
 62
     0
370
    -2
100
AcDbLine
 10
14.49997590744533
 20
5.311031835932125
 30
0.0
 11
14.49997590744533
 21
5.745859306526902
 31
0.0
  0
LINE
  5
A0F
330
A0B
100
AcDbEntity
  8
TC-electrode-small
 62
     0
370
    -2
100
AcDbLine
 10
15.49999291315251
 20
5.311031118137294
 30
0.0
 11
15.49999291315251
 21
5.745859306526902
 31
0.0
  0
LINE
  5
A10
330
A0B
100
AcDbEntity
  8
TC-electrode-small
 62
     0
370
    -2
100
AcDbLine
 10
14.31997590744533
 20
5.565859306526903
 30
0.0
 11
14.13997590744533
 21
5.565859306526903
 31
0.0
  0
LINE
  5
A11
330
A0B
100
AcDbEntity
  8
TC-electrode-small
 62
     0
370
    -2
100
AcDbLine
 10
15.67999291315251
 20
5.565859306526903
 30
0.0
 11
15.85999291315251
 21
5.565859306526903
 31
0.0
  0
SOLID
  5
A12
330
A0B
100
AcDbEntity
  8
TC-electrode-small
 62
     0
100
AcDbTrace
 10
14.31997590744533
 20
5.535859306526902
 30
0.0
 11
14.31997590744533
 21
5.595859306526903
 31
0.0
 12
14.49997590744533
 22
5.565859306526903
 32
0.0
 13
14.49997590744533
 23
5.565859306526903
 33
0.0
  0
SOLID
  5
A13
330
A0B
100
AcDbEntity
  8
TC-electrode-small
 62
     0
100
AcDbTrace
 10
15.67999291315251
 20
5.595859306526903
 30
0.0
 11
15.67999291315251
 21
5.535859306526902
 31
0.0
 12
15.49999291315251
 22
5.565859306526903
 32
0.0
 13
15.49999291315251
 23
5.565859306526903
 33
0.0
  0
MTEXT
  5
A14
330
A0B
100
AcDbEntity
  8
TC-electrode-small
 62
     0
100
AcDbMText
 10
14.99998441029892
 20
5.565859306526903
 30
0.0
 40
0.18
 41
0.0
 46
0.0
 71
     5
 72
     1
  1
\A1;1.0000
 73
     1
 44
1.0
  0
POINT
  5
A15
330
A0B
100
AcDbEntity
  8
Defpoints
 62
     0
100
AcDbPoint
 10
14.49997590744533
 20
5.248531835932125
 30
0.0
  0
POINT
  5
A16
330
A0B
100
AcDbEntity
  8
Defpoints
 62
     0
100
AcDbPoint
 10
15.49999291315251
 20
5.248531118137294
 30
0.0
  0
POINT
  5
A17
330
A0B
100
AcDbEntity
  8
Defpoints
 62
     0
100
AcDbPoint
 10
15.49999291315251
 20
5.565859306526903
 30
0.0
  0
ENDBLK
  5
A0D
330
A0B
100
AcDbEntity
  8
0
100
AcDbBlockEnd
  0
BLOCK
  5
AFA
330
AF9
100
AcDbEntity
  8
0
100
AcDbBlockBegin
  2
*D4
 70
     1
 10
0.0
 20
0.0
 30
0.0
  3
*D4
  1

  0
LINE
  5
AFC
330
AF9
100
AcDbEntity
  8
pixel-electrodes-small-lower
 62
     0
370
    -2
100
AcDbLine
 10
12.8275000000001
 20
2.311000110325068
 30
0.0
 11
12.8275000000001
 21
0.926422686207985
 31
0.0
  0
LINE
  5
AFD
330
AF9
100
AcDbEntity
  8
pixel-electrodes-small-lower
 62
     0
370
    -2
100
AcDbLine
 10
17.12966587158983
 20
2.311000110325068
 30
0.0
 11
17.12966587158983
 21
0.926422686207985
 31
0.0
  0
LINE
  5
AFE
330
AF9
100
AcDbEntity
  8
pixel-electrodes-small-lower
 62
     0
370
    -2
100
AcDbLine
 10
13.0075000000001
 20
1.106422686207985
 30
0.0
 11
14.51225278572675
 21
1.106422686207985
 31
0.0
  0
LINE
  5
AFF
330
AF9
100
AcDbEntity
  8
pixel-electrodes-small-lower
 62
     0
370
    -2
100
AcDbLine
 10
16.94966587158983
 20
1.106422686207985
 30
0.0
 11
15.44491308586318
 21
1.106422686207985
 31
0.0
  0
SOLID
  5
B00
330
AF9
100
AcDbEntity
  8
pixel-electrodes-small-lower
 62
     0
100
AcDbTrace
 10
13.0075000000001
 20
1.136422686207985
 30
0.0
 11
13.0075000000001
 21
1.076422686207985
 31
0.0
 12
12.8275000000001
 22
1.106422686207985
 32
0.0
 13
12.8275000000001
 23
1.106422686207985
 33
0.0
  0
SOLID
  5
B01
330
AF9
100
AcDbEntity
  8
pixel-electrodes-small-lower
 62
     0
100
AcDbTrace
 10
16.94966587158983
 20
1.076422686207985
 30
0.0
 11
16.94966587158983
 21
1.136422686207985
 31
0.0
 12
17.12966587158983
 22
1.106422686207985
 32
0.0
 13
17.12966587158983
 23
1.106422686207985
 33
0.0
  0
MTEXT
  5
B02
330
AF9
100
AcDbEntity
  8
pixel-electrodes-small-lower
 62
     0
100
AcDbMText
 10
14.97858293579496
 20
1.106422686207985
 30
0.0
 40
0.18
 41
0.0
 46
0.0
 71
     5
 72
     1
  1
\A1;4.3022
 73
     1
 44
1.0
  0
POINT
  5
B03
330
AF9
100
AcDbEntity
  8
Defpoints
 62
     0
100
AcDbPoint
 10
12.8275000000001
 20
2.373500110325068
 30
0.0
  0
POINT
  5
B04
330
AF9
100
AcDbEntity
  8
Defpoints
 62
     0
100
AcDbPoint
 10
17.12966587158983
 20
2.373500110325068
 30
0.0
  0
POINT
  5
B05
330
AF9
100
AcDbEntity
  8
Defpoints
 62
     0
100
AcDbPoint
 10
17.12966587158983
 20
1.106422686207985
 30
0.0
  0
ENDBLK
  5
AFB
330
AF9
100
AcDbEntity
  8
0
100
AcDbBlockEnd
  0
BLOCK
  5
C2C
330
C2B
100
AcDbEntity
  8
0
100
AcDbBlockBegin
  2
*D5
 70
     1
 10
0.0
 20
0.0
 30
0.0
  3
*D5
  1

  0
LINE
  5
C2E
330
C2B
100
AcDbEntity
  8
pixel-electrodes-small-lower
 62
     0
370
    -2
100
AcDbLine
 10
15.0625
 20
29.50001871999291
 30
0.0
 11
20.2780780694994
 21
29.50001871999291
 31
0.0
  0
LINE
  5
C2F
330
C2B
100
AcDbEntity
  8
pixel-electrodes-small-lower
 62
     0
370
    -2
100
AcDbLine
 10
15.0625
 20
29.99999999999909
 30
0.0
 11
20.2780780694994
 21
29.99999999999909
 31
0.0
  0
LINE
  5
C30
330
C2B
100
AcDbEntity
  8
pixel-electrodes-small-lower
 62
     0
370
    -2
100
AcDbLine
 10
20.0980780694994
 20
29.32001871999291
 30
0.0
 11
20.0980780694994
 21
29.14001871999291
 31
0.0
  0
LINE
  5
C31
330
C2B
100
AcDbEntity
  8
pixel-electrodes-small-lower
 62
     0
370
    -2
100
AcDbLine
 10
20.0980780694994
 20
30.17999999999909
 30
0.0
 11
20.0980780694994
 21
30.35999999999909
 31
0.0
  0
SOLID
  5
C32
330
C2B
100
AcDbEntity
  8
pixel-electrodes-small-lower
 62
     0
100
AcDbTrace
 10
20.12807806949941
 20
29.32001871999291
 30
0.0
 11
20.06807806949939
 21
29.32001871999291
 31
0.0
 12
20.0980780694994
 22
29.50001871999291
 32
0.0
 13
20.0980780694994
 23
29.50001871999291
 33
0.0
  0
SOLID
  5
C33
330
C2B
100
AcDbEntity
  8
pixel-electrodes-small-lower
 62
     0
100
AcDbTrace
 10
20.06807806949939
 20
30.17999999999909
 30
0.0
 11
20.12807806949941
 21
30.17999999999909
 31
0.0
 12
20.0980780694994
 22
29.99999999999909
 32
0.0
 13
20.0980780694994
 23
29.99999999999909
 33
0.0
  0
MTEXT
  5
C34
330
C2B
100
AcDbEntity
  8
pixel-electrodes-small-lower
 62
     0
100
AcDbMText
 10
20.0980780694994
 20
29.750009359996
 30
0.0
 40
0.18
 41
0.0
 46
0.0
 71
     5
 72
     1
  1
\A1;0.5000
 73
     1
 44
1.0
  0
POINT
  5
C35
330
C2B
100
AcDbEntity
  8
Defpoints
 62
     0
100
AcDbPoint
 10
15.0
 20
29.50001871999291
 30
0.0
  0
POINT
  5
C36
330
C2B
100
AcDbEntity
  8
Defpoints
 62
     0
100
AcDbPoint
 10
15.0
 20
29.99999999999909
 30
0.0
  0
POINT
  5
C37
330
C2B
100
AcDbEntity
  8
Defpoints
 62
     0
100
AcDbPoint
 10
20.0980780694994
 20
29.99999999999909
 30
0.0
  0
ENDBLK
  5
C2D
330
C2B
100
AcDbEntity
  8
0
100
AcDbBlockEnd
  0
BLOCK
  5
C3C
330
C3B
100
AcDbEntity
  8
0
100
AcDbBlockBegin
  2
*D6
 70
     1
 10
0.0
 20
0.0
 30
0.0
  3
*D6
  1

  0
LINE
  5
C3E
330
C3B
100
AcDbEntity
  8
pixel-electrodes-small-lower
 62
     0
370
    -2
100
AcDbLine
 10
15.06249603821871
 20
25.75303923999361
 30
0.0
 11
20.01536185278645
 21
25.75303923999361
 31
0.0
  0
LINE
  5
C3F
330
C3B
100
AcDbEntity
  8
pixel-electrodes-small-lower
 62
     0
370
    -2
100
AcDbLine
 10
15.0625
 20
29.99999999999909
 30
0.0
 11
20.01536185278645
 21
29.99999999999909
 31
0.0
  0
LINE
  5
C40
330
C3B
100
AcDbEntity
  8
pixel-electrodes-small-lower
 62
     0
370
    -2
100
AcDbLine
 10
19.83536185278645
 20
25.93303923999361
 30
0.0
 11
19.83536185278645
 21
27.69461648220645
 31
0.0
  0
LINE
  5
C41
330
C3B
100
AcDbEntity
  8
pixel-electrodes-small-lower
 62
     0
370
    -2
100
AcDbLine
 10
19.83536185278645
 20
29.81999999999909
 30
0.0
 11
19.83536185278645
 21
28.05842275778626
 31
0.0
  0
SOLID
  5
C42
330
C3B
100
AcDbEntity
  8
pixel-electrodes-small-lower
 62
     0
100
AcDbTrace
 10
19.80536185278645
 20
25.93303923999361
 30
0.0
 11
19.86536185278645
 21
25.93303923999361
 31
0.0
 12
19.83536185278645
 22
25.75303923999361
 32
0.0
 13
19.83536185278645
 23
25.75303923999361
 33
0.0
  0
SOLID
  5
C43
330
C3B
100
AcDbEntity
  8
pixel-electrodes-small-lower
 62
     0
100
AcDbTrace
 10
19.86536185278645
 20
29.81999999999909
 30
0.0
 11
19.80536185278645
 21
29.81999999999909
 31
0.0
 12
19.83536185278645
 22
29.99999999999909
 32
0.0
 13
19.83536185278645
 23
29.99999999999909
 33
0.0
  0
MTEXT
  5
C44
330
C3B
100
AcDbEntity
  8
pixel-electrodes-small-lower
 62
     0
100
AcDbMText
 10
19.83536185278645
 20
27.87651961999635
 30
0.0
 40
0.18
 41
0.0
 46
0.0
 71
     5
 72
     1
  1
\A1;4.2470
 73
     1
 44
1.0
  0
POINT
  5
C45
330
C3B
100
AcDbEntity
  8
Defpoints
 62
     0
100
AcDbPoint
 10
14.99999603821871
 20
25.75303923999361
 30
0.0
  0
POINT
  5
C46
330
C3B
100
AcDbEntity
  8
Defpoints
 62
     0
100
AcDbPoint
 10
15.0
 20
29.99999999999909
 30
0.0
  0
POINT
  5
C47
330
C3B
100
AcDbEntity
  8
Defpoints
 62
     0
100
AcDbPoint
 10
19.83536185278645
 20
29.99999999999909
 30
0.0
  0
ENDBLK
  5
C3D
330
C3B
100
AcDbEntity
  8
0
100
AcDbBlockEnd
  0
BLOCK
  5
C4C
330
C4B
100
AcDbEntity
  8
0
100
AcDbBlockBegin
  2
*D7
 70
     1
 10
0.0
 20
0.0
 30
0.0
  3
*D7
  1

  0
LINE
  5
C4E
330
C4B
100
AcDbEntity
  8
pixel-electrodes-small-lower
 62
     0
370
    -2
100
AcDbLine
 10
14.93748749470344
 20
29.25001871999222
 30
0.0
 11
9.485954672953109
 21
29.25001871999222
 31
0.0
  0
LINE
  5
C4F
330
C4B
100
AcDbEntity
  8
pixel-electrodes-small-lower
 62
     0
370
    -2
100
AcDbLine
 10
14.9375
 20
29.99999999999909
 30
0.0
 11
9.485954672953109
 21
29.99999999999909
 31
0.0
  0
LINE
  5
C50
330
C4B
100
AcDbEntity
  8
pixel-electrodes-small-lower
 62
     0
370
    -2
100
AcDbLine
 10
9.665954672953109
 20
30.17999999999909
 30
0.0
 11
9.845954672953107
 21
30.17999999999909
 31
0.0
  0
LINE
  5
C51
330
C4B
100
AcDbEntity
  8
pixel-electrodes-small-lower
 62
     0
370
    -2
100
AcDbLine
 10
9.665954672953109
 20
29.43001871999222
 30
0.0
 11
9.665954672953109
 21
29.81999999999909
 31
0.0
  0
LINE
  5
C52
330
C4B
100
AcDbEntity
  8
pixel-electrodes-small-lower
 62
     0
370
    -2
100
AcDbLine
 10
9.665954672953109
 20
29.81999999999909
 30
0.0
 11
9.665954672953109
 21
29.43001871999222
 31
0.0
  0
LINE
  5
C53
330
C4B
100
AcDbEntity
  8
pixel-electrodes-small-lower
 62
     0
370
    -2
100
AcDbLine
 10
9.665954672953109
 20
29.99999999999909
 30
0.0
 11
9.665954672953109
 21
30.17999999999909
 31
0.0
  0
SOLID
  5
C54
330
C4B
100
AcDbEntity
  8
pixel-electrodes-small-lower
 62
     0
100
AcDbTrace
 10
9.63595467295311
 20
29.43001871999222
 30
0.0
 11
9.695954672953106
 21
29.43001871999222
 31
0.0
 12
9.665954672953109
 22
29.25001871999222
 32
0.0
 13
9.665954672953109
 23
29.25001871999222
 33
0.0
  0
SOLID
  5
C55
330
C4B
100
AcDbEntity
  8
pixel-electrodes-small-lower
 62
     0
100
AcDbTrace
 10
9.695954672953106
 20
29.81999999999909
 30
0.0
 11
9.63595467295311
 21
29.81999999999909
 31
0.0
 12
9.665954672953109
 22
29.99999999999909
 32
0.0
 13
9.665954672953109
 23
29.99999999999909
 33
0.0
  0
MTEXT
  5
C56
330
C4B
100
AcDbEntity
  8
pixel-electrodes-small-lower
 62
     0
100
AcDbMText
 10
10.30927663748244
 20
30.17999999999909
 30
0.0
 40
0.18
 41
0.0
 46
0.0
 71
     5
 72
     1
  1
\A1;0.7500
 73
     1
 44
1.0
  0
POINT
  5
C57
330
C4B
100
AcDbEntity
  8
Defpoints
 62
     0
100
AcDbPoint
 10
14.99998749470344
 20
29.25001871999222
 30
0.0
  0
POINT
  5
C58
330
C4B
100
AcDbEntity
  8
Defpoints
 62
     0
100
AcDbPoint
 10
15.0
 20
29.99999999999909
 30
0.0
  0
POINT
  5
C59
330
C4B
100
AcDbEntity
  8
Defpoints
 62
     0
100
AcDbPoint
 10
9.665954672953109
 20
29.99999999999909
 30
0.0
  0
ENDBLK
  5
C4D
330
C4B
100
AcDbEntity
  8
0
100
AcDbBlockEnd
  0
BLOCK
  5
C5E
330
C5D
100
AcDbEntity
  8
0
100
AcDbBlockBegin
  2
*D8
 70
     1
 10
0.0
 20
0.0
 30
0.0
  3
*D8
  1

  0
LINE
  5
C60
330
C5D
100
AcDbEntity
  8
pixel-electrodes-small-lower
 62
     0
370
    -2
100
AcDbLine
 10
15.0625
 20
29.50001871999291
 30
0.0
 11
17.03491144458563
 21
29.50001871999291
 31
0.0
  0
LINE
  5
C61
330
C5D
100
AcDbEntity
  8
pixel-electrodes-small-lower
 62
     0
370
    -2
100
AcDbLine
 10
15.0625
 20
29.99999999999909
 30
0.0
 11
17.03491144458563
 21
29.99999999999909
 31
0.0
  0
LINE
  5
C62
330
C5D
100
AcDbEntity
  8
pixel-electrodes-small-lower
 62
     0
370
    -2
100
AcDbLine
 10
16.85491144458563
 20
29.32001871999291
 30
0.0
 11
16.85491144458563
 21
29.14001871999291
 31
0.0
  0
LINE
  5
C63
330
C5D
100
AcDbEntity
  8
pixel-electrodes-small-lower
 62
     0
370
    -2
100
AcDbLine
 10
16.85491144458563
 20
30.17999999999909
 30
0.0
 11
16.85491144458563
 21
30.35999999999909
 31
0.0
  0
SOLID
  5
C64
330
C5D
100
AcDbEntity
  8
pixel-electrodes-small-lower
 62
     0
100
AcDbTrace
 10
16.88491144458563
 20
29.32001871999291
 30
0.0
 11
16.82491144458563
 21
29.32001871999291
 31
0.0
 12
16.85491144458563
 22
29.50001871999291
 32
0.0
 13
16.85491144458563
 23
29.50001871999291
 33
0.0
  0
SOLID
  5
C65
330
C5D
100
AcDbEntity
  8
pixel-electrodes-small-lower
 62
     0
100
AcDbTrace
 10
16.82491144458563
 20
30.17999999999909
 30
0.0
 11
16.88491144458563
 21
30.17999999999909
 31
0.0
 12
16.85491144458563
 22
29.99999999999909
 32
0.0
 13
16.85491144458563
 23
29.99999999999909
 33
0.0
  0
MTEXT
  5
C66
330
C5D
100
AcDbEntity
  8
pixel-electrodes-small-lower
 62
     0
100
AcDbMText
 10
16.85491144458563
 20
29.750009359996
 30
0.0
 40
0.18
 41
0.0
 46
0.0
 71
     5
 72
     1
  1
\A1;0.5000
 73
     1
 44
1.0
  0
POINT
  5
C67
330
C5D
100
AcDbEntity
  8
Defpoints
 62
     0
100
AcDbPoint
 10
15.0
 20
29.50001871999291
 30
0.0
  0
POINT
  5
C68
330
C5D
100
AcDbEntity
  8
Defpoints
 62
     0
100
AcDbPoint
 10
15.0
 20
29.99999999999909
 30
0.0
  0
POINT
  5
C69
330
C5D
100
AcDbEntity
  8
Defpoints
 62
     0
100
AcDbPoint
 10
16.85491144458563
 20
29.99999999999909
 30
0.0
  0
ENDBLK
  5
C5F
330
C5D
100
AcDbEntity
  8
0
100
AcDbBlockEnd
  0
BLOCK
  5
C6E
330
C6D
100
AcDbEntity
  8
0
100
AcDbBlockBegin
  2
*D9
 70
     1
 10
0.0
 20
0.0
 30
0.0
  3
*D9
  1

  0
LINE
  5
C70
330
C6D
100
AcDbEntity
  8
pixel-electrodes-small-lower
 62
     0
370
    -2
100
AcDbLine
 10
13.79245243371466
 20
27.460019541917
 30
0.0
 11
15.53088785896578
 21
27.460019541917
 31
0.0
  0
LINE
  5
C71
330
C6D
100
AcDbEntity
  8
pixel-electrodes-small-lower
 62
     0
370
    -2
100
AcDbLine
 10
15.0625
 20
29.50001871999291
 30
0.0
 11
15.53088785896578
 21
29.50001871999291
 31
0.0
  0
LINE
  5
C72
330
C6D
100
AcDbEntity
  8
pixel-electrodes-small-lower
 62
     0
370
    -2
100
AcDbLine
 10
15.35088785896578
 20
27.640019541917
 30
0.0
 11
15.35088785896578
 21
28.29811599316505
 31
0.0
  0
LINE
  5
C73
330
C6D
100
AcDbEntity
  8
pixel-electrodes-small-lower
 62
     0
370
    -2
100
AcDbLine
 10
15.35088785896578
 20
29.32001871999291
 30
0.0
 11
15.35088785896578
 21
28.66192226874486
 31
0.0
  0
SOLID
  5
C74
330
C6D
100
AcDbEntity
  8
pixel-electrodes-small-lower
 62
     0
100
AcDbTrace
 10
15.32088785896578
 20
27.640019541917
 30
0.0
 11
15.38088785896578
 21
27.640019541917
 31
0.0
 12
15.35088785896578
 22
27.460019541917
 32
0.0
 13
15.35088785896578
 23
27.460019541917
 33
0.0
  0
SOLID
  5
C75
330
C6D
100
AcDbEntity
  8
pixel-electrodes-small-lower
 62
     0
100
AcDbTrace
 10
15.38088785896578
 20
29.32001871999291
 30
0.0
 11
15.32088785896578
 21
29.32001871999291
 31
0.0
 12
15.35088785896578
 22
29.50001871999291
 32
0.0
 13
15.35088785896578
 23
29.50001871999291
 33
0.0
  0
MTEXT
  5
C76
330
C6D
100
AcDbEntity
  8
pixel-electrodes-small-lower
 62
     0
100
AcDbMText
 10
15.35088785896578
 20
28.48001913095496
 30
0.0
 40
0.18
 41
0.0
 46
0.0
 71
     5
 72
     1
  1
\A1;2.0400
 73
     1
 44
1.0
  0
POINT
  5
C77
330
C6D
100
AcDbEntity
  8
Defpoints
 62
     0
100
AcDbPoint
 10
13.72995243371466
 20
27.460019541917
 30
0.0
  0
POINT
  5
C78
330
C6D
100
AcDbEntity
  8
Defpoints
 62
     0
100
AcDbPoint
 10
15.0
 20
29.50001871999291
 30
0.0
  0
POINT
  5
C79
330
C6D
100
AcDbEntity
  8
Defpoints
 62
     0
100
AcDbPoint
 10
15.35088785896578
 20
29.50001871999291
 30
0.0
  0
ENDBLK
  5
C6F
330
C6D
100
AcDbEntity
  8
0
100
AcDbBlockEnd
  0
BLOCK
  5
C8C
330
C8B
100
AcDbEntity
  8
0
100
AcDbBlockBegin
  2
*D10
 70
     1
 10
0.0
 20
0.0
 30
0.0
  3
*D10
  1

  0
LINE
  5
C8E
330
C8B
100
AcDbEntity
  8
pixel-electrodes-small-lower
 62
     0
370
    -2
100
AcDbLine
 10
15.0624999999998
 20
25.25001871999291
 30
0.0
 11
20.35901080579185
 21
25.25001871999291
 31
0.0
  0
LINE
  5
C8F
330
C8B
100
AcDbEntity
  8
pixel-electrodes-small-lower
 62
     0
370
    -2
100
AcDbLine
 10
15.0625
 20
29.99999999999909
 30
0.0
 11
20.35901080579185
 21
29.99999999999909
 31
0.0
  0
LINE
  5
C90
330
C8B
100
AcDbEntity
  8
pixel-electrodes-small-lower
 62
     0
370
    -2
100
AcDbLine
 10
20.17901080579185
 20
25.43001871999291
 30
0.0
 11
20.17901080579185
 21
27.44310622220609
 31
0.0
  0
LINE
  5
C91
330
C8B
100
AcDbEntity
  8
pixel-electrodes-small-lower
 62
     0
370
    -2
100
AcDbLine
 10
20.17901080579185
 20
29.81999999999909
 30
0.0
 11
20.17901080579185
 21
27.80691249778592
 31
0.0
  0
SOLID
  5
C92
330
C8B
100
AcDbEntity
  8
pixel-electrodes-small-lower
 62
     0
100
AcDbTrace
 10
20.14901080579186
 20
25.43001871999291
 30
0.0
 11
20.20901080579185
 21
25.43001871999291
 31
0.0
 12
20.17901080579185
 22
25.25001871999291
 32
0.0
 13
20.17901080579185
 23
25.25001871999291
 33
0.0
  0
SOLID
  5
C93
330
C8B
100
AcDbEntity
  8
pixel-electrodes-small-lower
 62
     0
100
AcDbTrace
 10
20.20901080579185
 20
29.81999999999909
 30
0.0
 11
20.14901080579186
 21
29.81999999999909
 31
0.0
 12
20.17901080579185
 22
29.99999999999909
 32
0.0
 13
20.17901080579185
 23
29.99999999999909
 33
0.0
  0
MTEXT
  5
C94
330
C8B
100
AcDbEntity
  8
pixel-electrodes-small-lower
 62
     0
100
AcDbMText
 10
20.17901080579185
 20
27.625009359996
 30
0.0
 40
0.18
 41
0.0
 46
0.0
 71
     5
 72
     1
  1
\A1;4.7500
 73
     1
 44
1.0
  0
POINT
  5
C95
330
C8B
100
AcDbEntity
  8
Defpoints
 62
     0
100
AcDbPoint
 10
14.9999999999998
 20
25.25001871999291
 30
0.0
  0
POINT
  5
C96
330
C8B
100
AcDbEntity
  8
Defpoints
 62
     0
100
AcDbPoint
 10
15.0
 20
29.99999999999909
 30
0.0
  0
POINT
  5
C97
330
C8B
100
AcDbEntity
  8
Defpoints
 62
     0
100
AcDbPoint
 10
20.17901080579185
 20
29.99999999999909
 30
0.0
  0
ENDBLK
  5
C8D
330
C8B
100
AcDbEntity
  8
0
100
AcDbBlockEnd
  0
BLOCK
  5
C9D
330
C9C
100
AcDbEntity
  8
0
100
AcDbBlockBegin
  2
*D11
 70
     1
 10
0.0
 20
0.0
 30
0.0
  3
*D11
  1

  0
LINE
  5
C9F
330
C9C
100
AcDbEntity
  8
pixel-electrodes-small-lower
 62
     0
370
    -2
100
AcDbLine
 10
30.0625
 20
29.99999999999909
 30
0.0
 11
31.62193972104146
 21
29.99999999999909
 31
0.0
  0
LINE
  5
CA0
330
C9C
100
AcDbEntity
  8
pixel-electrodes-small-lower
 62
     0
370
    -2
100
AcDbLine
 10
30.0625
 20
29.50001871999221
 30
0.0
 11
31.62193972104146
 21
29.50001871999221
 31
0.0
  0
LINE
  5
CA1
330
C9C
100
AcDbEntity
  8
pixel-electrodes-small-lower
 62
     0
370
    -2
100
AcDbLine
 10
31.44193972104146
 20
30.17999999999909
 30
0.0
 11
31.44193972104146
 21
30.35999999999909
 31
0.0
  0
LINE
  5
CA2
330
C9C
100
AcDbEntity
  8
pixel-electrodes-small-lower
 62
     0
370
    -2
100
AcDbLine
 10
31.44193972104146
 20
29.32001871999221
 30
0.0
 11
31.44193972104146
 21
29.14001871999222
 31
0.0
  0
SOLID
  5
CA3
330
C9C
100
AcDbEntity
  8
pixel-electrodes-small-lower
 62
     0
100
AcDbTrace
 10
31.41193972104146
 20
30.17999999999909
 30
0.0
 11
31.47193972104147
 21
30.17999999999909
 31
0.0
 12
31.44193972104146
 22
29.99999999999909
 32
0.0
 13
31.44193972104146
 23
29.99999999999909
 33
0.0
  0
SOLID
  5
CA4
330
C9C
100
AcDbEntity
  8
pixel-electrodes-small-lower
 62
     0
100
AcDbTrace
 10
31.47193972104147
 20
29.32001871999221
 30
0.0
 11
31.41193972104146
 21
29.32001871999221
 31
0.0
 12
31.44193972104146
 22
29.50001871999221
 32
0.0
 13
31.44193972104146
 23
29.50001871999221
 33
0.0
  0
MTEXT
  5
CA5
330
C9C
100
AcDbEntity
  8
pixel-electrodes-small-lower
 62
     0
100
AcDbMText
 10
31.44193972104146
 20
29.75000935999565
 30
0.0
 40
0.18
 41
0.0
 46
0.0
 71
     5
 72
     1
  1
\A1;0.5000
 73
     1
 44
1.0
  0
POINT
  5
CA6
330
C9C
100
AcDbEntity
  8
Defpoints
 62
     0
100
AcDbPoint
 10
30.0
 20
29.99999999999909
 30
0.0
  0
POINT
  5
CA7
330
C9C
100
AcDbEntity
  8
Defpoints
 62
     0
100
AcDbPoint
 10
30.0
 20
29.50001871999221
 30
0.0
  0
POINT
  5
CA8
330
C9C
100
AcDbEntity
  8
Defpoints
 62
     0
100
AcDbPoint
 10
31.44193972104146
 20
29.50001871999221
 30
0.0
  0
ENDBLK
  5
C9E
330
C9C
100
AcDbEntity
  8
0
100
AcDbBlockEnd
  0
BLOCK
  5
DCD
330
DCC
100
AcDbEntity
  8
0
100
AcDbBlockBegin
  2
*D12
 70
     1
 10
0.0
 20
0.0
 30
0.0
  3
*D12
  1

  0
LINE
  5
DCF
330
DCC
100
AcDbEntity
  8
pixel-electrodes-small-lower
 62
     0
370
    -2
100
AcDbLine
 10
7.962475907445422
 20
23.19993486565363
 30
0.0
 11
11.64444008019573
 21
23.19993486565363
 31
0.0
  0
LINE
  5
DD0
330
DCC
100
AcDbEntity
  8
pixel-electrodes-small-lower
 62
     0
370
    -2
100
AcDbLine
 10
7.962475907445422
 20
19.19993486565409
 30
0.0
 11
11.64444008019573
 21
19.19993486565409
 31
0.0
  0
LINE
  5
DD1
330
DCC
100
AcDbEntity
  8
pixel-electrodes-small-lower
 62
     0
370
    -2
100
AcDbLine
 10
11.46444008019573
 20
23.01993486565364
 30
0.0
 11
11.46444008019573
 21
21.38183800344377
 31
0.0
  0
LINE
  5
DD2
330
DCC
100
AcDbEntity
  8
pixel-electrodes-small-lower
 62
     0
370
    -2
100
AcDbLine
 10
11.46444008019573
 20
19.37993486565409
 30
0.0
 11
11.46444008019573
 21
21.01803172786396
 31
0.0
  0
SOLID
  5
DD3
330
DCC
100
AcDbEntity
  8
pixel-electrodes-small-lower
 62
     0
100
AcDbTrace
 10
11.49444008019572
 20
23.01993486565364
 30
0.0
 11
11.43444008019573
 21
23.01993486565364
 31
0.0
 12
11.46444008019573
 22
23.19993486565363
 32
0.0
 13
11.46444008019573
 23
23.19993486565363
 33
0.0
  0
SOLID
  5
DD4
330
DCC
100
AcDbEntity
  8
pixel-electrodes-small-lower
 62
     0
100
AcDbTrace
 10
11.43444008019573
 20
19.37993486565409
 30
0.0
 11
11.49444008019572
 21
19.37993486565409
 31
0.0
 12
11.46444008019573
 22
19.19993486565409
 32
0.0
 13
11.46444008019573
 23
19.19993486565409
 33
0.0
  0
MTEXT
  5
DD5
330
DCC
100
AcDbEntity
  8
pixel-electrodes-small-lower
 62
     0
100
AcDbMText
 10
11.46444008019573
 20
21.19993486565386
 30
0.0
 40
0.18
 41
0.0
 46
0.0
 71
     5
 72
     1
  1
\A1;4.0000
 73
     1
 44
1.0
  0
POINT
  5
DD6
330
DCC
100
AcDbEntity
  8
Defpoints
 62
     0
100
AcDbPoint
 10
7.899975907445422
 20
23.19993486565363
 30
0.0
  0
POINT
  5
DD7
330
DCC
100
AcDbEntity
  8
Defpoints
 62
     0
100
AcDbPoint
 10
7.899975907445422
 20
19.19993486565409
 30
0.0
  0
POINT
  5
DD8
330
DCC
100
AcDbEntity
  8
Defpoints
 62
     0
100
AcDbPoint
 10
11.46444008019573
 20
19.19993486565409
 30
0.0
  0
ENDBLK
  5
DCE
330
DCC
100
AcDbEntity
  8
0
100
AcDbBlockEnd
  0
BLOCK
  5
DDD
330
DDC
100
AcDbEntity
  8
0
100
AcDbBlockBegin
  2
*D13
 70
     1
 10
0.0
 20
0.0
 30
0.0
  3
*D13
  1

  0
LINE
  5
DDF
330
DDC
100
AcDbEntity
  8
pixel-electrodes-small-lower
 62
     0
370
    -2
100
AcDbLine
 10
5.399975907445422
 20
21.1374348656542
 30
0.0
 11
5.399975907445422
 21
18.07731192863246
 31
0.0
  0
LINE
  5
DE0
330
DDC
100
AcDbEntity
  8
pixel-electrodes-small-lower
 62
     0
370
    -2
100
AcDbLine
 10
10.39997590744542
 20
21.13743486565409
 30
0.0
 11
10.39997590744542
 21
18.07731192863246
 31
0.0
  0
LINE
  5
DE1
330
DDC
100
AcDbEntity
  8
pixel-electrodes-small-lower
 62
     0
370
    -2
100
AcDbLine
 10
5.579975907445422
 20
18.25731192863246
 30
0.0
 11
7.436653942916092
 21
18.25731192863246
 31
0.0
  0
LINE
  5
DE2
330
DDC
100
AcDbEntity
  8
pixel-electrodes-small-lower
 62
     0
370
    -2
100
AcDbLine
 10
10.21997590744542
 20
18.25731192863246
 30
0.0
 11
8.363297871974753
 21
18.25731192863246
 31
0.0
  0
SOLID
  5
DE3
330
DDC
100
AcDbEntity
  8
pixel-electrodes-small-lower
 62
     0
100
AcDbTrace
 10
5.579975907445422
 20
18.28731192863246
 30
0.0
 11
5.579975907445422
 21
18.22731192863246
 31
0.0
 12
5.399975907445422
 22
18.25731192863246
 32
0.0
 13
5.399975907445422
 23
18.25731192863246
 33
0.0
  0
SOLID
  5
DE4
330
DDC
100
AcDbEntity
  8
pixel-electrodes-small-lower
 62
     0
100
AcDbTrace
 10
10.21997590744542
 20
18.22731192863246
 30
0.0
 11
10.21997590744542
 21
18.28731192863246
 31
0.0
 12
10.39997590744542
 22
18.25731192863246
 32
0.0
 13
10.39997590744542
 23
18.25731192863246
 33
0.0
  0
MTEXT
  5
DE5
330
DDC
100
AcDbEntity
  8
pixel-electrodes-small-lower
 62
     0
100
AcDbMText
 10
7.899975907445422
 20
18.25731192863246
 30
0.0
 40
0.18
 41
0.0
 46
0.0
 71
     5
 72
     1
  1
\A1;5.0000
 73
     1
 44
1.0
  0
POINT
  5
DE6
330
DDC
100
AcDbEntity
  8
Defpoints
 62
     0
100
AcDbPoint
 10
5.399975907445422
 20
21.1999348656542
 30
0.0
  0
POINT
  5
DE7
330
DDC
100
AcDbEntity
  8
Defpoints
 62
     0
100
AcDbPoint
 10
10.39997590744542
 20
21.19993486565409
 30
0.0
  0
POINT
  5
DE8
330
DDC
100
AcDbEntity
  8
Defpoints
 62
     0
100
AcDbPoint
 10
10.39997590744542
 20
18.25731192863246
 30
0.0
  0
ENDBLK
  5
DDE
330
DDC
100
AcDbEntity
  8
0
100
AcDbBlockEnd
  0
BLOCK
  5
E18
330
E17
100
AcDbEntity
  8
0
100
AcDbBlockBegin
  2
*D14
 70
     1
 10
0.0
 20
0.0
 30
0.0
  3
*D14
  1

  0
LINE
  5
E1A
330
E17
100
AcDbEntity
  8
lightMask-large-lower
 62
     0
370
    -2
100
AcDbLine
 10
15.0625
 20
11.29700738823067
 30
0.0
 11
17.84371742070125
 21
11.29700738823067
 31
0.0
  0
LINE
  5
E1B
330
E17
100
AcDbEntity
  8
lightMask-large-lower
 62
     0
370
    -2
100
AcDbLine
 10
15.0625
 20
5.997007388230712
 30
0.0
 11
17.84371742070125
 21
5.997007388230712
 31
0.0
  0
LINE
  5
E1C
330
E17
100
AcDbEntity
  8
lightMask-large-lower
 62
     0
370
    -2
100
AcDbLine
 10
17.66371742070125
 20
11.11700738823067
 30
0.0
 11
17.66371742070125
 21
8.828971917562205
 31
0.0
  0
LINE
  5
E1D
330
E17
100
AcDbEntity
  8
lightMask-large-lower
 62
     0
370
    -2
100
AcDbLine
 10
17.66371742070125
 20
6.177007388230712
 30
0.0
 11
17.66371742070125
 21
8.465042858899176
 31
0.0
  0
SOLID
  5
E1E
330
E17
100
AcDbEntity
  8
lightMask-large-lower
 62
     0
100
AcDbTrace
 10
17.69371742070125
 20
11.11700738823067
 30
0.0
 11
17.63371742070125
 21
11.11700738823067
 31
0.0
 12
17.66371742070125
 22
11.29700738823067
 32
0.0
 13
17.66371742070125
 23
11.29700738823067
 33
0.0
  0
SOLID
  5
E1F
330
E17
100
AcDbEntity
  8
lightMask-large-lower
 62
     0
100
AcDbTrace
 10
17.63371742070125
 20
6.177007388230712
 30
0.0
 11
17.69371742070125
 21
6.177007388230712
 31
0.0
 12
17.66371742070125
 22
5.997007388230712
 32
0.0
 13
17.66371742070125
 23
5.997007388230712
 33
0.0
  0
MTEXT
  5
E20
330
E17
100
AcDbEntity
  8
lightMask-large-lower
 62
     0
100
AcDbMText
 10
17.66371742070125
 20
8.64700738823069
 30
0.0
 40
0.18
 41
0.0
 46
0.0
 71
     5
 72
     1
  1
\A1;5.3000
 73
     1
 44
1.0
  0
POINT
  5
E21
330
E17
100
AcDbEntity
  8
Defpoints
 62
     0
100
AcDbPoint
 10
15.0
 20
11.29700738823067
 30
0.0
  0
POINT
  5
E22
330
E17
100
AcDbEntity
  8
Defpoints
 62
     0
100
AcDbPoint
 10
15.0
 20
5.997007388230712
 30
0.0
  0
POINT
  5
E23
330
E17
100
AcDbEntity
  8
Defpoints
 62
     0
100
AcDbPoint
 10
17.66371742070125
 20
5.997007388230712
 30
0.0
  0
ENDBLK
  5
E19
330
E17
100
AcDbEntity
  8
0
100
AcDbBlockEnd
  0
BLOCK
  5
E28
330
E27
100
AcDbEntity
  8
0
100
AcDbBlockBegin
  2
*D15
 70
     1
 10
0.0
 20
0.0
 30
0.0
  3
*D15
  1

  0
LINE
  5
E2A
330
E27
100
AcDbEntity
  8
lightMask-large-lower
 62
     0
370
    -2
100
AcDbLine
 10
24.5
 20
8.70950738823069
 30
0.0
 11
24.5
 21
12.4847650790543
 31
0.0
  0
LINE
  5
E2B
330
E27
100
AcDbEntity
  8
lightMask-large-lower
 62
     0
370
    -2
100
AcDbLine
 10
5.5
 20
8.70950738823069
 30
0.0
 11
5.5
 21
12.4847650790543
 31
0.0
  0
LINE
  5
E2C
330
E27
100
AcDbEntity
  8
lightMask-large-lower
 62
     0
370
    -2
100
AcDbLine
 10
24.32
 20
12.3047650790543
 30
0.0
 11
15.52477489768076
 21
12.3047650790543
 31
0.0
  0
LINE
  5
E2D
330
E27
100
AcDbEntity
  8
lightMask-large-lower
 62
     0
370
    -2
100
AcDbLine
 10
5.679999999999999
 20
12.3047650790543
 30
0.0
 11
14.47522510231924
 21
12.3047650790543
 31
0.0
  0
SOLID
  5
E2E
330
E27
100
AcDbEntity
  8
lightMask-large-lower
 62
     0
100
AcDbTrace
 10
24.32
 20
12.2747650790543
 30
0.0
 11
24.32
 21
12.3347650790543
 31
0.0
 12
24.5
 22
12.3047650790543
 32
0.0
 13
24.5
 23
12.3047650790543
 33
0.0
  0
SOLID
  5
E2F
330
E27
100
AcDbEntity
  8
lightMask-large-lower
 62
     0
100
AcDbTrace
 10
5.679999999999999
 20
12.3347650790543
 30
0.0
 11
5.679999999999999
 21
12.2747650790543
 31
0.0
 12
5.5
 22
12.3047650790543
 32
0.0
 13
5.5
 23
12.3047650790543
 33
0.0
  0
MTEXT
  5
E30
330
E27
100
AcDbEntity
  8
lightMask-large-lower
 62
     0
100
AcDbMText
 10
15.0
 20
12.3047650790543
 30
0.0
 40
0.18
 41
0.0
 46
0.0
 71
     5
 72
     1
  1
\A1;19.0000
 73
     1
 44
1.0
  0
POINT
  5
E31
330
E27
100
AcDbEntity
  8
Defpoints
 62
     0
100
AcDbPoint
 10
24.5
 20
8.64700738823069
 30
0.0
  0
POINT
  5
E32
330
E27
100
AcDbEntity
  8
Defpoints
 62
     0
100
AcDbPoint
 10
5.5
 20
8.64700738823069
 30
0.0
  0
POINT
  5
E33
330
E27
100
AcDbEntity
  8
Defpoints
 62
     0
100
AcDbPoint
 10
5.5
 20
12.3047650790543
 30
0.0
  0
ENDBLK
  5
E29
330
E27
100
AcDbEntity
  8
0
100
AcDbBlockEnd
  0
BLOCK
  5
104C
330
104B
100
AcDbEntity
  8
0
100
AcDbBlockBegin
  2
*D16
 70
     1
 10
0.0
 20
0.0
 30
0.0
  3
*D16
  1

  0
LINE
  5
104E
330
104B
100
AcDbEntity
  8
pixel-electrodes-small-lower
 62
     0
370
    -2
100
AcDbLine
 10
13.41248795372267
 20
6.500046414355211
 30
0.0
 11
18.74800625542385
 21
6.500046414355211
 31
0.0
  0
LINE
  5
104F
330
104B
100
AcDbEntity
  8
pixel-electrodes-small-lower
 62
     0
370
    -2
100
AcDbLine
 10
12.76247590744589
 20
11.10004641435512
 30
0.0
 11
18.74800625542385
 21
11.10004641435512
 31
0.0
  0
LINE
  5
1050
330
104B
100
AcDbEntity
  8
pixel-electrodes-small-lower
 62
     0
370
    -2
100
AcDbLine
 10
18.56800625542385
 20
6.680046414355211
 30
0.0
 11
18.56800625542385
 21
8.618143276565261
 31
0.0
  0
LINE
  5
1051
330
104B
100
AcDbEntity
  8
pixel-electrodes-small-lower
 62
     0
370
    -2
100
AcDbLine
 10
18.56800625542385
 20
10.92004641435512
 30
0.0
 11
18.56800625542385
 21
8.981949552145069
 31
0.0
  0
SOLID
  5
1052
330
104B
100
AcDbEntity
  8
pixel-electrodes-small-lower
 62
     0
100
AcDbTrace
 10
18.53800625542385
 20
6.680046414355211
 30
0.0
 11
18.59800625542385
 21
6.680046414355211
 31
0.0
 12
18.56800625542385
 22
6.500046414355211
 32
0.0
 13
18.56800625542385
 23
6.500046414355211
 33
0.0
  0
SOLID
  5
1053
330
104B
100
AcDbEntity
  8
pixel-electrodes-small-lower
 62
     0
100
AcDbTrace
 10
18.59800625542385
 20
10.92004641435512
 30
0.0
 11
18.53800625542385
 21
10.92004641435512
 31
0.0
 12
18.56800625542385
 22
11.10004641435512
 32
0.0
 13
18.56800625542385
 23
11.10004641435512
 33
0.0
  0
MTEXT
  5
1054
330
104B
100
AcDbEntity
  8
pixel-electrodes-small-lower
 62
     0
100
AcDbMText
 10
18.56800625542385
 20
8.800046414355163
 30
0.0
 40
0.18
 41
0.0
 46
0.0
 71
     5
 72
     1
  1
\A1;4.6000
 73
     1
 44
1.0
  0
POINT
  5
1055
330
104B
100
AcDbEntity
  8
Defpoints
 62
     0
100
AcDbPoint
 10
13.34998795372267
 20
6.500046414355211
 30
0.0
  0
POINT
  5
1056
330
104B
100
AcDbEntity
  8
Defpoints
 62
     0
100
AcDbPoint
 10
12.69997590744589
 20
11.10004641435512
 30
0.0
  0
POINT
  5
1057
330
104B
100
AcDbEntity
  8
Defpoints
 62
     0
100
AcDbPoint
 10
18.56800625542385
 20
11.10004641435512
 30
0.0
  0
ENDBLK
  5
104D
330
104B
100
AcDbEntity
  8
0
100
AcDbBlockEnd
  0
BLOCK
  5
105C
330
105B
100
AcDbEntity
  8
0
100
AcDbBlockBegin
  2
*D17
 70
     1
 10
0.0
 20
0.0
 30
0.0
  3
*D17
  1

  0
LINE
  5
105E
330
105B
100
AcDbEntity
  8
pixel-electrodes-small-lower
 62
     0
370
    -2
100
AcDbLine
 10
17.7999759074446
 20
8.862546414355092
 30
0.0
 11
17.7999759074446
 21
10.07833938246928
 31
0.0
  0
LINE
  5
105F
330
105B
100
AcDbEntity
  8
pixel-electrodes-small-lower
 62
     0
370
    -2
100
AcDbLine
 10
12.19997590744562
 20
8.862546414355241
 30
0.0
 11
12.19997590744562
 21
10.07833938246928
 31
0.0
  0
LINE
  5
1060
330
105B
100
AcDbEntity
  8
pixel-electrodes-small-lower
 62
     0
370
    -2
100
AcDbLine
 10
17.6199759074446
 20
9.898339382469282
 30
0.0
 11
15.46329787197444
 21
9.898339382469282
 31
0.0
  0
LINE
  5
1061
330
105B
100
AcDbEntity
  8
pixel-electrodes-small-lower
 62
     0
370
    -2
100
AcDbLine
 10
12.37997590744562
 20
9.898339382469282
 30
0.0
 11
14.53665394291578
 21
9.898339382469282
 31
0.0
  0
SOLID
  5
1062
330
105B
100
AcDbEntity
  8
pixel-electrodes-small-lower
 62
     0
100
AcDbTrace
 10
17.6199759074446
 20
9.868339382469283
 30
0.0
 11
17.6199759074446
 21
9.928339382469284
 31
0.0
 12
17.7999759074446
 22
9.898339382469282
 32
0.0
 13
17.7999759074446
 23
9.898339382469282
 33
0.0
  0
SOLID
  5
1063
330
105B
100
AcDbEntity
  8
pixel-electrodes-small-lower
 62
     0
100
AcDbTrace
 10
12.37997590744562
 20
9.928339382469284
 30
0.0
 11
12.37997590744562
 21
9.868339382469283
 31
0.0
 12
12.19997590744562
 22
9.898339382469282
 32
0.0
 13
12.19997590744562
 23
9.898339382469282
 33
0.0
  0
MTEXT
  5
1064
330
105B
100
AcDbEntity
  8
pixel-electrodes-small-lower
 62
     0
100
AcDbMText
 10
14.99997590744511
 20
9.898339382469282
 30
0.0
 40
0.18
 41
0.0
 46
0.0
 71
     5
 72
     1
  1
\A1;5.6000
 73
     1
 44
1.0
  0
POINT
  5
1065
330
105B
100
AcDbEntity
  8
Defpoints
 62
     0
100
AcDbPoint
 10
17.7999759074446
 20
8.800046414355092
 30
0.0
  0
POINT
  5
1066
330
105B
100
AcDbEntity
  8
Defpoints
 62
     0
100
AcDbPoint
 10
12.19997590744562
 20
8.800046414355241
 30
0.0
  0
POINT
  5
1067
330
105B
100
AcDbEntity
  8
Defpoints
 62
     0
100
AcDbPoint
 10
12.19997590744562
 20
9.898339382469282
 30
0.0
  0
ENDBLK
  5
105D
330
105B
100
AcDbEntity
  8
0
100
AcDbBlockEnd
  0
BLOCK
  5
1336
330
1335
100
AcDbEntity
  8
0
100
AcDbBlockBegin
  2
*D18
 70
     1
 10
0.0
 20
0.0
 30
0.0
  3
*D18
  1

  0
LINE
  5
1338
330
1335
100
AcDbEntity
  8
glassOutline
 62
     0
370
    -2
100
AcDbLine
 10
5.386599080555422
 20
21.26243486565386
 30
0.0
 11
5.386599080555422
 21
24.78701048691745
 31
0.0
  0
LINE
  5
1339
330
1335
100
AcDbEntity
  8
glassOutline
 62
     0
370
    -2
100
AcDbLine
 10
5.502993016049998
 20
21.4154926117684
 30
0.0
 11
5.502993016049998
 21
24.78701048691745
 31
0.0
  0
LINE
  5
133A
330
1335
100
AcDbEntity
  8
glassOutline
 62
     0
370
    -2
100
AcDbLine
 10
5.682993016049996
 20
24.60701048691745
 30
0.0
 11
5.862993016049996
 21
24.60701048691745
 31
0.0
  0
LINE
  5
133B
330
1335
100
AcDbEntity
  8
glassOutline
 62
     0
370
    -2
100
AcDbLine
 10
5.206599080555422
 20
24.60701048691745
 30
0.0
 11
5.026599080555423
 21
24.60701048691745
 31
0.0
  0
SOLID
  5
133C
330
1335
100
AcDbEntity
  8
glassOutline
 62
     0
100
AcDbTrace
 10
5.206599080555422
 20
24.57701048691745
 30
0.0
 11
5.206599080555422
 21
24.63701048691745
 31
0.0
 12
5.386599080555422
 22
24.60701048691745
 32
0.0
 13
5.386599080555422
 23
24.60701048691745
 33
0.0
  0
SOLID
  5
133D
330
1335
100
AcDbEntity
  8
glassOutline
 62
     0
100
AcDbTrace
 10
5.682993016049996
 20
24.63701048691745
 30
0.0
 11
5.682993016049996
 21
24.57701048691745
 31
0.0
 12
5.502993016049998
 22
24.60701048691745
 32
0.0
 13
5.502993016049998
 23
24.60701048691745
 33
0.0
  0
MTEXT
  5
133E
330
1335
100
AcDbEntity
  8
glassOutline
 62
     0
100
AcDbMText
 10
6.326253589037718
 20
24.60701048691745
 30
0.0
 40
0.18
 41
0.0
 46
0.0
 71
     5
 72
     1
  1
\A1;0.1164
 73
     1
 44
1.0
  0
POINT
  5
133F
330
1335
100
AcDbEntity
  8
Defpoints
 62
     0
100
AcDbPoint
 10
5.386599080555422
 20
21.19993486565386
 30
0.0
  0
POINT
  5
1340
330
1335
100
AcDbEntity
  8
Defpoints
 62
     0
100
AcDbPoint
 10
5.502993016049998
 20
21.3529926117684
 30
0.0
  0
POINT
  5
1341
330
1335
100
AcDbEntity
  8
Defpoints
 62
     0
100
AcDbPoint
 10
5.502993016049998
 20
24.60701048691745
 30
0.0
  0
ENDBLK
  5
1337
330
1335
100
AcDbEntity
  8
0
100
AcDbBlockEnd
  0
ENDSEC
  0
SECTION
  2
ENTITIES
  0
LWPOLYLINE
  5
2A8
330
1F
100
AcDbEntity
  8
encapsulation
100
AcDbPolyline
 90
        4
 70
     1
 43
0.0
 10
4.0
 20
4.000032910664231
 10
26.0
 20
4.000032910664231
 10
26.0
 20
26.00003291066423
 10
4.0
 20
26.00003291066423
  0
LWPOLYLINE
  5
2AA
330
1F
100
AcDbEntity
  8
glassOutline
100
AcDbPolyline
 90
        4
 70
     1
 43
0.0
 10
0.0
 20
0.0
 10
30.0
 20
0.0
 10
30.0
 20
29.99999999999909
 10
0.0
 20
29.99999999999909
  0
CIRCLE
  5
309
330
1F
100
AcDbEntity
  8
pinPlacements
100
AcDbCircle
 10
13.73000000000093
 20
2.540000000003181
 30
0.0
 40
0.9
  0
CIRCLE
  5
30A
330
1F
100
AcDbEntity
  8
pinPlacements
100
AcDbCircle
 10
16.27000000000089
 20
2.540000000003181
 30
0.0
 40
0.9
  0
CIRCLE
  5
312
330
1F
100
AcDbEntity
  8
pinPlacements
100
AcDbCircle
 10
8.650000000000581
 20
2.539999999998634
 30
0.0
 40
0.9
  0
CIRCLE
  5
313
330
1F
100
AcDbEntity
  8
pinPlacements
100
AcDbCircle
 10
11.19000000000054
 20
2.539999999999999
 30
0.0
 40
0.9
  0
CIRCLE
  5
344
330
1F
100
AcDbEntity
  8
pinPlacements
100
AcDbCircle
 10
21.34999999999926
 20
2.539999999997629
 30
0.0
 40
0.9
  0
CIRCLE
  5
345
330
1F
100
AcDbEntity
  8
pinPlacements
100
AcDbCircle
 10
18.8099999999993
 20
2.539999999999396
 30
0.0
 40
0.9
  0
LWPOLYLINE
  5
5A3
330
1F
100
AcDbEntity
  8
active-layer-mask
100
AcDbPolyline
 90
        8
 70
     1
 43
0.0
 10
24.89997610328149
 20
12.0470028123802
 10
5.099976852158686
 20
12.0470028123802
 42
0.414213784053636
 10
4.59997685215883
 20
11.54700243394787
 10
4.599981241966872
 20
5.747011585652039
 42
0.4142133406925887
 10
5.099981241966731
 20
5.247011964084365
 10
24.89998064648979
 20
5.247011964084367
 42
0.4142137918001833
 10
25.39998064648964
 20
5.747012355740872
 10
25.39997610328132
 20
11.5470032040367
 42
0.4142133329460441
  0
LWPOLYLINE
  5
5CA
330
1F
100
AcDbEntity
  8
active-layer-mask
100
AcDbPolyline
 90
        8
 70
     1
 43
0.0
 10
24.89997610328149
 20
17.95306300894826
 10
5.099976852158686
 20
17.95306300894826
 42
-0.414213784053636
 10
4.59997685215883
 20
18.45306338738059
 10
4.599981241966872
 20
24.25305423567643
 42
-0.4142133406925887
 10
5.099981241966731
 20
24.7530538572441
 10
24.89998064648979
 20
24.7530538572441
 42
-0.4142137918001833
 10
25.39998064648964
 20
24.25305346558759
 10
25.39997610328132
 20
18.45306261729176
 42
-0.4142133329460441
  0
LINE
  5
681
330
1F
100
AcDbEntity
  8
TC-etch-lines-laser
100
AcDbLine
 10
30.0
 20
29.50001871999221
 30
0.0
 11
0.0000000000000036
 21
29.50001871999361
 31
0.0
1001
GENIUS_GENREC_14
1002
{
1000
PYDIR
1011
12.82750000000129
1021
29.50001871999301
1031
0.0
1002
}
1002
{
1000
PXDIR
1011
17.54000000000145
1021
27.46001871999044
1031
0.0
1002
}
1002
{
1000
PORI
1011
12.46000000000154
1021
27.46001871999068
1031
0.0
1002
}
1002
{
1000
PINS
1011
12.46000000000154
1021
27.46001871999068
1031
0.0
1002
}
1002
{
1000
HVAL
1000
1.6
1002
}
1002
{
1000
H
1070
     2
1002
}
1002
{
1000
WVAL
1000
4.14
1002
}
1002
{
1000
W
1070
     2
1002
}
1002
{
1000
C
1070
     1
1002
}
1001
GENIUS_GENODEF_13
1002
{
1000
HIER
1070
     0
1002
}
1002
{
1000
MANEDIT
1070
     0
1002
}
1002
{
1000
NOSEL
1070
     0
1002
}
1002
{
1000
BEHIND
1070
     0
1002
}
1002
{
1000
OTHER
1070
     0
1002
}
1002
{
1000
REACTOR
1002
}
1001
GENIUS_GENOBJ-N-REC_13
1002
{
1000
OWNER
1000
GEN
1002
}
  0
LINE
  5
688
330
1F
100
AcDbEntity
  8
TC-etch-lines-laser
100
AcDbLine
 10
29.99999999999999
 20
0.4999812800068675
 30
0.0
 11
0.0000000000000036
 21
0.4999812800068675
 31
0.0
1001
GENIUS_GENREC_14
1002
{
1000
PYDIR
1011
12.8275000000006
1021
0.4999812800068675
1031
0.0
1002
}
1002
{
1000
PXDIR
1011
17.54000000000087
1021
2.539981280009214
1031
0.0
1002
}
1002
{
1000
PORI
1011
12.46000000000095
1021
2.539981280009214
1031
0.0
1002
}
1002
{
1000
PINS
1011
12.46000000000095
1021
2.539981280009214
1031
0.0
1002
}
1002
{
1000
HVAL
1000
1.6
1002
}
1002
{
1000
H
1070
     2
1002
}
1002
{
1000
WVAL
1000
4.14
1002
}
1002
{
1000
W
1070
     2
1002
}
1002
{
1000
C
1070
     1
1002
}
1001
GENIUS_GENODEF_13
1002
{
1000
HIER
1070
     0
1002
}
1002
{
1000
MANEDIT
1070
     0
1002
}
1002
{
1000
NOSEL
1070
     0
1002
}
1002
{
1000
BEHIND
1070
     0
1002
}
1002
{
1000
OTHER
1070
     0
1002
}
1002
{
1000
REACTOR
1002
}
1001
GENIUS_GENOBJ-N-REC_13
1002
{
1000
OWNER
1000
GEN
1002
}
  0
CIRCLE
  5
788
330
1F
100
AcDbEntity
  8
pinPlacements
100
AcDbCircle
 10
23.88999999999923
 20
2.539999999995862
 30
0.0
 40
0.9
  0
CIRCLE
  5
789
330
1F
100
AcDbEntity
  8
pinPlacements
100
AcDbCircle
 10
26.42999999999919
 20
2.539999999994095
 30
0.0
 40
0.9
  0
CIRCLE
  5
78E
330
1F
100
AcDbEntity
  8
pinPlacements
100
AcDbCircle
 10
6.110000000000624
 20
2.539999999997271
 30
0.0
 40
0.9
  0
CIRCLE
  5
78F
330
1F
100
AcDbEntity
  8
pinPlacements
100
AcDbCircle
 10
3.570000000000665
 20
2.539999999995905
 30
0.0
 40
0.9
  0
LINE
  5
7A8
330
1F
100
AcDbEntity
  8
TC-electrode-small
100
AcDbLine
 10
7.014878854670138
 20
1.24998128000676
 30
0.0
 11
7.014878854670655
 21
3.563122481125303
 31
0.0
  0
LINE
  5
7A9
330
1F
100
AcDbEntity
  8
TC-electrode-small
100
AcDbLine
 10
1.249808368120623
 20
0.7499783736401274
 30
0.0
 11
6.514878854670138
 21
0.749981280006872
 31
0.0
  0
LINE
  5
7AD
330
1F
100
AcDbEntity
  8
TC-electrode-small
100
AcDbLine
 10
3.999964187758241
 20
16.25003292040196
 30
0.0
 11
25.9999655371689
 21
16.25003292040196
 31
0.0
  0
LINE
  5
7B3
330
1F
100
AcDbEntity
  8
TC-electrode-small
100
AcDbLine
 10
25.9999655378152
 20
13.75003292040196
 30
0.0
 11
3.999986277075919
 21
13.75003292040196
 31
0.0
  0
LINE
  5
7B4
330
1F
100
AcDbEntity
  8
TC-electrode-small
100
AcDbLine
 10
3.499986277100009
 20
13.25002801241852
 30
0.0
 11
3.500067937048656
 21
4.930934267761305
 31
0.0
  0
LINE
  5
7B6
330
1F
100
AcDbEntity
  8
TC-electrode-small
100
AcDbLine
 10
0.7498080921165121
 20
1.249977716144412
 30
0.0
 11
0.7498077257182448
 21
1.528609425743218
 31
0.0
  0
LINE
  5
7BE
330
1F
100
AcDbEntity
  8
TC-electrode-small
100
AcDbLine
 10
3.92964852114474
 20
4.435922907459405
 30
0.0
 11
6.585298270550481
 21
4.058138749410752
 31
0.0
  0
ARC
  5
7C5
330
1F
100
AcDbEntity
  8
TC-electrode-small
100
AcDbCircle
 10
4.000067937024568
 20
4.930939175744743
 30
0.0
 40
0.5
100
AcDbArc
 50
180.0005624134739
 51
261.9036112781499
  0
ARC
  5
7C6
330
1F
100
AcDbEntity
  8
TC-electrode-small
100
AcDbCircle
 10
6.514878854670655
 20
3.563122481125413
 30
0.0
 40
0.5000000000000002
100
AcDbArc
 50
0.0
 51
81.90361127814984
  0
ARC
  5
7E2
330
1F
100
AcDbEntity
  8
TC-electrode-small
100
AcDbCircle
 10
6.514878854670138
 20
1.249981280006872
 30
0.0
 40
0.5000000000000001
100
AcDbArc
 50
270.0000000000001
 51
359.9999999999872
  0
LINE
  5
7EC
330
1F
100
AcDbEntity
  8
TC-electrode-small
100
AcDbLine
 10
28.75013796104733
 20
0.7499812800068727
 30
0.0
 11
23.48507296022098
 21
0.7499812800068718
 31
0.0
  0
ARC
  5
7ED
330
1F
100
AcDbEntity
  8
TC-electrode-small
100
AcDbCircle
 10
23.48507296022098
 20
1.249981280006872
 30
0.0
 40
0.5000000000000001
100
AcDbArc
 50
180.0000000000128
 51
270.0
  0
LINE
  5
7EE
330
1F
100
AcDbEntity
  8
TC-electrode-small
100
AcDbLine
 10
22.98507296022098
 20
1.24998128000676
 30
0.0
 11
22.98507296022046
 21
3.563122481125303
 31
0.0
  0
ARC
  5
7EF
330
1F
100
AcDbEntity
  8
TC-electrode-small
100
AcDbCircle
 10
23.48507296022046
 20
3.563122481125413
 30
0.0
 40
0.5000000000000002
100
AcDbArc
 50
98.09638872184999
 51
180.0
  0
LINE
  5
7F0
330
1F
100
AcDbEntity
  8
TC-electrode-small
100
AcDbLine
 10
26.07030329374638
 20
4.435922907459405
 30
0.0
 11
23.41465354434064
 21
4.058138749410752
 31
0.0
  0
ARC
  5
7F1
330
1F
100
AcDbEntity
  8
TC-electrode-small
100
AcDbCircle
 10
25.99988387786655
 20
4.930939175744743
 30
0.0
 40
0.5
100
AcDbArc
 50
278.09638872185
 51
359.9994375865261
  0
LINE
  5
7F2
330
1F
100
AcDbEntity
  8
TC-electrode-small
100
AcDbLine
 10
26.49996553779111
 20
13.25002801241852
 30
0.0
 11
26.49988387784246
 21
4.930934267761305
 31
0.0
  0
LINE
  5
7F3
330
1F
100
AcDbEntity
  8
TC-electrode-small
100
AcDbLine
 10
29.25013796104671
 20
1.24998049303418
 30
0.0
 11
29.25013796104671
 21
28.75001950696491
 31
0.0
  0
ARC
  5
80D
330
1F
100
AcDbEntity
  8
TC-electrode-small
100
AcDbCircle
 10
1.24980809211608
 20
1.24997837364005
 30
0.0
 40
0.5
100
AcDbArc
 50
180.0000753434502
 51
270.0000316277909
  0
ARC
  5
80E
330
1F
100
AcDbEntity
  8
TC-electrode-small
100
AcDbCircle
 10
1.030000000000707
 20
2.539999999994542
 30
0.0
 40
0.5350000000000003
100
AcDbArc
 50
282.2615471109173
 51
77.73860357598308
  0
LINE
  5
80F
330
1F
100
AcDbEntity
  8
TC-electrode-small
100
AcDbLine
 10
0.7498050657796519
 20
3.551389837341573
 30
0.0
 11
0.7497917638804358
 21
28.75001950696491
 31
0.0
  0
ARC
  5
810
330
1F
100
AcDbEntity
  8
TC-electrode-small
100
AcDbCircle
 10
1.249805065779219
 20
3.551390494837213
 30
0.0
 40
0.5
100
AcDbArc
 50
180.0000753434502
 51
257.7386035759831
  0
ARC
  5
811
330
1F
100
AcDbEntity
  8
TC-electrode-small
100
AcDbCircle
 10
1.249807725717811
 20
1.528610083238854
 30
0.0
 40
0.5
100
AcDbArc
 50
102.2615471109172
 51
180.0000753434502
  0
ARC
  5
812
330
1F
100
AcDbEntity
  8
TC-electrode-small
100
AcDbCircle
 10
28.75013796104733
 20
1.249981280006873
 30
0.0
 40
0.5
100
AcDbArc
 50
270.0
 51
359.9999098195724
  0
LINE
  5
813
330
1F
100
AcDbEntity
  8
TC-electrode-small
100
AcDbLine
 10
26.49996553714481
 20
16.7500378283854
 30
0.0
 11
26.49988387784246
 21
25.06906573223779
 31
0.0
  0
ARC
  5
814
330
1F
100
AcDbEntity
  8
TC-electrode-small
100
AcDbCircle
 10
25.99988387786655
 20
25.06906082425435
 30
0.0
 40
0.5
100
AcDbArc
 50
0.0005624134738818
 51
81.90361127815
  0
LINE
  5
815
330
1F
100
AcDbEntity
  8
TC-electrode-small
100
AcDbLine
 10
26.07030329374638
 20
25.56407709253968
 30
0.0
 11
23.41465354434064
 21
25.94186125058834
 31
0.0
  0
ARC
  5
816
330
1F
100
AcDbEntity
  8
TC-electrode-small
100
AcDbCircle
 10
23.48507296022046
 20
26.43687751887368
 30
0.0
 40
0.5000000000000002
100
AcDbArc
 50
180.0
 51
261.90361127815
  0
LINE
  5
817
330
1F
100
AcDbEntity
  8
TC-electrode-small
100
AcDbLine
 10
22.98507296022098
 20
28.75001871999233
 30
0.0
 11
22.98507296022046
 21
26.43687751887379
 31
0.0
  0
ARC
  5
818
330
1F
100
AcDbEntity
  8
TC-electrode-small
100
AcDbCircle
 10
23.48507296022098
 20
28.75001871999222
 30
0.0
 40
0.5000000000000001
100
AcDbArc
 50
90.0
 51
179.9999999999874
  0
LINE
  5
819
330
1F
100
AcDbEntity
  8
TC-electrode-small
100
AcDbLine
 10
28.75013796104733
 20
29.25001871999222
 30
0.0
 11
23.48507296022098
 21
29.25001871999222
 31
0.0
  0
ARC
  5
81A
330
1F
100
AcDbEntity
  8
TC-electrode-small
100
AcDbCircle
 10
28.75013796104733
 20
28.75001871999222
 30
0.0
 40
0.5
100
AcDbArc
 50
0.0000901804276252
 51
90.0
  0
ARC
  5
81B
330
1F
100
AcDbEntity
  8
TC-electrode-small
100
AcDbCircle
 10
1.249791763879815
 20
28.75001871999222
 30
0.0
 40
0.5
100
AcDbArc
 50
90.0
 51
179.9999098195724
  0
LINE
  5
81C
330
1F
100
AcDbEntity
  8
TC-electrode-small
100
AcDbLine
 10
1.249791763879815
 20
29.25001871999222
 30
0.0
 11
6.514856764706168
 21
29.25001871999222
 31
0.0
  0
ARC
  5
81D
330
1F
100
AcDbEntity
  8
TC-electrode-small
100
AcDbCircle
 10
6.514856764706168
 20
28.75001871999222
 30
0.0
 40
0.5000000000000001
100
AcDbArc
 50
0.0000000000126204
 51
90.0
  0
LINE
  5
81E
330
1F
100
AcDbEntity
  8
TC-electrode-small
100
AcDbLine
 10
7.014856764706168
 20
28.75001871999233
 30
0.0
 11
7.014856764706686
 21
26.43687751887379
 31
0.0
  0
ARC
  5
81F
330
1F
100
AcDbEntity
  8
TC-electrode-small
100
AcDbCircle
 10
6.514856764706686
 20
26.43687751887368
 30
0.0
 40
0.5000000000000002
100
AcDbArc
 50
278.09638872185
 51
0.0
  0
LINE
  5
820
330
1F
100
AcDbEntity
  8
TC-electrode-small
100
AcDbLine
 10
3.929626431180772
 20
25.56407709253968
 30
0.0
 11
6.585276180586512
 21
25.94186125058834
 31
0.0
  0
ARC
  5
821
330
1F
100
AcDbEntity
  8
TC-electrode-small
100
AcDbCircle
 10
4.000045847060597
 20
25.06906082425435
 30
0.0
 40
0.5
100
AcDbArc
 50
98.09638872184999
 51
179.9994375865261
  0
LINE
  5
822
330
1F
100
AcDbEntity
  8
TC-electrode-small
100
AcDbLine
 10
3.499964187782329
 20
16.7500378283854
 30
0.0
 11
3.500045847084685
 21
25.06906573223779
 31
0.0
  0
LINE
  5
824
330
1F
100
AcDbEntity
  8
TC-etch-lines-laser
100
AcDbLine
 10
12.46005506222115
 20
25.00001871999304
 30
0.0
 11
12.46005506222115
 21
29.99999999999909
 31
0.0
  0
LINE
  5
825
330
1F
100
AcDbEntity
  8
TC-etch-lines-laser
100
AcDbLine
 10
17.54001835406823
 20
25.00001871999279
 30
0.0
 11
17.54001835406823
 21
29.99999999999909
 31
0.0
  0
LINE
  5
826
330
1F
100
AcDbEntity
  8
TC-etch-lines-laser
100
AcDbLine
 10
22.6199816457403
 20
25.00001871999256
 30
0.0
 11
22.6199816457403
 21
29.99999999999909
 31
0.0
  0
ARC
  5
969
330
1F
100
AcDbEntity
  8
TC-electrode-small
100
AcDbCircle
 10
3.999986277075922
 20
13.25003292040196
 30
0.0
 40
0.5000000000000001
100
AcDbArc
 50
90.0
 51
180.0005624134739
  0
ARC
  5
96A
330
1F
100
AcDbEntity
  8
TC-electrode-small
100
AcDbCircle
 10
25.9999655378152
 20
13.25003292040196
 30
0.0
 40
0.5
100
AcDbArc
 50
359.9994375865261
 51
90.0
  0
ARC
  5
96B
330
1F
100
AcDbEntity
  8
TC-electrode-small
100
AcDbCircle
 10
25.9999655371689
 20
16.75003292040196
 30
0.0
 40
0.5000000000000001
100
AcDbArc
 50
270.0
 51
0.0005624134738727
  0
ARC
  5
96C
330
1F
100
AcDbEntity
  8
TC-electrode-small
100
AcDbCircle
 10
3.999964187758241
 20
16.75003292040196
 30
0.0
 40
0.5000000000000001
100
AcDbArc
 50
179.9994375865261
 51
270.0
  0
LINE
  5
C80
330
1F
100
AcDbEntity
  8
TC-etch-lines-laser
100
AcDbLine
 10
22.8699816457403
 20
25.25001871999254
 30
0.0
 11
7.1300183542597
 21
25.25001871999327
 31
0.0
  0
LINE
  5
CAA
330
1F
100
AcDbEntity
  8
TC-etch-lines-laser
100
AcDbLine
 10
22.8699816457403
 20
4.74998128000655
 30
0.0
 11
7.130018354259699
 21
4.749981280005822
 31
0.0
  0
LINE
  5
CAB
330
1F
100
AcDbEntity
  8
TC-etch-lines-laser
100
AcDbLine
 10
12.46005506222115
 20
4.999981280006072
 30
0.0
 11
12.46005506222115
 21
0.0000000000000071
 31
0.0
  0
LINE
  5
CAD
330
1F
100
AcDbEntity
  8
TC-etch-lines-laser
100
AcDbLine
 10
17.54001835406823
 20
4.999981280006302
 30
0.0
 11
17.54001835406823
 21
0.0000000000000036
 31
0.0
  0
LINE
  5
CAE
330
1F
100
AcDbEntity
  8
TC-etch-lines-laser
100
AcDbLine
 10
22.6199816457403
 20
4.99998128000654
 30
0.0
 11
22.61998164574029
 21
0.0000000000000036
 31
0.0
  0
CIRCLE
  5
CB6
330
1F
100
AcDbEntity
  8
pinPlacements
100
AcDbCircle
 10
3.570000000000665
 20
27.46000000000318
 30
0.0
 40
0.9
  0
CIRCLE
  5
CB7
330
1F
100
AcDbEntity
  8
pinPlacements
100
AcDbCircle
 10
6.110000000000624
 20
27.46000000000182
 30
0.0
 40
0.9
  0
CIRCLE
  5
CB8
330
1F
100
AcDbEntity
  8
pinPlacements
100
AcDbCircle
 10
8.650000000000581
 20
27.46000000000047
 30
0.0
 40
0.9
  0
CIRCLE
  5
CB9
330
1F
100
AcDbEntity
  8
pinPlacements
100
AcDbCircle
 10
11.19000000000054
 20
27.45999999999909
 30
0.0
 40
0.9
  0
CIRCLE
  5
CBA
330
1F
100
AcDbEntity
  8
pinPlacements
100
AcDbCircle
 10
13.73000000000093
 20
27.45999999999591
 30
0.0
 40
0.9
  0
CIRCLE
  5
CBB
330
1F
100
AcDbEntity
  8
pinPlacements
100
AcDbCircle
 10
16.27000000000089
 20
27.45999999999591
 30
0.0
 40
0.9
  0
CIRCLE
  5
CBC
330
1F
100
AcDbEntity
  8
pinPlacements
100
AcDbCircle
 10
18.8099999999993
 20
27.4599999999997
 30
0.0
 40
0.9
  0
CIRCLE
  5
CBD
330
1F
100
AcDbEntity
  8
pinPlacements
100
AcDbCircle
 10
21.34999999999926
 20
27.46000000000146
 30
0.0
 40
0.9
  0
CIRCLE
  5
CBE
330
1F
100
AcDbEntity
  8
pinPlacements
100
AcDbCircle
 10
23.88999999999923
 20
27.46000000000323
 30
0.0
 40
0.9
  0
CIRCLE
  5
CBF
330
1F
100
AcDbEntity
  8
pinPlacements
100
AcDbCircle
 10
26.42999999999919
 20
27.460000000005
 30
0.0
 40
0.9
  0
LWPOLYLINE
  5
CF1
330
1F
100
AcDbEntity
  8
TC-etch-lines-chemical
100
AcDbPolyline
 90
        8
 70
     1
 43
0.0
 10
23.48999999999919
 20
28.36000000000476
 10
26.82999999999915
 20
28.36000000000503
 42
-0.4142135623731186
 10
27.32999999999919
 20
27.86000000000503
 10
27.32999999999919
 20
27.06000000000503
 42
-0.414213562373072
 10
26.82999999999923
 20
26.56000000000503
 10
23.48999999999927
 20
26.56000000000477
 42
-0.4142135623731186
 10
22.98999999999923
 20
27.06000000000476
 10
22.98999999999923
 20
27.86000000000476
 42
-0.4142135623730718
  0
LWPOLYLINE
  5
D18
330
1F
100
AcDbEntity
  8
TC-etch-lines-chemical
100
AcDbPolyline
 90
        8
 70
     1
 43
0.0
 10
18.40999999999926
 20
28.36000000000123
 10
21.74999999999923
 20
28.36000000000149
 42
-0.4142135623731186
 10
22.24999999999926
 20
27.86000000000149
 10
22.24999999999926
 20
27.06000000000149
 42
-0.414213562373072
 10
21.7499999999993
 20
26.56000000000149
 10
18.40999999999934
 20
26.56000000000123
 42
-0.4142135623731186
 10
17.9099999999993
 20
27.06000000000123
 10
17.9099999999993
 20
27.86000000000123
 42
-0.4142135623730718
  0
LWPOLYLINE
  5
D19
330
1F
100
AcDbEntity
  8
TC-etch-lines-chemical
100
AcDbPolyline
 90
        8
 70
     1
 43
0.0
 10
13.33000000000089
 20
28.35999999999656
 10
16.67000000000085
 20
28.35999999999682
 42
-0.4142135623731186
 10
17.17000000000089
 20
27.85999999999682
 10
17.17000000000089
 20
27.05999999999683
 42
-0.414213562373072
 10
16.67000000000093
 20
26.55999999999683
 10
13.33000000000097
 20
26.55999999999656
 42
-0.4142135623731186
 10
12.83000000000093
 20
27.05999999999656
 10
12.83000000000093
 20
27.85999999999656
 42
-0.4142135623730718
  0
LWPOLYLINE
  5
D1A
330
1F
100
AcDbEntity
  8
TC-etch-lines-chemical
100
AcDbPolyline
 90
        8
 70
     1
 43
0.0
 10
8.250000000000543
 20
28.36000000000042
 10
11.59000000000051
 20
28.36000000000069
 42
-0.4142135623731186
 10
12.09000000000054
 20
27.86000000000069
 10
12.09000000000054
 20
27.06000000000069
 42
-0.414213562373072
 10
11.59000000000058
 20
26.56000000000069
 10
8.250000000000621
 20
26.56000000000043
 42
-0.4142135623731186
 10
7.750000000000581
 20
27.06000000000043
 10
7.750000000000581
 20
27.86000000000042
 42
-0.4142135623730718
  0
LWPOLYLINE
  5
D1B
330
1F
100
AcDbEntity
  8
TC-etch-lines-chemical
100
AcDbPolyline
 90
        8
 70
     1
 43
0.0
 10
3.170000000000626
 20
28.36000000000315
 10
6.510000000000591
 20
28.36000000000343
 42
-0.4142135623731186
 10
7.010000000000628
 20
27.86000000000342
 10
7.010000000000628
 20
27.06000000000342
 42
-0.414213562373072
 10
6.510000000000666
 20
26.56000000000342
 10
3.170000000000705
 20
26.56000000000315
 42
-0.4142135623731186
 10
2.670000000000666
 20
27.06000000000315
 10
2.670000000000666
 20
27.86000000000315
 42
-0.4142135623730718
  0
LWPOLYLINE
  5
D5A
330
1F
100
AcDbEntity
  8
TC-etch-lines-chemical
100
AcDbPolyline
 90
        8
 70
     1
 43
0.0
 10
1.0
 20
25.24999999999909
 10
29.0
 20
25.24999999999909
 42
-0.4142135623730951
 10
29.5
 20
24.74999999999909
 10
29.5
 20
5.25
 42
-0.4142135623730951
 10
29.0
 20
4.75
 10
1.0
 20
4.75
 42
-0.4142135623730951
 10
0.4999999999999999
 20
5.25
 10
0.5
 20
24.74999999999909
 42
-0.4142135623730951
  0
LWPOLYLINE
  5
D81
330
1F
100
AcDbEntity
  8
TC-etch-lines-chemical
100
AcDbPolyline
 90
        8
 70
     1
 43
0.0
 10
3.170000000000622
 20
1.639999999995949
 10
6.510000000000587
 20
1.639999999995679
 42
0.4142135623731186
 10
7.010000000000622
 20
2.13999999999568
 10
7.010000000000622
 20
2.939999999995677
 42
0.414213562373072
 10
6.510000000000661
 20
3.439999999995678
 10
3.170000000000701
 20
3.439999999995948
 42
0.4142135623731186
 10
2.670000000000662
 20
2.939999999995947
 10
2.670000000000662
 20
2.13999999999595
 42
0.4142135623730718
  0
LWPOLYLINE
  5
D82
330
1F
100
AcDbEntity
  8
TC-etch-lines-chemical
100
AcDbPolyline
 90
        8
 70
     1
 43
0.0
 10
8.25000000000054
 20
1.639999999998674
 10
11.5900000000005
 20
1.639999999998409
 42
0.4142135623731186
 10
12.09000000000054
 20
2.139999999998408
 10
12.09000000000054
 20
2.939999999998406
 42
0.414213562373072
 10
11.59000000000058
 20
3.439999999998406
 10
8.250000000000618
 20
3.439999999998673
 42
0.4142135623731186
 10
7.750000000000579
 20
2.939999999998672
 10
7.750000000000579
 20
2.139999999998674
 42
0.4142135623730718
  0
LWPOLYLINE
  5
D83
330
1F
100
AcDbEntity
  8
TC-etch-lines-chemical
100
AcDbPolyline
 90
        8
 70
     1
 43
0.0
 10
13.33000000000089
 20
1.64000000000254
 10
16.67000000000085
 20
1.64000000000227
 42
0.4142135623731186
 10
17.17000000000089
 20
2.14000000000227
 10
17.17000000000089
 20
2.940000000002267
 42
0.414213562373072
 10
16.67000000000093
 20
3.440000000002267
 10
13.33000000000097
 20
3.440000000002537
 42
0.4142135623731186
 10
12.83000000000093
 20
2.940000000002537
 10
12.83000000000093
 20
2.14000000000254
 42
0.4142135623730718
  0
LWPOLYLINE
  5
D84
330
1F
100
AcDbEntity
  8
TC-etch-lines-chemical
100
AcDbPolyline
 90
        8
 70
     1
 43
0.0
 10
18.40999999999926
 20
1.639999999997869
 10
21.74999999999922
 20
1.639999999997601
 42
0.4142135623731186
 10
22.24999999999926
 20
2.139999999997601
 10
22.24999999999926
 20
2.9399999999976
 42
0.414213562373072
 10
21.7499999999993
 20
3.4399999999976
 10
18.40999999999934
 20
3.439999999997866
 42
0.4142135623731186
 10
17.9099999999993
 20
2.939999999997866
 10
17.9099999999993
 20
2.139999999997868
 42
0.4142135623730718
  0
LWPOLYLINE
  5
D85
330
1F
100
AcDbEntity
  8
TC-etch-lines-chemical
100
AcDbPolyline
 90
        8
 70
     1
 43
0.0
 10
23.48999999999918
 20
1.63999999999433
 10
26.82999999999915
 20
1.639999999994063
 42
0.4142135623731186
 10
27.32999999999918
 20
2.139999999994063
 10
27.32999999999918
 20
2.939999999994061
 42
0.414213562373072
 10
26.82999999999922
 20
3.439999999994061
 10
23.48999999999926
 20
3.439999999994328
 42
0.4142135623731186
 10
22.98999999999922
 20
2.939999999994331
 10
22.98999999999922
 20
2.139999999994333
 42
0.4142135623730718
  0
MTEXT
  5
DF2
330
1F
100
AcDbEntity
  8
notes
100
AcDbMText
 10
32.26602794350336
 20
23.59362769191396
 30
0.0
 40
0.4
 41
55.30960304635124
 46
12.2590882178804
 71
     1
 72
     5
  3
{\fFreeMono|b0|i0|c0|p0;\Lsmall pixel light mask shape:\P\l- 5:4 aspect ratio\P- 0.5mm radius corner fillets\P- 20.0 mm^ 2 area\P- width is sqrt((20.0+0.5^ 2*(4-pi))*5/4)\P- height is width * 4/5\P\P\Llarge pixel light mask shape:\P\l-18:5 aspect ratio
  1
\P-0.5mm radius corner fillets\P-100.0 mm^ 2 area\P-width is sqrt((100.0+0.5^ 2*(4-pi))*18/5)\P-height is width * 5/18\P\P\Ldark areas:\P\l-large pixel = 115.6536 mm^ 2\P-small pixel = 027.3008 mm^ 2}
 73
     1
 44
1.0
1001
ACAD
1000
ACAD_MTEXT_DEFINED_HEIGHT_BEGIN
1070
    46
1040
12.2590882178804
1000
ACAD_MTEXT_DEFINED_HEIGHT_END
  0
LWPOLYLINE
  5
DF4
330
1F
100
AcDbEntity
  8
lightMask-small-upper
100
AcDbPolyline
 90
        8
 70
     1
 43
0.0
 10
5.386599080555422
 20
19.68923340414386
 10
5.386599080555422
 20
22.71063632716386
 42
-0.4142135623730951
 10
5.886599080555422
 20
23.21063632716386
 10
9.91335273433542
 20
23.21063632716386
 42
-0.4142135623730951
 10
10.41335273433542
 20
22.71063632716386
 10
10.41335273433542
 20
19.68923340414386
 42
-0.4142135623730951
 10
9.91335273433542
 20
19.18923340414386
 10
5.886599080555422
 20
19.18923340414386
 42
-0.4142135623730951
  0
LWPOLYLINE
  5
DF9
330
1F
100
AcDbEntity
  8
lightMask-small-upper
100
AcDbPolyline
 90
        8
 70
     1
 43
0.0
 10
12.48659908055533
 20
19.68923340414386
 10
12.48659908055533
 20
22.71063632716386
 42
-0.4142135623730951
 10
12.98659908055533
 20
23.21063632716386
 10
17.01335273433533
 20
23.21063632716386
 42
-0.4142135623730951
 10
17.51335273433532
 20
22.71063632716386
 10
17.51335273433532
 20
19.68923340414386
 42
-0.4142135623730951
 10
17.01335273433533
 20
19.18923340414386
 10
12.98659908055533
 20
19.18923340414386
 42
-0.4142135623730951
  0
LWPOLYLINE
  5
DFA
330
1F
100
AcDbEntity
  8
lightMask-small-upper
100
AcDbPolyline
 90
        8
 70
     1
 43
0.0
 10
19.58659908055524
 20
19.68923340414386
 10
19.58659908055524
 20
22.71063632716386
 42
-0.4142135623730951
 10
20.08659908055524
 20
23.21063632716386
 10
24.11335273433524
 20
23.21063632716386
 42
-0.4142135623730951
 10
24.61335273433524
 20
22.71063632716386
 10
24.61335273433524
 20
19.68923340414386
 42
-0.4142135623730951
 10
24.11335273433524
 20
19.18923340414386
 10
20.08659908055524
 20
19.18923340414386
 42
-0.4142135623730951
  0
LWPOLYLINE
  5
DFE
330
1F
100
AcDbEntity
  8
lightMask-small-lower
100
AcDbPolyline
 90
        8
 70
     1
 43
0.0
 10
5.386599080555421
 20
10.31076659585524
 10
5.386599080555419
 20
7.28936367283524
 42
0.4142135623730951
 10
5.886599080555419
 20
6.78936367283524
 10
9.91335273433542
 20
6.78936367283524
 42
0.4142135623730951
 10
10.41335273433542
 20
7.28936367283524
 10
10.41335273433542
 20
10.31076659585524
 42
0.4142135623730951
 10
9.91335273433542
 20
10.81076659585524
 10
5.886599080555421
 20
10.81076659585524
 42
0.4142135623730951
  0
LWPOLYLINE
  5
DFF
330
1F
100
AcDbEntity
  8
lightMask-small-lower
100
AcDbPolyline
 90
        8
 70
     1
 43
0.0
 10
12.48659908055533
 20
10.31076659585523
 10
12.48659908055533
 20
7.289363672835237
 42
0.4142135623730951
 10
12.98659908055533
 20
6.789363672835237
 10
17.01335273433532
 20
6.789363672835237
 42
0.4142135623730951
 10
17.51335273433532
 20
7.289363672835237
 10
17.51335273433532
 20
10.31076659585523
 42
0.4142135623730951
 10
17.01335273433532
 20
10.81076659585523
 10
12.98659908055533
 20
10.81076659585523
 42
0.4142135623730951
  0
LWPOLYLINE
  5
E00
330
1F
100
AcDbEntity
  8
lightMask-small-lower
100
AcDbPolyline
 90
        8
 70
     1
 43
0.0
 10
19.58659908055524
 20
10.31076659585523
 10
19.58659908055524
 20
7.289363672835231
 42
0.4142135623730951
 10
20.08659908055524
 20
6.789363672835231
 10
24.11335273433524
 20
6.789363672835231
 42
0.4142135623730951
 10
24.61335273433524
 20
7.289363672835231
 10
24.61335273433524
 20
10.31076659585523
 42
0.4142135623730951
 10
24.11335273433524
 20
10.81076659585523
 10
20.08659908055524
 20
10.81076659585523
 42
0.4142135623730951
  0
LWPOLYLINE
  5
E38
330
1F
100
AcDbEntity
  8
lightMask-large-lower
100
AcDbPolyline
 90
        8
 70
     1
 43
0.0
 10
5.502993016049998
 20
6.508949892690696
 10
5.50299301605
 20
10.78506488377068
 42
-0.4142135623730951
 10
6.00299301605
 20
11.28506488377068
 10
23.99700698395
 20
11.28506488377068
 42
-0.4142135623730951
 10
24.49700698395
 20
10.78506488377068
 10
24.49700698395
 20
6.508949892690696
 42
-0.4142135623730951
 10
23.99700698395
 20
6.008949892690696
 10
6.002993016049998
 20
6.008949892690696
 42
-0.4142135623730951
  0
LWPOLYLINE
  5
F07
330
1F
100
AcDbEntity
  8
lightMask-large-upper
100
AcDbPolyline
 90
        8
 70
     1
 43
0.0
 10
5.502993016049998
 20
23.49105010730839
 10
5.50299301605
 20
19.21493511622841
 42
0.4142135623730951
 10
6.00299301605
 20
18.71493511622841
 10
23.99700698395
 20
18.71493511622841
 42
0.4142135623730951
 10
24.49700698395
 20
19.21493511622841
 10
24.49700698395
 20
23.49105010730839
 42
0.4142135623730951
 10
23.99700698395
 20
23.99105010730839
 10
6.002993016049998
 20
23.99105010730839
 42
0.4142135623730951
  0
LWPOLYLINE
  5
1082
330
1F
100
AcDbEntity
  8
pixel-electrodes-small-lower
100
AcDbPolyline
 90
       22
 70
     1
 43
0.0
 10
9.91335273433542
 20
11.11076659585524
 10
5.886599080555421
 20
11.11076659585524
 42
0.414213562373095
 10
5.086599080555421
 20
10.31076659585524
 10
5.086599080555419
 20
7.289363672835241
 42
0.4142135623730951
 10
5.886599080555419
 20
6.489363672835241
 10
7.247610124442338
 20
6.489363672835241
 42
-0.4142135623730951
 10
7.747610124442338
 20
5.989363672835241
 10
7.747610124442338
 20
4.497027449841604
 10
7.747610124442172
 20
3.997026950798289
 10
7.747610124442784
 20
1.24998128000676
 42
0.4142135623730291
 10
8.247610124442783
 20
0.749981280006872
 10
11.59261012444207
 20
0.7499812800068684
 42
0.4142135623730673
 10
12.09261012444207
 20
1.249981280006819
 10
12.09261012444229
 20
3.497021431146801
 42
0.4142131419131951
 10
11.59261084221234
 20
3.997021431146336
 10
9.24761012444234
 20
3.997024797488915
 42
-0.4142142751649544
 10
8.74761012444382
 20
4.497026014300426
 10
8.747610124442349
 20
5.989363672834747
 42
-0.414213562373384
 10
9.247610124442349
 20
6.489363672835239
 10
9.91335273433542
 20
6.489363672835239
 42
0.4142135623730951
 10
10.71335273433542
 20
7.28936367283524
 10
10.71335273433542
 20
10.31076659585524
 42
0.4142135623730951
  0
LWPOLYLINE
  5
10EF
330
1F
100
AcDbEntity
  8
pixel-electrodes-small-lower
100
AcDbPolyline
 90
       24
 70
     1
 43
0.0
 10
17.01335273433532
 20
11.11076659585523
 10
12.98659908055533
 20
11.11076659585523
 42
0.4142135623730951
 10
12.18659908055533
 20
10.31076659585523
 10
12.18659908055533
 20
7.289363672835237
 42
0.414213562373095
 10
12.98659908055533
 20
6.489363672835236
 10
14.0
 20
6.489363672835236
 42
-0.4142135623730951
 10
14.5
 20
5.989363672835236
 10
14.5
 20
4.497017975244022
 42
-0.4142139828329387
 10
13.99999928223025
 20
3.997017975244538
 10
13.32750071776981
 20
3.997018940642782
 42
0.4142139828329471
 10
12.82750000000007
 20
3.497018940643283
 10
12.82750000000013
 20
1.249981280006853
 42
0.4142135623730868
 10
13.32750000000013
 20
0.7499812800068673
 10
16.67247498940674
 20
0.7499812800068675
 42
0.4142144401584364
 10
17.1724749894045
 20
1.249982778479711
 10
17.17246825515467
 20
3.497020439139738
 42
0.4142131050478809
 10
16.67246753738717
 20
3.99701894066638
 10
16.00000071776974
 20
3.997017975313708
 42
-0.4142139828329383
 10
15.5
 20
4.497017975313193
 10
15.5
 20
5.989363672835236
 42
-0.4142135623730951
 10
16.0
 20
6.489363672835236
 10
17.01335273433532
 20
6.489363672835236
 42
0.4142135623730951
 10
17.81335273433532
 20
7.289363672835237
 10
17.81335273433532
 20
10.31076659585523
 42
0.4142135623730951
  0
LWPOLYLINE
  5
1166
330
1F
100
AcDbEntity
  8
pixel-electrodes-small-lower
100
AcDbPolyline
 90
       22
 70
     1
 43
0.0
 10
20.0866222550715
 20
11.11076659585522
 10
24.11337590885149
 20
11.1107665958552
 42
-0.414213562373095
 10
24.91337590885149
 20
10.3107665958552
 10
24.91337590885148
 20
7.289363672835196
 42
-0.4142135623730951
 10
24.11337590885148
 20
6.489363672835199
 10
22.75236486496456
 20
6.489363672835206
 42
0.4142135623730951
 10
22.25236486496456
 20
5.989363672835209
 10
22.25236486496455
 20
4.497027449841571
 10
22.25236486496471
 20
3.997026950798258
 10
22.25236486496409
 20
1.249981280006728
 42
-0.4142135623730291
 10
21.75236486496409
 20
0.7499812800068419
 10
18.4073648649648
 20
0.7499812800068532
 42
-0.4142135623730673
 10
17.9073648649648
 20
1.249981280006805
 10
17.9073648649646
 20
3.497021431146788
 42
-0.4142131419131951
 10
18.40736414719455
 20
3.997021431146321
 10
20.75236486496455
 20
3.99702479748889
 42
0.4142142751649544
 10
21.25236486496307
 20
4.497026014300398
 10
21.25236486496455
 20
5.989363672834718
 42
0.414213562373384
 10
20.75236486496455
 20
6.489363672835214
 10
20.08662225507148
 20
6.489363672835217
 42
-0.4142135623730951
 10
19.28662225507148
 20
7.28936367283522
 10
19.2866222550715
 20
10.31076659585522
 42
-0.4142135623730951
  0
LWPOLYLINE
  5
118A
330
1F
100
AcDbEntity
  8
small-pixel-dark-area
100
AcDbPolyline
 90
       14
 70
     1
 43
0.0
 10
17.01335273433532
 20
11.11076659585523
 10
12.98659908055533
 20
11.11076659585523
 42
0.4142135623730951
 10
12.18659908055533
 20
10.31076659585523
 10
12.18659908055533
 20
7.289363672835237
 42
0.4142135623730949
 10
12.98659908055533
 20
6.489363672835236
 10
14.0
 20
6.489363672835236
 42
-0.4142135623730951
 10
14.5
 20
5.989363672835236
 10
14.5
 20
4.749981280006164
 10
15.5
 20
4.74998128000621
 10
15.5
 20
5.989363672835236
 42
-0.4142135623730951
 10
16.0
 20
6.489363672835236
 10
17.01335273433532
 20
6.489363672835236
 42
0.4142135623730951
 10
17.81335273433533
 20
7.289363672835237
 10
17.81335273433533
 20
10.31076659585523
 42
0.4142135623730951
  0
LWPOLYLINE
  5
11DC
330
1F
100
AcDbEntity
  8
pixel-electrodes-small-upper
100
AcDbPolyline
 90
       22
 70
     1
 43
0.0
 10
9.91335273433542
 20
18.88923340414385
 10
5.886599080555421
 20
18.88923340414385
 42
-0.414213562373095
 10
5.086599080555421
 20
19.68923340414385
 10
5.086599080555419
 20
22.71063632716385
 42
-0.4142135623730951
 10
5.886599080555419
 20
23.51063632716385
 10
7.247610124442338
 20
23.51063632716385
 42
0.4142135623730951
 10
7.747610124442338
 20
24.01063632716386
 10
7.747610124442338
 20
25.50297255015749
 10
7.747610124442172
 20
26.0029730492008
 10
7.747610124442784
 20
28.75001871999233
 42
-0.4142135623730291
 10
8.247610124442783
 20
29.25001871999222
 10
11.59261012444207
 20
29.25001871999222
 42
-0.4142135623730673
 10
12.09261012444207
 20
28.75001871999227
 10
12.09261012444229
 20
26.5029785688523
 42
-0.4142131419131951
 10
11.59261084221234
 20
26.00297856885275
 10
9.24761012444234
 20
26.00297520251019
 42
0.4142142751649544
 10
8.74761012444382
 20
25.50297398569866
 10
8.747610124442349
 20
24.01063632716434
 42
0.414213562373384
 10
9.247610124442349
 20
23.51063632716385
 10
9.91335273433542
 20
23.51063632716385
 42
-0.4142135623730951
 10
10.71335273433542
 20
22.71063632716385
 10
10.71335273433542
 20
19.68923340414385
 42
-0.4142135623730951
  0
LWPOLYLINE
  5
11DD
330
1F
100
AcDbEntity
  8
pixel-electrodes-small-upper
100
AcDbPolyline
 90
       24
 70
     1
 43
0.0
 10
17.01335273433532
 20
18.88923340414386
 10
12.98659908055533
 20
18.88923340414386
 42
-0.4142135623730951
 10
12.18659908055533
 20
19.68923340414386
 10
12.18659908055533
 20
22.71063632716385
 42
-0.414213562373095
 10
12.98659908055533
 20
23.51063632716385
 10
14.0
 20
23.51063632716385
 42
0.4142135623730951
 10
14.5
 20
24.01063632716386
 10
14.5
 20
25.50298202475508
 42
0.4142139828329387
 10
13.99999928223025
 20
26.00298202475455
 10
13.32750071776981
 20
26.00298105935631
 42
-0.4142139828329471
 10
12.82750000000007
 20
26.50298105935581
 10
12.82750000000013
 20
28.75001871999224
 42
-0.4142135623730868
 10
13.32750000000013
 20
29.25001871999222
 10
16.67247498940674
 20
29.25001871999222
 42
-0.4142144401584364
 10
17.1724749894045
 20
28.75001722151938
 10
17.17246825515467
 20
26.50297956085935
 42
-0.4142131050478809
 10
16.67246753738717
 20
26.00298105933271
 10
16.00000071776974
 20
26.00298202468538
 42
0.4142139828329383
 10
15.5
 20
25.5029820246859
 10
15.5
 20
24.01063632716386
 42
0.4142135623730951
 10
16.0
 20
23.51063632716385
 10
17.01335273433532
 20
23.51063632716385
 42
-0.4142135623730951
 10
17.81335273433532
 20
22.71063632716385
 10
17.81335273433532
 20
19.68923340414386
 42
-0.4142135623730951
  0
LWPOLYLINE
  5
11DE
330
1F
100
AcDbEntity
  8
pixel-electrodes-small-upper
100
AcDbPolyline
 90
       22
 70
     1
 43
0.0
 10
20.0866222550715
 20
18.88923340414387
 10
24.11337590885149
 20
18.88923340414389
 42
0.414213562373095
 10
24.91337590885149
 20
19.68923340414389
 10
24.91337590885148
 20
22.71063632716389
 42
0.4142135623730951
 10
24.11337590885148
 20
23.51063632716389
 10
22.75236486496456
 20
23.51063632716388
 42
-0.4142135623730951
 10
22.25236486496456
 20
24.01063632716388
 10
22.25236486496455
 20
25.50297255015752
 10
22.25236486496471
 20
26.00297304920083
 10
22.25236486496409
 20
28.75001871999236
 42
0.4142135623730291
 10
21.75236486496409
 20
29.25001871999225
 10
18.4073648649648
 20
29.25001871999224
 42
0.4142135623730673
 10
17.9073648649648
 20
28.75001871999228
 10
17.9073648649646
 20
26.5029785688523
 42
0.4142131419131951
 10
18.40736414719455
 20
26.00297856885277
 10
20.75236486496455
 20
26.0029752025102
 42
-0.4142142751649544
 10
21.25236486496307
 20
25.50297398569869
 10
21.25236486496455
 20
24.01063632716438
 42
-0.414213562373384
 10
20.75236486496455
 20
23.51063632716388
 10
20.08662225507148
 20
23.51063632716387
 42
0.4142135623730951
 10
19.28662225507148
 20
22.71063632716387
 10
19.2866222550715
 20
19.68923340414387
 42
0.4142135623730951
  0
LWPOLYLINE
  5
1217
330
1F
100
AcDbEntity
  8
pixel-electrode-large-lower
100
AcDbPolyline
 90
       24
 70
     1
 43
0.0
 10
24.79700698395
 20
10.78506488377068
 10
24.79700698395
 20
6.508949892690699
 42
-0.4142135623730951
 10
23.99700698395
 20
5.708949892690696
 10
16.0
 20
5.708949892690696
 42
0.4142135623730951
 10
15.5
 20
5.208949892690698
 10
15.5
 20
4.497017975313203
 42
0.4142139828329386
 10
16.00000071776975
 20
3.997017975313716
 10
16.67246753738718
 20
3.997018940666386
 42
-0.4142131050478809
 10
17.17246825515468
 20
3.497020439139745
 10
17.1724749894045
 20
1.249982778479719
 42
-0.4142144401584364
 10
16.67247498940675
 20
0.7499812800068746
 10
13.32750000000014
 20
0.749981280006871
 42
-0.4142135623730868
 10
12.82750000000014
 20
1.249981280006856
 10
12.82750000000007
 20
3.497018940643287
 42
-0.414213982832947
 10
13.32750071776981
 20
3.997018940642785
 10
13.99999928223026
 20
3.997017975244541
 42
0.4142139828329387
 10
14.5
 20
4.497017975244027
 10
14.5
 20
5.208949892690698
 42
0.4142135623730951
 10
14.0
 20
5.708949892690696
 10
6.002993016049998
 20
5.708949892690696
 42
-0.4142135623730951
 10
5.202993016049997
 20
6.508949892690696
 10
5.202993016049997
 20
10.78506488377068
 42
-0.4142135623730951
 10
6.002993016049998
 20
11.58506488377068
 10
23.99700698395
 20
11.58506488377068
 42
-0.4142135623730951
  0
LWPOLYLINE
  5
1298
330
1F
100
AcDbEntity
  8
pixel-electrode-large-upper
100
AcDbPolyline
 90
       24
 70
     1
 43
0.0
 10
24.79700698395
 20
19.21493511622841
 10
24.79700698395
 20
23.49105010730839
 42
0.4142135623730951
 10
23.99700698395
 20
24.2910501073084
 10
16.0
 20
24.2910501073084
 42
-0.4142135623730951
 10
15.5
 20
24.79105010730839
 10
15.5
 20
25.50298202468589
 42
-0.4142139828329386
 10
16.00000071776975
 20
26.00298202468537
 10
16.67246753738718
 20
26.0029810593327
 42
0.4142131050478809
 10
17.17246825515468
 20
26.50297956085934
 10
17.1724749894045
 20
28.75001722151937
 42
0.4142144401584364
 10
16.67247498940675
 20
29.25001871999222
 10
13.32750000000014
 20
29.25001871999222
 42
0.4142135623730868
 10
12.82750000000014
 20
28.75001871999224
 10
12.82750000000007
 20
26.50298105935581
 42
0.414213982832947
 10
13.32750071776981
 20
26.0029810593563
 10
13.99999928223026
 20
26.00298202475455
 42
-0.4142139828329387
 10
14.5
 20
25.50298202475506
 10
14.5
 20
24.79105010730839
 42
-0.4142135623730951
 10
14.0
 20
24.2910501073084
 10
6.002993016049998
 20
24.2910501073084
 42
0.4142135623730951
 10
5.202993016049997
 20
23.49105010730839
 10
5.202993016049997
 20
19.21493511622841
 42
0.4142135623730951
 10
6.002993016049998
 20
18.41493511622841
 10
23.99700698395
 20
18.41493511622841
 42
0.4142135623730951
  0
LWPOLYLINE
  5
12E5
330
1F
100
AcDbEntity
  8
large-pixel-dark-area
100
AcDbPolyline
 90
       14
 70
     1
 43
0.0
 10
24.79700698395001
 20
10.78506488377068
 10
24.79700698395001
 20
6.508949892690699
 42
-0.4142135623730951
 10
23.99700698395
 20
5.708949892690696
 10
16.0
 20
5.708949892690696
 42
0.4142135623730951
 10
15.5
 20
5.208949892690698
 10
15.5
 20
4.74998128000621
 10
14.5
 20
4.749981280006164
 10
14.5
 20
5.208949892690698
 42
0.4142135623730951
 10
14.0
 20
5.708949892690696
 10
6.002993016049998
 20
5.708949892690696
 42
-0.4142135623730951
 10
5.202993016050002
 20
6.508949892690696
 10
5.202993016050002
 20
10.78506488377068
 42
-0.4142135623730951
 10
6.002993016049998
 20
11.58506488377068
 10
23.99700698395
 20
11.58506488377068
 42
-0.4142135623730951
  0
LINE
  5
13B8
330
1F
100
AcDbEntity
  8
TC-etch-lines-laser
100
AcDbLine
 10
7.3800183542597
 20
25.00001871999256
 30
0.0
 11
7.3800183542597
 21
29.99999999999909
 31
0.0
  0
LINE
  5
13B9
330
1F
100
AcDbEntity
  8
TC-etch-lines-laser
100
AcDbLine
 10
7.3800183542597
 20
4.99998128000654
 30
0.0
 11
7.380018354259711
 21
0.0000000000000036
 31
0.0
  0
LINE
  5
13DE
330
1F
100
AcDbEntity
  8
TC-etch-lines-laser
 62
     1
100
AcDbLine
 10
29.5
 20
0.0
 30
0.0
 11
29.5
 21
29.99999999999909
 31
0.0
  0
LINE
  5
13DF
330
1F
100
AcDbEntity
  8
TC-etch-lines-laser
 62
     1
100
AcDbLine
 10
0.5000000000000249
 20
-0.0000000000000087
 30
0.0
 11
0.5
 21
29.99999999999908
 31
0.0
  0
ENDSEC
  0
SECTION
  2
OBJECTS
  0
DICTIONARY
  5
C
330
0
100
AcDbDictionary
281
     1
  3
ACAD_CIP_PREVIOUS_PRODUCT_INFO
350
143D
  3
ACAD_COLOR
350
73
  3
ACAD_DETAILVIEWSTYLE
350
122
  3
ACAD_GROUP
350
D
  3
ACAD_IMAGE_VARS
350
DC
  3
ACAD_LAYOUT
350
1A
  3
ACAD_MATERIAL
350
72
  3
ACAD_MLEADERSTYLE
350
B5
  3
ACAD_MLINESTYLE
350
17
  3
ACAD_PLOTSETTINGS
350
19
  3
ACAD_PLOTSTYLENAME
350
E
  3
ACAD_SCALELIST
350
B6
  3
ACAD_SECTIONVIEWSTYLE
350
123
  3
ACAD_TABLESTYLE
350
86
  3
ACAD_VISUALSTYLE
350
99
  3
ACDB_RECOMPOSE_DATA
350
1445
  3
AcDbVariableDictionary
350
66
  3
APPDATA
350
E1
  0
SUN
  5
ED
330
94
100
AcDbSun
 90
        1
290
     1
 63
     7
421
 16777215
 40
1.0
291
     1
 91
  2455826
 92
 54000000
292
     0
 70
     0
 71
   256
280
     1
  0
DICTIONARY
  5
293
330
2
100
AcDbDictionary
280
     1
281
     1
  3
ACAD_LAYERSTATES
360
294
  3
ACLYDICTIONARY
360
F0F
  0
DICTIONARY
  5
6D9
330
1F
100
AcDbDictionary
280
     1
281
     1
  3
ACAD_SORTENTS
360
6DA
  0
XRECORD
  5
143D
102
{ACAD_REACTORS
330
C
102
}
330
C
100
AcDbXrecord
280
     1
300
AMECH_PP
300
2017
300
PDSU_F_S
  0
DICTIONARY
  5
73
102
{ACAD_REACTORS
330
C
102
}
330
C
100
AcDbDictionary
281
     1
  0
DICTIONARY
  5
122
102
{ACAD_REACTORS
330
C
102
}
330
C
100
AcDbDictionary
281
     1
  3
Imperial24
350
1439
  0
DICTIONARY
  5
D
102
{ACAD_REACTORS
330
C
102
}
330
C
100
AcDbDictionary
281
     1
  0
RASTERVARIABLES
  5
DC
102
{ACAD_REACTORS
330
C
102
}
330
C
100
AcDbRasterVariables
 90
        0
 70
     1
 71
     1
 72
     5
  0
DICTIONARY
  5
1A
102
{ACAD_REACTORS
330
C
102
}
330
C
100
AcDbDictionary
281
     1
  3
Model
350
22
  3
Sheet1
350
59
  3
Sheet2
350
5E
  0
DICTIONARY
  5
72
102
{ACAD_REACTORS
330
C
102
}
330
C
100
AcDbDictionary
281
     1
  3
ByBlock
350
E2
  3
ByLayer
350
96
  3
Global
350
98
  0
DICTIONARY
  5
B5
102
{ACAD_REACTORS
330
C
102
}
330
C
100
AcDbDictionary
281
     1
  3
Standard
350
124
  0
DICTIONARY
  5
17
102
{ACAD_REACTORS
330
C
102
}
330
C
100
AcDbDictionary
281
     1
  3
Standard
350
18
  0
DICTIONARY
  5
19
102
{ACAD_REACTORS
330
C
102
}
330
C
100
AcDbDictionary
281
     1
  0
ACDBDICTIONARYWDFLT
  5
E
102
{ACAD_REACTORS
330
C
102
}
330
C
100
AcDbDictionary
281
     1
  3
Normal
350
F
100
AcDbDictionaryWithDefault
340
F
  0
DICTIONARY
  5
B6
102
{ACAD_REACTORS
330
C
102
}
330
C
100
AcDbDictionary
281
     1
  3
A0
350
B7
  3
A1
350
B8
  3
A2
350
B9
  3
A3
350
BA
  3
A4
350
BB
  3
A5
350
BC
  3
A6
350
BD
  3
A7
350
BE
  3
A8
350
BF
  3
A9
350
C0
  3
B0
350
C1
  3
B1
350
C2
  3
B2
350
C3
  3
B3
350
C4
  3
B4
350
C5
  3
B5
350
C6
  3
B6
350
C7
  3
B7
350
C8
  3
B8
350
C9
  3
B9
350
CA
  3
C0
350
CB
  3
C1
350
CC
  3
C2
350
CD
  3
C3
350
CE
  3
C4
350
CF
  3
C5
350
D0
  3
C6
350
D1
  3
C7
350
D2
  3
C8
350
D3
  3
C9
350
D4
  3
D0
350
D5
  3
D1
350
D6
  3
D2
350
D7
  0
DICTIONARY
  5
123
102
{ACAD_REACTORS
330
C
102
}
330
C
100
AcDbDictionary
281
     1
  3
Imperial24
350
1438
  0
DICTIONARY
  5
86
102
{ACAD_REACTORS
330
C
102
}
330
C
100
AcDbDictionary
281
     1
  3
Standard
350
87
  0
DICTIONARY
  5
99
102
{ACAD_REACTORS
330
C
102
}
330
C
100
AcDbDictionary
281
     1
  3
2dWireframe
350
9F
  3
3D Hidden
350
A1
  3
3dWireframe
350
A0
  3
Basic
350
9E
  3
Brighten
350
A5
  3
ColorChange
350
A9
  3
Conceptual
350
A2
  3
Dim
350
A4
  3
EdgeColorOff
350
E7
  3
Facepattern
350
A8
  3
Flat
350
9A
  3
FlatWithEdges
350
9B
  3
Gouraud
350
9C
  3
GouraudWithEdges
350
9D
  3
Hidden
350
E4
  3
JitterOff
350
E5
  3
Linepattern
350
A7
  3
OverhangOff
350
E6
  3
Realistic
350
A3
  3
Shaded
350
EC
  3
Shaded with edges
350
EB
  3
Shades of Gray
350
E8
  3
Sketchy
350
E9
  3
Thicken
350
A6
  3
Wireframe
350
E3
  3
X-Ray
350
EA
  0
XRECORD
  5
1445
102
{ACAD_REACTORS
330
C
102
}
330
C
100
AcDbXrecord
280
     1
 90
        1
330
87
330
1438
330
1439
  0
DICTIONARY
  5
66
102
{ACAD_REACTORS
330
C
102
}
330
C
100
AcDbDictionary
281
     1
  3
CANNOSCALE
350
D8
  3
CMLEADERSTYLE
350
128
  3
CTABLESTYLE
350
89
  3
CVIEWDETAILSTYLE
350
143E
  3
CVIEWSECTIONSTYLE
350
143F
  3
DIMASSOC
350
67
  3
HIDETEXT
350
6B
  3
LIGHTSINBLOCKS
350
DF
  3
XCLIPFRAME
350
E0
  0
DICTIONARY
  5
E1
102
{ACAD_REACTORS
330
C
102
}
330
C
100
AcDbDictionary
281
     1
  0
DICTIONARY
  5
294
102
{ACAD_REACTORS
330
293
102
}
330
293
100
AcDbDictionary
281
     1
  0
DICTIONARY
  5
F0F
102
{ACAD_REACTORS
330
293
102
}
330
293
100
AcDbDictionary
281
     1
1001
ACAD
1000
<All
  0
SORTENTSTABLE
  5
6DA
102
{ACAD_REACTORS
330
6D9
102
}
330
6D9
100
AcDbSortentsTable
330
1F
331
344
  5
345
331
345
  5
34D
331
2A8
  5
2A9
331
2AA
  5
2AB
331
312
  5
313
331
313
  5
314
331
681
  5
688
331
5A3
  5
5CA
331
309
  5
30A
331
30A
  5
30B
331
688
  5
298
331
5CA
  5
681
  0
ACDBDETAILVIEWSTYLE
  5
1439
102
{ACAD_XDICTIONARY
360
1443
102
}
102
{ACAD_REACTORS
330
122
102
}
330
122
100
AcDbModelDocViewStyle
 70
     0
  3
Imperial24
290
     0
100
AcDbDetailViewStyle
 70
     0
 71
     0
 90
        3
 71
     1
340
11
 62
   256
 40
0.24
340
0
 62
   256
 40
0.24
300

 40
0.36
280
     3
 71
     2
340
16
 90
       25
 62
   256
 71
     3
340
11
 62
   256
 40
0.24
 90
        1
 40
0.75
 90
        1
300
%<\AcVar ViewType \f "%tc1">% %<\AcVar ViewDetailId>%\PSCALE %<\AcVar ViewScale \f "%sn">%
 71
     4
340
16
 90
       25
 62
   256
340
16
 90
       25
 62
   256
280
     0
  0
LAYOUT
  5
22
102
{ACAD_REACTORS
330
1A
102
}
330
1A
100
AcDbPlotSettings
  1

  2
none_device
  4
ANSI_A_(8.50_x_11.00_Inches)
  6

 40
6.349999999999999
 41
19.05
 42
6.349999999999999
 43
19.05
 44
215.9
 45
279.4
 46
11.11250000000003
 47
0.0000000000000142
 48
0.0
 49
0.0
140
0.0
141
0.0
142
1.0
143
1.263157894736842
 70
 11444
 72
     0
 73
     1
 74
     1
  7
monochrome.ctb
 75
     0
147
0.7916666666666666
 76
     0
 77
     2
 78
   300
148
-702.8076765758874
149
-496.2830551296953
100
AcDbLayout
  1
Model
 70
     1
 71
     0
 10
0.0
 20
0.0
 11
12.0
 21
9.0
 12
0.0
 22
0.0
 32
0.0
 14
-0.0000000000001954
 24
0.0
 34
0.0
 15
49.48734233071474
 25
29.99999999999909
 35
0.0
146
0.0
 13
0.0
 23
0.0
 33
0.0
 16
1.0
 26
0.0
 36
0.0
 17
0.0
 27
1.0
 37
0.0
 76
     0
330
1F
331
94
  0
LAYOUT
  5
59
102
{ACAD_REACTORS
330
1A
102
}
330
1A
100
AcDbPlotSettings
  1

  2
None
  4

  6

 40
0.0
 41
0.0
 42
0.0
 43
0.0
 44
0.0
 45
0.0
 46
0.0
 47
0.0
 48
0.0
 49
0.0
140
0.0
141
0.0
142
1.0
143
1.0
 70
   688
 72
     0
 73
     0
 74
     5
  7

 75
    16
147
1.0
 76
     0
 77
     2
 78
   300
148
0.0
149
0.0
100
AcDbLayout
  1
Sheet1
 70
     1
 71
     1
 10
0.0
 20
0.0
 11
0.0
 21
0.0
 12
0.0
 22
0.0
 32
0.0
 14
0.0
 24
0.0
 34
0.0
 15
0.0
 25
0.0
 35
0.0
146
0.0
 13
0.0
 23
0.0
 33
0.0
 16
1.0
 26
0.0
 36
0.0
 17
0.0
 27
1.0
 37
0.0
 76
     0
330
58
  0
LAYOUT
  5
5E
102
{ACAD_REACTORS
330
1A
102
}
330
1A
100
AcDbPlotSettings
  1

  2
None
  4

  6

 40
0.0
 41
0.0
 42
0.0
 43
0.0
 44
0.0
 45
0.0
 46
0.0
 47
0.0
 48
0.0
 49
0.0
140
0.0
141
0.0
142
1.0
143
1.0
 70
   688
 72
     0
 73
     0
 74
     5
  7

 75
    16
147
1.0
 76
     0
 77
     2
 78
   300
148
0.0
149
0.0
100
AcDbLayout
  1
Sheet2
 70
     1
 71
     2
 10
0.0
 20
0.0
 11
12.0
 21
9.0
 12
0.0
 22
0.0
 32
0.0
 14
0.0
 24
0.0
 34
0.0
 15
0.0
 25
0.0
 35
0.0
146
0.0
 13
0.0
 23
0.0
 33
0.0
 16
1.0
 26
0.0
 36
0.0
 17
0.0
 27
1.0
 37
0.0
 76
     0
330
5D
  0
MATERIAL
  5
E2
102
{ACAD_REACTORS
330
72
102
}
330
72
100
AcDbMaterial
  1
ByBlock
  0
MATERIAL
  5
96
102
{ACAD_REACTORS
330
72
102
}
330
72
100
AcDbMaterial
  1
ByLayer
 94
       63
  0
MATERIAL
  5
98
102
{ACAD_REACTORS
330
72
102
}
330
72
100
AcDbMaterial
  1
Global
 94
       63
  0
MLEADERSTYLE
  5
124
102
{ACAD_REACTORS
330
B5
102
}
330
B5
100
AcDbMLeaderStyle
179
     2
170
     2
171
     1
172
     0
 90
        2
 40
0.0
 41
0.0
173
     1
 91
-1056964608
340
14
 92
       -2
290
     1
 42
0.09
291
     1
 43
0.36
  3
Standard
 44
0.18
300

342
11
174
     1
178
     6
175
     1
176
     0
 93
-1056964608
 45
0.18
292
     0
297
     0
 46
0.18
 94
-1056964608
 47
1.0
 49
1.0
140
1.0
293
     1
141
0.0
294
     1
177
     0
142
1.0
295
     0
296
     0
143
0.125
271
     0
272
     9
273
     9
298
     0
  0
MLINESTYLE
  5
18
102
{ACAD_REACTORS
330
17
102
}
330
17
100
AcDbMlineStyle
  2
STANDARD
 70
     0
  3

 62
   256
 51
90.0
 52
90.0
 71
     2
 49
0.5
 62
   256
  6
BYLAYER
 49
-0.5
 62
   256
  6
BYLAYER
  0
ACDBPLACEHOLDER
  5
F
102
{ACAD_REACTORS
330
E
102
}
330
E
  0
SCALE
  5
B7
102
{ACAD_REACTORS
330
B6
102
}
330
B6
100
AcDbScale
 70
     0
300
1:1
140
1.0
141
1.0
290
     1
  0
SCALE
  5
B8
102
{ACAD_REACTORS
330
B6
102
}
330
B6
100
AcDbScale
 70
     0
300
1:2
140
1.0
141
2.0
290
     0
  0
SCALE
  5
B9
102
{ACAD_REACTORS
330
B6
102
}
330
B6
100
AcDbScale
 70
     0
300
1:4
140
1.0
141
4.0
290
     0
  0
SCALE
  5
BA
102
{ACAD_REACTORS
330
B6
102
}
330
B6
100
AcDbScale
 70
     0
300
1:5
140
1.0
141
5.0
290
     0
  0
SCALE
  5
BB
102
{ACAD_REACTORS
330
B6
102
}
330
B6
100
AcDbScale
 70
     0
300
1:8
140
1.0
141
8.0
290
     0
  0
SCALE
  5
BC
102
{ACAD_REACTORS
330
B6
102
}
330
B6
100
AcDbScale
 70
     0
300
1:10
140
1.0
141
10.0
290
     0
  0
SCALE
  5
BD
102
{ACAD_REACTORS
330
B6
102
}
330
B6
100
AcDbScale
 70
     0
300
1:16
140
1.0
141
16.0
290
     0
  0
SCALE
  5
BE
102
{ACAD_REACTORS
330
B6
102
}
330
B6
100
AcDbScale
 70
     0
300
1:20
140
1.0
141
20.0
290
     0
  0
SCALE
  5
BF
102
{ACAD_REACTORS
330
B6
102
}
330
B6
100
AcDbScale
 70
     0
300
1:30
140
1.0
141
30.0
290
     0
  0
SCALE
  5
C0
102
{ACAD_REACTORS
330
B6
102
}
330
B6
100
AcDbScale
 70
     0
300
1:40
140
1.0
141
40.0
290
     0
  0
SCALE
  5
C1
102
{ACAD_REACTORS
330
B6
102
}
330
B6
100
AcDbScale
 70
     0
300
1:50
140
1.0
141
50.0
290
     0
  0
SCALE
  5
C2
102
{ACAD_REACTORS
330
B6
102
}
330
B6
100
AcDbScale
 70
     0
300
1:100
140
1.0
141
100.0
290
     0
  0
SCALE
  5
C3
102
{ACAD_REACTORS
330
B6
102
}
330
B6
100
AcDbScale
 70
     0
300
2:1
140
2.0
141
1.0
290
     0
  0
SCALE
  5
C4
102
{ACAD_REACTORS
330
B6
102
}
330
B6
100
AcDbScale
 70
     0
300
4:1
140
4.0
141
1.0
290
     0
  0
SCALE
  5
C5
102
{ACAD_REACTORS
330
B6
102
}
330
B6
100
AcDbScale
 70
     0
300
8:1
140
8.0
141
1.0
290
     0
  0
SCALE
  5
C6
102
{ACAD_REACTORS
330
B6
102
}
330
B6
100
AcDbScale
 70
     0
300
10:1
140
10.0
141
1.0
290
     0
  0
SCALE
  5
C7
102
{ACAD_REACTORS
330
B6
102
}
330
B6
100
AcDbScale
 70
     0
300
100:1
140
100.0
141
1.0
290
     0
  0
SCALE
  5
C8
102
{ACAD_REACTORS
330
B6
102
}
330
B6
100
AcDbScale
 70
     0
300
1/128" = 1'-0"
140
0.0078125
141
12.0
290
     0
  0
SCALE
  5
C9
102
{ACAD_REACTORS
330
B6
102
}
330
B6
100
AcDbScale
 70
     0
300
1/64" = 1'-0"
140
0.015625
141
12.0
290
     0
  0
SCALE
  5
CA
102
{ACAD_REACTORS
330
B6
102
}
330
B6
100
AcDbScale
 70
     0
300
1/32" = 1'-0"
140
0.03125
141
12.0
290
     0
  0
SCALE
  5
CB
102
{ACAD_REACTORS
330
B6
102
}
330
B6
100
AcDbScale
 70
     0
300
1/16" = 1'-0"
140
0.0625
141
12.0
290
     0
  0
SCALE
  5
CC
102
{ACAD_REACTORS
330
B6
102
}
330
B6
100
AcDbScale
 70
     0
300
3/32" = 1'-0"
140
0.09375
141
12.0
290
     0
  0
SCALE
  5
CD
102
{ACAD_REACTORS
330
B6
102
}
330
B6
100
AcDbScale
 70
     0
300
1/8" = 1'-0"
140
0.125
141
12.0
290
     0
  0
SCALE
  5
CE
102
{ACAD_REACTORS
330
B6
102
}
330
B6
100
AcDbScale
 70
     0
300
3/16" = 1'-0"
140
0.1875
141
12.0
290
     0
  0
SCALE
  5
CF
102
{ACAD_REACTORS
330
B6
102
}
330
B6
100
AcDbScale
 70
     0
300
1/4" = 1'-0"
140
0.25
141
12.0
290
     0
  0
SCALE
  5
D0
102
{ACAD_REACTORS
330
B6
102
}
330
B6
100
AcDbScale
 70
     0
300
3/8" = 1'-0"
140
0.375
141
12.0
290
     0
  0
SCALE
  5
D1
102
{ACAD_REACTORS
330
B6
102
}
330
B6
100
AcDbScale
 70
     0
300
1/2" = 1'-0"
140
0.5
141
12.0
290
     0
  0
SCALE
  5
D2
102
{ACAD_REACTORS
330
B6
102
}
330
B6
100
AcDbScale
 70
     0
300
3/4" = 1'-0"
140
0.75
141
12.0
290
     0
  0
SCALE
  5
D3
102
{ACAD_REACTORS
330
B6
102
}
330
B6
100
AcDbScale
 70
     0
300
1" = 1'-0"
140
1.0
141
12.0
290
     0
  0
SCALE
  5
D4
102
{ACAD_REACTORS
330
B6
102
}
330
B6
100
AcDbScale
 70
     0
300
1-1/2" = 1'-0"
140
1.5
141
12.0
290
     0
  0
SCALE
  5
D5
102
{ACAD_REACTORS
330
B6
102
}
330
B6
100
AcDbScale
 70
     0
300
3" = 1'-0"
140
3.0
141
12.0
290
     0
  0
SCALE
  5
D6
102
{ACAD_REACTORS
330
B6
102
}
330
B6
100
AcDbScale
 70
     0
300
6" = 1'-0"
140
6.0
141
12.0
290
     0
  0
SCALE
  5
D7
102
{ACAD_REACTORS
330
B6
102
}
330
B6
100
AcDbScale
 70
     0
300
1'-0" = 1'-0"
140
12.0
141
12.0
290
     0
  0
ACDBSECTIONVIEWSTYLE
  5
1438
102
{ACAD_XDICTIONARY
360
1441
102
}
102
{ACAD_REACTORS
330
123
102
}
330
123
100
AcDbModelDocViewStyle
 70
     0
  3
Imperial24
290
     0
100
AcDbSectionViewStyle
 70
     0
 71
     0
 90
       78
 71
     1
340
11
 62
   256
 40
0.24
340
0
340
0
 62
   256
 40
0.24
300
I, O, Q, S, X, Z
 40
0.48
 90
        3
 40
0.18
 90
        1
 71
     2
340
16
 90
       25
 62
   256
340
16
 90
       50
 62
   256
 40
0.24
 40
0.0
 40
0.24
 71
     3
340
11
 62
   256
 40
0.24
 90
        1
 40
0.75
 90
        1
300
%<\AcVar ViewType \f "%tc1">% %<\AcVar ViewSectionStartId>%-%<\AcVar ViewSectionEndId>%\PSCALE %<\AcVar ViewScale \f "%sn">%
 71
     4
 62
   256
 62
   257
300
ANSI31
 40
1.0
 90
        0
290
     0
290
     0
 90
        6
 40
0.0
 40
1.570796326794896
 40
0.2617993877991494
 40
1.308996938995747
 40
-0.2617993877991494
 40
1.832595714594046
  0
TABLESTYLE
  5
87
102
{ACAD_XDICTIONARY
360
1433
102
}
102
{ACAD_REACTORS
330
86
102
}
330
86
100
AcDbTableStyle
280
     0
  3
Standard
 70
     0
 71
     0
 40
0.06
 41
0.06
280
     0
281
     0
  7
Standard
140
0.18
170
     2
 62
     0
 63
     7
283
     0
 90
      512
 91
        0
  1

274
    -2
284
     1
 64
     0
275
    -2
285
     1
 65
     0
276
    -2
286
     1
 66
     0
277
    -2
287
     1
 67
     0
278
    -2
288
     1
 68
     0
279
    -2
289
     1
 69
     0
  7
Standard
140
0.25
170
     5
 62
     0
 63
     7
283
     0
 90
      512
 91
        0
  1

274
    -2
284
     1
 64
     0
275
    -2
285
     1
 65
     0
276
    -2
286
     1
 66
     0
277
    -2
287
     1
 67
     0
278
    -2
288
     1
 68
     0
279
    -2
289
     1
 69
     0
  7
Standard
140
0.18
170
     5
 62
     0
 63
     7
283
     0
 90
      512
 91
        0
  1

274
    -2
284
     1
 64
     0
275
    -2
285
     1
 65
     0
276
    -2
286
     1
 66
     0
277
    -2
287
     1
 67
     0
278
    -2
288
     1
 68
     0
279
    -2
289
     1
 69
     0
  0
VISUALSTYLE
  5
9F
102
{ACAD_REACTORS
330
99
102
}
330
99
100
AcDbVisualStyle
  2
2dWireframe
 70
     4
177
     3
291
     0
 70
    58
 90
        0
176
     1
 90
        2
176
     1
 90
        1
176
     1
 90
        0
176
     1
 40
0.6
176
     1
 40
30.0
176
     1
 62
     7
420
 16777215
176
     1
 90
        1
176
     1
 90
        4
176
     1
 62
     7
176
     1
 62
   257
176
     1
 90
        1
176
     1
 90
        1
176
     1
 40
1.0
176
     1
 90
        0
176
     1
 62
   257
176
     1
 40
1.0
176
     1
 90
        1
176
     1
 90
        6
176
     1
 90
        2
176
     1
 62
     7
176
     1
 90
        5
176
     1
 90
        0
176
     1
 90
        0
176
     1
290
     0
176
     1
 90
        1
176
     1
 40
0.0
176
     1
 90
        0
176
     1
290
     1
176
     1
290
     1
176
     1
290
     0
176
     1
290
     0
176
     1
290
     0
176
     1
290
     0
176
     1
290
     0
176
     1
290
     0
176
     1
290
     0
176
     1
 90
       50
176
     1
 40
0.0
176
     1
 40
1.0
176
     1
 90
        0
176
     1
 62
   178
176
     1
 90
       50
176
     1
 90
        3
176
     1
 62
     5
420
      255
176
     1
290
     0
176
     1
 90
       50
176
     1
 90
       50
176
     1
 90
       50
176
     1
290
     0
176
     1
 90
       50
176
     1
 62
   256
176
     0
 40
1.0
176
     0
 90
        2
176
     1
  1
strokes_ogs.tif
176
     1
290
     0
176
     1
 40
1.0
176
     1
 40
1.0
176
     1
  0
VISUALSTYLE
  5
A1
102
{ACAD_REACTORS
330
99
102
}
330
99
100
AcDbVisualStyle
  2
3D Hidden
 70
     6
177
     3
291
     0
 70
    58
 90
        1
176
     1
 90
        2
176
     1
 90
        2
176
     1
 90
        0
176
     1
 40
0.6
176
     1
 40
30.0
176
     1
 62
     7
420
 16777215
176
     1
 90
        2
176
     1
 90
        2
176
     1
 62
     7
176
     1
 62
   257
176
     1
 90
        2
176
     1
 90
        1
176
     1
 40
40.0
176
     1
 90
        0
176
     1
 62
   257
176
     1
 40
1.0
176
     1
 90
        1
176
     1
 90
        6
176
     1
 90
        2
176
     1
 62
     7
176
     1
 90
        3
176
     1
 90
        0
176
     1
 90
        0
176
     1
290
     0
176
     1
 90
        1
176
     1
 40
0.0
176
     1
 90
        0
176
     1
290
     0
176
     1
290
     1
176
     1
290
     1
176
     1
290
     0
176
     1
290
     0
176
     1
290
     0
176
     1
290
     0
176
     1
290
     0
176
     1
290
     0
176
     1
 90
       50
176
     1
 40
0.0
176
     1
 40
1.0
176
     1
 90
        0
176
     1
 62
   178
176
     1
 90
       50
176
     1
 90
        3
176
     1
 62
     5
420
      255
176
     1
290
     0
176
     1
 90
       50
176
     1
 90
       50
176
     1
 90
       50
176
     1
290
     0
176
     1
 90
       50
176
     1
 62
   256
176
     0
 40
1.0
176
     0
 90
        2
176
     1
  1
strokes_ogs.tif
176
     1
290
     0
176
     1
 40
1.0
176
     1
 40
1.0
176
     1
  0
VISUALSTYLE
  5
A0
102
{ACAD_REACTORS
330
99
102
}
330
99
100
AcDbVisualStyle
  2
3dWireframe
 70
     5
177
     3
291
     0
 70
    58
 90
        0
176
     1
 90
        2
176
     1
 90
        1
176
     1
 90
        0
176
     1
 40
0.6
176
     1
 40
30.0
176
     1
 62
     7
420
 16777215
176
     1
 90
        1
176
     1
 90
        4
176
     1
 62
     7
176
     1
 62
   257
176
     1
 90
        1
176
     1
 90
        1
176
     1
 40
1.0
176
     1
 90
        0
176
     1
 62
   257
176
     1
 40
1.0
176
     1
 90
        1
176
     1
 90
        6
176
     1
 90
        2
176
     1
 62
     7
176
     1
 90
        5
176
     1
 90
        0
176
     1
 90
        0
176
     1
290
     0
176
     1
 90
        1
176
     1
 40
0.0
176
     1
 90
        0
176
     1
290
     0
176
     1
290
     1
176
     1
290
     1
176
     1
290
     0
176
     1
290
     0
176
     1
290
     0
176
     1
290
     0
176
     1
290
     0
176
     1
290
     0
176
     1
 90
       50
176
     1
 40
0.0
176
     1
 40
1.0
176
     1
 90
        0
176
     1
 62
   178
176
     1
 90
       50
176
     1
 90
        3
176
     1
 62
     5
420
      255
176
     1
290
     0
176
     1
 90
       50
176
     1
 90
       50
176
     1
 90
       50
176
     1
290
     0
176
     1
 90
       50
176
     1
 62
   256
176
     0
 40
1.0
176
     0
 90
        2
176
     1
  1
strokes_ogs.tif
176
     1
290
     0
176
     1
 40
1.0
176
     1
 40
1.0
176
     1
  0
VISUALSTYLE
  5
9E
102
{ACAD_REACTORS
330
99
102
}
330
99
100
AcDbVisualStyle
  2
Basic
 70
     7
177
     3
291
     1
 70
    58
 90
        1
176
     1
 90
        0
176
     1
 90
        1
176
     1
 90
        0
176
     1
 40
0.6
176
     1
 40
30.0
176
     1
 62
     7
420
 16777215
176
     1
 90
        0
176
     1
 90
        4
176
     1
 62
     7
176
     1
 62
   257
176
     1
 90
        1
176
     1
 90
        1
176
     1
 40
1.0
176
     1
 90
        8
176
     1
 62
     7
176
     1
 40
1.0
176
     1
 90
        1
176
     1
 90
        6
176
     1
 90
        2
176
     1
 62
     7
176
     1
 90
        5
176
     1
 90
        0
176
     1
 90
        0
176
     1
290
     0
176
     1
 90
        1
176
     1
 40
0.0
176
     1
 90
        0
176
     1
290
     0
176
     1
290
     1
176
     1
290
     1
176
     1
290
     0
176
     1
290
     0
176
     1
290
     0
176
     1
290
     0
176
     1
290
     0
176
     1
290
     0
176
     1
 90
       50
176
     1
 40
0.0
176
     1
 40
1.0
176
     1
 90
        0
176
     1
 62
   178
176
     1
 90
       50
176
     1
 90
        3
176
     1
 62
     5
420
      255
176
     1
290
     0
176
     1
 90
       50
176
     1
 90
       50
176
     1
 90
       50
176
     1
290
     0
176
     1
 90
       50
176
     1
 62
   256
176
     0
 40
1.0
176
     0
 90
        2
176
     1
  1
strokes_ogs.tif
176
     1
290
     0
176
     1
 40
1.0
176
     1
 40
1.0
176
     1
  0
VISUALSTYLE
  5
A5
102
{ACAD_REACTORS
330
99
102
}
330
99
100
AcDbVisualStyle
  2
Brighten
 70
    12
177
     3
291
     1
 70
    58
 90
        2
176
     1
 90
        2
176
     1
 90
        1
176
     1
 90
        0
176
     1
 40
0.6
176
     1
 40
30.0
176
     1
 62
     7
420
 16777215
176
     1
 90
        1
176
     1
 90
        4
176
     1
 62
     7
176
     1
 62
   257
176
     1
 90
        1
176
     1
 90
        1
176
     1
 40
1.0
176
     1
 90
        8
176
     1
 62
     7
176
     1
 40
1.0
176
     1
 90
        1
176
     1
 90
        6
176
     1
 90
        2
176
     1
 62
     7
176
     1
 90
        5
176
     1
 90
        0
176
     1
 90
        0
176
     1
290
     0
176
     1
 90
        1
176
     1
 40
50.0
176
     1
 90
        0
176
     1
290
     0
176
     1
290
     1
176
     1
290
     1
176
     1
290
     0
176
     1
290
     0
176
     1
290
     0
176
     1
290
     0
176
     1
290
     0
176
     1
290
     0
176
     1
 90
       50
176
     1
 40
0.0
176
     1
 40
1.0
176
     1
 90
        0
176
     1
 62
   178
176
     1
 90
       50
176
     1
 90
        3
176
     1
 62
     5
420
      255
176
     1
290
     0
176
     1
 90
       50
176
     1
 90
       50
176
     1
 90
       50
176
     1
290
     0
176
     1
 90
       50
176
     1
 62
   256
176
     0
 40
1.0
176
     0
 90
        2
176
     1
  1
strokes_ogs.tif
176
     1
290
     0
176
     1
 40
1.0
176
     1
 40
1.0
176
     1
  0
VISUALSTYLE
  5
A9
102
{ACAD_REACTORS
330
99
102
}
330
99
100
AcDbVisualStyle
  2
ColorChange
 70
    16
177
     3
291
     1
 70
    58
 90
        2
176
     1
 90
        2
176
     1
 90
        3
176
     1
 90
        0
176
     1
 40
0.6
176
     1
 40
30.0
176
     1
 62
     8
420
  8421504
176
     1
 90
        1
176
     1
 90
        4
176
     1
 62
     7
176
     1
 62
   257
176
     1
 90
        1
176
     1
 90
        1
176
     1
 40
1.0
176
     1
 90
        8
176
     1
 62
     8
420
  8421504
176
     1
 40
1.0
176
     1
 90
        1
176
     1
 90
        6
176
     1
 90
        2
176
     1
 62
     7
176
     1
 90
        5
176
     1
 90
        0
176
     1
 90
        0
176
     1
290
     0
176
     1
 90
        1
176
     1
 40
0.0
176
     1
 90
        0
176
     1
290
     0
176
     1
290
     1
176
     1
290
     1
176
     1
290
     0
176
     1
290
     0
176
     1
290
     0
176
     1
290
     0
176
     1
290
     0
176
     1
290
     0
176
     1
 90
       50
176
     1
 40
0.0
176
     1
 40
1.0
176
     1
 90
        0
176
     1
 62
   178
176
     1
 90
       50
176
     1
 90
        3
176
     1
 62
     5
420
      255
176
     1
290
     0
176
     1
 90
       50
176
     1
 90
       50
176
     1
 90
       50
176
     1
290
     0
176
     1
 90
       50
176
     1
 62
   256
176
     0
 40
1.0
176
     0
 90
        2
176
     1
  1
strokes_ogs.tif
176
     1
290
     0
176
     1
 40
1.0
176
     1
 40
1.0
176
     1
  0
VISUALSTYLE
  5
A2
102
{ACAD_REACTORS
330
99
102
}
330
99
100
AcDbVisualStyle
  2
Conceptual
 70
     9
177
     3
291
     0
 70
    58
 90
        3
176
     1
 90
        2
176
     1
 90
        1
176
     1
 90
        0
176
     1
 40
0.6
176
     1
 40
30.0
176
     1
 62
     7
420
 16777215
176
     1
 90
        2
176
     1
 90
        2
176
     1
 62
     7
176
     1
 62
   257
176
     1
 90
        1
176
     1
 90
        1
176
     1
 40
40.0
176
     1
 90
        8
176
     1
 62
     7
176
     1
 40
1.0
176
     1
 90
        1
176
     1
 90
        6
176
     1
 90
        2
176
     1
 62
     7
176
     1
 90
        3
176
     1
 90
        0
176
     1
 90
        0
176
     1
290
     0
176
     1
 90
        1
176
     1
 40
0.0
176
     1
 90
        0
176
     1
290
     0
176
     1
290
     1
176
     1
290
     1
176
     1
290
     0
176
     1
290
     0
176
     1
290
     0
176
     1
290
     0
176
     1
290
     0
176
     1
290
     0
176
     1
 90
       50
176
     1
 40
0.0
176
     1
 40
1.0
176
     1
 90
        0
176
     1
 62
   178
176
     1
 90
       50
176
     1
 90
        3
176
     1
 62
     5
420
      255
176
     1
290
     0
176
     1
 90
       50
176
     1
 90
       50
176
     1
 90
       50
176
     1
290
     0
176
     1
 90
       50
176
     1
 62
   256
176
     0
 40
1.0
176
     0
 90
        2
176
     1
  1
strokes_ogs.tif
176
     1
290
     0
176
     1
 40
1.0
176
     1
 40
1.0
176
     1
  0
VISUALSTYLE
  5
A4
102
{ACAD_REACTORS
330
99
102
}
330
99
100
AcDbVisualStyle
  2
Dim
 70
    11
177
     3
291
     1
 70
    58
 90
        2
176
     1
 90
        2
176
     1
 90
        1
176
     1
 90
        0
176
     1
 40
0.6
176
     1
 40
30.0
176
     1
 62
     7
420
 16777215
176
     1
 90
        1
176
     1
 90
        4
176
     1
 62
     7
176
     1
 62
   257
176
     1
 90
        1
176
     1
 90
        1
176
     1
 40
1.0
176
     1
 90
        8
176
     1
 62
     7
176
     1
 40
1.0
176
     1
 90
        1
176
     1
 90
        6
176
     1
 90
        2
176
     1
 62
     7
176
     1
 90
        5
176
     1
 90
        0
176
     1
 90
        0
176
     1
290
     0
176
     1
 90
        1
176
     1
 40
-50.0
176
     1
 90
        0
176
     1
290
     0
176
     1
290
     1
176
     1
290
     1
176
     1
290
     0
176
     1
290
     0
176
     1
290
     0
176
     1
290
     0
176
     1
290
     0
176
     1
290
     0
176
     1
 90
       50
176
     1
 40
0.0
176
     1
 40
1.0
176
     1
 90
        0
176
     1
 62
   178
176
     1
 90
       50
176
     1
 90
        3
176
     1
 62
     5
420
      255
176
     1
290
     0
176
     1
 90
       50
176
     1
 90
       50
176
     1
 90
       50
176
     1
290
     0
176
     1
 90
       50
176
     1
 62
   256
176
     0
 40
1.0
176
     0
 90
        2
176
     1
  1
strokes_ogs.tif
176
     1
290
     0
176
     1
 40
1.0
176
     1
 40
1.0
176
     1
  0
VISUALSTYLE
  5
E7
102
{ACAD_REACTORS
330
99
102
}
330
99
100
AcDbVisualStyle
  2
EdgeColorOff
 70
    22
177
     3
291
     1
 70
    58
 90
        2
176
     0
 90
        2
176
     0
 90
        0
176
     0
 90
        0
176
     0
 40
0.6
176
     0
 40
30.0
176
     0
 62
     7
420
 16777215
176
     0
 90
        1
176
     0
 90
        4
176
     0
 62
     7
176
     0
 62
   257
176
     0
 90
        1
176
     0
 90
        1
176
     0
 40
1.0
176
     0
 90
        8
176
     2
 62
     7
176
     0
 40
1.0
176
     0
 90
        1
176
     0
 90
        6
176
     0
 90
        2
176
     0
 62
     7
176
     0
 90
        5
176
     0
 90
        0
176
     0
 90
        0
176
     0
290
     0
176
     0
 90
        1
176
     0
 40
0.0
176
     0
 90
        0
176
     0
290
     0
176
     0
290
     1
176
     0
290
     1
176
     0
290
     0
176
     0
290
     0
176
     0
290
     0
176
     0
290
     0
176
     0
290
     0
176
     0
290
     0
176
     0
 90
       50
176
     0
 40
0.0
176
     0
 40
1.0
176
     0
 90
        0
176
     0
 62
   178
176
     0
 90
       50
176
     0
 90
        3
176
     0
 62
     5
420
      255
176
     0
290
     0
176
     0
 90
       50
176
     0
 90
       50
176
     0
 90
       50
176
     0
290
     0
176
     0
 90
       50
176
     0
 62
   256
176
     0
 40
1.0
176
     0
 90
        2
176
     0
  1
strokes_ogs.tif
176
     0
290
     0
176
     0
 40
1.0
176
     0
 40
1.0
176
     0
  0
VISUALSTYLE
  5
A8
102
{ACAD_REACTORS
330
99
102
}
330
99
100
AcDbVisualStyle
  2
Facepattern
 70
    15
177
     3
291
     1
 70
    58
 90
        2
176
     1
 90
        2
176
     1
 90
        1
176
     1
 90
        0
176
     1
 40
0.6
176
     1
 40
30.0
176
     1
 62
     7
420
 16777215
176
     1
 90
        1
176
     1
 90
        4
176
     1
 62
     7
176
     1
 62
   257
176
     1
 90
        1
176
     1
 90
        1
176
     1
 40
1.0
176
     1
 90
        8
176
     1
 62
     7
176
     1
 40
1.0
176
     1
 90
        1
176
     1
 90
        6
176
     1
 90
        2
176
     1
 62
     7
176
     1
 90
        5
176
     1
 90
        0
176
     1
 90
        0
176
     1
290
     0
176
     1
 90
        1
176
     1
 40
0.0
176
     1
 90
        0
176
     1
290
     0
176
     1
290
     1
176
     1
290
     1
176
     1
290
     0
176
     1
290
     0
176
     1
290
     0
176
     1
290
     0
176
     1
290
     0
176
     1
290
     0
176
     1
 90
       50
176
     1
 40
0.0
176
     1
 40
1.0
176
     1
 90
        0
176
     1
 62
   178
176
     1
 90
       50
176
     1
 90
        3
176
     1
 62
     5
420
      255
176
     1
290
     0
176
     1
 90
       50
176
     1
 90
       50
176
     1
 90
       50
176
     1
290
     0
176
     1
 90
       50
176
     1
 62
   256
176
     0
 40
1.0
176
     0
 90
        2
176
     1
  1
strokes_ogs.tif
176
     1
290
     0
176
     1
 40
1.0
176
     1
 40
1.0
176
     1
  0
VISUALSTYLE
  5
9A
102
{ACAD_REACTORS
330
99
102
}
330
99
100
AcDbVisualStyle
  2
Flat
 70
     0
177
     3
291
     1
 70
    58
 90
        2
176
     1
 90
        1
176
     1
 90
        1
176
     1
 90
        2
176
     1
 40
0.6
176
     1
 40
30.0
176
     1
 62
     7
420
 16777215
176
     1
 90
        0
176
     1
 90
        4
176
     1
 62
     7
176
     1
 62
   257
176
     1
 90
        1
176
     1
 90
        1
176
     1
 40
1.0
176
     1
 90
        8
176
     1
 62
     7
176
     1
 40
1.0
176
     1
 90
        1
176
     1
 90
        6
176
     1
 90
        2
176
     1
 62
     7
176
     1
 90
        5
176
     1
 90
        0
176
     1
 90
        0
176
     1
290
     0
176
     1
 90
        1
176
     1
 40
0.0
176
     1
 90
        0
176
     1
290
     0
176
     1
290
     1
176
     1
290
     1
176
     1
290
     0
176
     1
290
     0
176
     1
290
     0
176
     1
290
     0
176
     1
290
     0
176
     1
290
     0
176
     1
 90
       50
176
     1
 40
0.0
176
     1
 40
1.0
176
     1
 90
        0
176
     1
 62
   178
176
     1
 90
       50
176
     1
 90
        3
176
     1
 62
     5
420
      255
176
     1
290
     0
176
     1
 90
       50
176
     1
 90
       50
176
     1
 90
       50
176
     1
290
     0
176
     1
 90
       50
176
     1
 62
   256
176
     0
 40
1.0
176
     0
 90
        2
176
     1
  1
strokes_ogs.tif
176
     1
290
     0
176
     1
 40
1.0
176
     1
 40
1.0
176
     1
  0
VISUALSTYLE
  5
9B
102
{ACAD_REACTORS
330
99
102
}
330
99
100
AcDbVisualStyle
  2
FlatWithEdges
 70
     1
177
     3
291
     1
 70
    58
 90
        2
176
     1
 90
        1
176
     1
 90
        1
176
     1
 90
        2
176
     1
 40
0.6
176
     1
 40
30.0
176
     1
 62
     7
420
 16777215
176
     1
 90
        1
176
     1
 90
        4
176
     1
 62
     7
176
     1
 62
   257
176
     1
 90
        1
176
     1
 90
        1
176
     1
 40
1.0
176
     1
 90
        0
176
     1
 62
   257
176
     1
 40
1.0
176
     1
 90
        1
176
     1
 90
        6
176
     1
 90
        2
176
     1
 62
     7
176
     1
 90
        5
176
     1
 90
        0
176
     1
 90
        0
176
     1
290
     0
176
     1
 90
        1
176
     1
 40
0.0
176
     1
 90
        0
176
     1
290
     0
176
     1
290
     1
176
     1
290
     1
176
     1
290
     0
176
     1
290
     0
176
     1
290
     0
176
     1
290
     0
176
     1
290
     0
176
     1
290
     0
176
     1
 90
       50
176
     1
 40
0.0
176
     1
 40
1.0
176
     1
 90
        0
176
     1
 62
   178
176
     1
 90
       50
176
     1
 90
        3
176
     1
 62
     5
420
      255
176
     1
290
     0
176
     1
 90
       50
176
     1
 90
       50
176
     1
 90
       50
176
     1
290
     0
176
     1
 90
       50
176
     1
 62
   256
176
     0
 40
1.0
176
     0
 90
        2
176
     1
  1
strokes_ogs.tif
176
     1
290
     0
176
     1
 40
1.0
176
     1
 40
1.0
176
     1
  0
VISUALSTYLE
  5
9C
102
{ACAD_REACTORS
330
99
102
}
330
99
100
AcDbVisualStyle
  2
Gouraud
 70
     2
177
     3
291
     1
 70
    58
 90
        2
176
     1
 90
        2
176
     1
 90
        1
176
     1
 90
        2
176
     1
 40
0.6
176
     1
 40
30.0
176
     1
 62
     7
420
 16777215
176
     1
 90
        0
176
     1
 90
        4
176
     1
 62
     7
176
     1
 62
   257
176
     1
 90
        1
176
     1
 90
        1
176
     1
 40
1.0
176
     1
 90
        0
176
     1
 62
     7
176
     1
 40
1.0
176
     1
 90
        1
176
     1
 90
        6
176
     1
 90
        2
176
     1
 62
     7
176
     1
 90
        5
176
     1
 90
        0
176
     1
 90
        0
176
     1
290
     0
176
     1
 90
        1
176
     1
 40
0.0
176
     1
 90
        0
176
     1
290
     0
176
     1
290
     1
176
     1
290
     1
176
     1
290
     0
176
     1
290
     0
176
     1
290
     0
176
     1
290
     0
176
     1
290
     0
176
     1
290
     0
176
     1
 90
       50
176
     1
 40
0.0
176
     1
 40
1.0
176
     1
 90
        0
176
     1
 62
   178
176
     1
 90
       50
176
     1
 90
        3
176
     1
 62
     5
420
      255
176
     1
290
     0
176
     1
 90
       50
176
     1
 90
       50
176
     1
 90
       50
176
     1
290
     0
176
     1
 90
       50
176
     1
 62
   256
176
     0
 40
1.0
176
     0
 90
        2
176
     1
  1
strokes_ogs.tif
176
     1
290
     0
176
     1
 40
1.0
176
     1
 40
1.0
176
     1
  0
VISUALSTYLE
  5
9D
102
{ACAD_REACTORS
330
99
102
}
330
99
100
AcDbVisualStyle
  2
GouraudWithEdges
 70
     3
177
     3
291
     1
 70
    58
 90
        2
176
     1
 90
        2
176
     1
 90
        1
176
     1
 90
        2
176
     1
 40
0.6
176
     1
 40
30.0
176
     1
 62
     7
420
 16777215
176
     1
 90
        1
176
     1
 90
        4
176
     1
 62
     7
176
     1
 62
   257
176
     1
 90
        1
176
     1
 90
        1
176
     1
 40
1.0
176
     1
 90
        0
176
     1
 62
   257
176
     1
 40
1.0
176
     1
 90
        1
176
     1
 90
        6
176
     1
 90
        2
176
     1
 62
     7
176
     1
 90
        5
176
     1
 90
        0
176
     1
 90
        0
176
     1
290
     0
176
     1
 90
        1
176
     1
 40
0.0
176
     1
 90
        0
176
     1
290
     0
176
     1
290
     1
176
     1
290
     1
176
     1
290
     0
176
     1
290
     0
176
     1
290
     0
176
     1
290
     0
176
     1
290
     0
176
     1
290
     0
176
     1
 90
       50
176
     1
 40
0.0
176
     1
 40
1.0
176
     1
 90
        0
176
     1
 62
   178
176
     1
 90
       50
176
     1
 90
        3
176
     1
 62
     5
420
      255
176
     1
290
     0
176
     1
 90
       50
176
     1
 90
       50
176
     1
 90
       50
176
     1
290
     0
176
     1
 90
       50
176
     1
 62
   256
176
     0
 40
1.0
176
     0
 90
        2
176
     1
  1
strokes_ogs.tif
176
     1
290
     0
176
     1
 40
1.0
176
     1
 40
1.0
176
     1
  0
VISUALSTYLE
  5
E4
102
{ACAD_REACTORS
330
99
102
}
330
99
100
AcDbVisualStyle
  2
Hidden
 70
     6
177
     3
291
     0
 70
    58
 90
        1
176
     1
 90
        2
176
     1
 90
        2
176
     1
 90
        0
176
     1
 40
0.6
176
     1
 40
30.0
176
     1
 62
     7
420
 16777215
176
     1
 90
        2
176
     1
 90
        2
176
     1
 62
     7
176
     1
 62
   257
176
     1
 90
        2
176
     1
 90
        1
176
     1
 40
40.0
176
     1
 90
        0
176
     1
 62
   257
176
     1
 40
1.0
176
     1
 90
        1
176
     1
 90
        6
176
     1
 90
        2
176
     1
 62
     7
176
     1
 90
        3
176
     1
 90
        0
176
     1
 90
        0
176
     1
290
     0
176
     1
 90
        1
176
     1
 40
0.0
176
     1
 90
        0
176
     1
290
     0
176
     1
290
     1
176
     1
290
     1
176
     1
290
     0
176
     1
290
     0
176
     1
290
     0
176
     1
290
     0
176
     1
290
     0
176
     1
290
     0
176
     1
 90
       50
176
     1
 40
0.0
176
     1
 40
1.0
176
     1
 90
        0
176
     1
 62
   178
176
     1
 90
       50
176
     1
 90
        3
176
     1
 62
     5
420
      255
176
     1
290
     0
176
     1
 90
       50
176
     1
 90
       50
176
     1
 90
       50
176
     1
290
     0
176
     1
 90
       50
176
     1
 62
   256
176
     0
 40
1.0
176
     0
 90
        2
176
     1
  1
strokes_ogs.tif
176
     1
290
     0
176
     1
 40
1.0
176
     1
 40
1.0
176
     1
  0
VISUALSTYLE
  5
E5
102
{ACAD_REACTORS
330
99
102
}
330
99
100
AcDbVisualStyle
  2
JitterOff
 70
    20
177
     3
291
     1
 70
    58
 90
        2
176
     0
 90
        2
176
     0
 90
        0
176
     0
 90
        0
176
     0
 40
0.6
176
     0
 40
30.0
176
     0
 62
     7
420
 16777215
176
     0
 90
        1
176
     0
 90
        4
176
     0
 62
     7
176
     0
 62
   257
176
     0
 90
        1
176
     0
 90
        1
176
     0
 40
1.0
176
     0
 90
       10
176
     2
 62
     7
176
     0
 40
1.0
176
     0
 90
        1
176
     0
 90
        6
176
     0
 90
        2
176
     0
 62
     7
176
     0
 90
        5
176
     0
 90
        0
176
     0
 90
        0
176
     0
290
     0
176
     0
 90
        1
176
     0
 40
0.0
176
     0
 90
        0
176
     0
290
     0
176
     0
290
     1
176
     0
290
     1
176
     0
290
     0
176
     0
290
     0
176
     0
290
     0
176
     0
290
     0
176
     0
290
     0
176
     0
290
     0
176
     0
 90
       50
176
     0
 40
0.0
176
     0
 40
1.0
176
     0
 90
        0
176
     0
 62
   178
176
     0
 90
       50
176
     0
 90
        3
176
     0
 62
     5
420
      255
176
     0
290
     0
176
     0
 90
       50
176
     0
 90
       50
176
     0
 90
       50
176
     0
290
     0
176
     0
 90
       50
176
     0
 62
   256
176
     0
 40
1.0
176
     0
 90
        2
176
     0
  1
strokes_ogs.tif
176
     0
290
     0
176
     0
 40
1.0
176
     0
 40
1.0
176
     0
  0
VISUALSTYLE
  5
A7
102
{ACAD_REACTORS
330
99
102
}
330
99
100
AcDbVisualStyle
  2
Linepattern
 70
    14
177
     3
291
     1
 70
    58
 90
        2
176
     1
 90
        2
176
     1
 90
        1
176
     1
 90
        0
176
     1
 40
0.6
176
     1
 40
30.0
176
     1
 62
     7
420
 16777215
176
     1
 90
        1
176
     1
 90
        4
176
     1
 62
     7
176
     1
 62
   257
176
     1
 90
        7
176
     1
 90
        7
176
     1
 40
1.0
176
     1
 90
        8
176
     1
 62
     7
176
     1
 40
1.0
176
     1
 90
        1
176
     1
 90
        6
176
     1
 90
        2
176
     1
 62
     7
176
     1
 90
        5
176
     1
 90
        0
176
     1
 90
        0
176
     1
290
     0
176
     1
 90
        1
176
     1
 40
0.0
176
     1
 90
        0
176
     1
290
     0
176
     1
290
     1
176
     1
290
     1
176
     1
290
     0
176
     1
290
     0
176
     1
290
     0
176
     1
290
     0
176
     1
290
     0
176
     1
290
     0
176
     1
 90
       50
176
     1
 40
0.0
176
     1
 40
1.0
176
     1
 90
        0
176
     1
 62
   178
176
     1
 90
       50
176
     1
 90
        3
176
     1
 62
     5
420
      255
176
     1
290
     0
176
     1
 90
       50
176
     1
 90
       50
176
     1
 90
       50
176
     1
290
     0
176
     1
 90
       50
176
     1
 62
   256
176
     0
 40
1.0
176
     0
 90
        2
176
     1
  1
strokes_ogs.tif
176
     1
290
     0
176
     1
 40
1.0
176
     1
 40
1.0
176
     1
  0
VISUALSTYLE
  5
E6
102
{ACAD_REACTORS
330
99
102
}
330
99
100
AcDbVisualStyle
  2
OverhangOff
 70
    21
177
     3
291
     1
 70
    58
 90
        2
176
     0
 90
        2
176
     0
 90
        0
176
     0
 90
        0
176
     0
 40
0.6
176
     0
 40
30.0
176
     0
 62
     7
420
 16777215
176
     0
 90
        1
176
     0
 90
        4
176
     0
 62
     7
176
     0
 62
   257
176
     0
 90
        1
176
     0
 90
        1
176
     0
 40
1.0
176
     0
 90
        9
176
     2
 62
     7
176
     0
 40
1.0
176
     0
 90
        1
176
     0
 90
        6
176
     0
 90
        2
176
     0
 62
     7
176
     0
 90
        5
176
     0
 90
        0
176
     0
 90
        0
176
     0
290
     0
176
     0
 90
        1
176
     0
 40
0.0
176
     0
 90
        0
176
     0
290
     0
176
     0
290
     1
176
     0
290
     1
176
     0
290
     0
176
     0
290
     0
176
     0
290
     0
176
     0
290
     0
176
     0
290
     0
176
     0
290
     0
176
     0
 90
       50
176
     0
 40
0.0
176
     0
 40
1.0
176
     0
 90
        0
176
     0
 62
   178
176
     0
 90
       50
176
     0
 90
        3
176
     0
 62
     5
420
      255
176
     0
290
     0
176
     0
 90
       50
176
     0
 90
       50
176
     0
 90
       50
176
     0
290
     0
176
     0
 90
       50
176
     0
 62
   256
176
     0
 40
1.0
176
     0
 90
        2
176
     0
  1
strokes_ogs.tif
176
     0
290
     0
176
     0
 40
1.0
176
     0
 40
1.0
176
     0
  0
VISUALSTYLE
  5
A3
102
{ACAD_REACTORS
330
99
102
}
330
99
100
AcDbVisualStyle
  2
Realistic
 70
     8
177
     3
291
     0
 70
    58
 90
        2
176
     1
 90
        2
176
     1
 90
        1
176
     1
 90
        0
176
     1
 40
0.6
176
     1
 40
30.0
176
     1
 62
     7
420
 16777215
176
     1
 90
        1
176
     1
 90
        0
176
     1
 62
     7
176
     1
 62
   257
176
     1
 90
        1
176
     1
 90
        1
176
     1
 40
1.0
176
     1
 90
        8
176
     1
 62
     8
420
  7895160
176
     1
 40
1.0
176
     1
 90
        1
176
     1
 90
        6
176
     1
 90
        2
176
     1
 62
     7
176
     1
 90
        5
176
     1
 90
        0
176
     1
 90
        0
176
     1
290
     0
176
     1
 90
       13
176
     1
 40
0.0
176
     1
 90
        0
176
     1
290
     0
176
     1
290
     1
176
     1
290
     1
176
     1
290
     0
176
     1
290
     0
176
     1
290
     0
176
     1
290
     0
176
     1
290
     0
176
     1
290
     0
176
     1
 90
       50
176
     1
 40
0.0
176
     1
 40
1.0
176
     1
 90
        0
176
     1
 62
   178
176
     1
 90
       50
176
     1
 90
        3
176
     1
 62
     5
420
      255
176
     1
290
     0
176
     1
 90
       50
176
     1
 90
       50
176
     1
 90
       50
176
     1
290
     0
176
     1
 90
       50
176
     1
 62
   256
176
     0
 40
1.0
176
     0
 90
        2
176
     1
  1
strokes_ogs.tif
176
     1
290
     0
176
     1
 40
1.0
176
     1
 40
1.0
176
     1
  0
VISUALSTYLE
  5
EC
102
{ACAD_REACTORS
330
99
102
}
330
99
100
AcDbVisualStyle
  2
Shaded
 70
    27
177
     3
291
     0
 70
    58
 90
        2
176
     1
 90
        2
176
     1
 90
        1
176
     1
 90
        2
176
     1
 40
0.6
176
     1
 40
30.0
176
     1
 62
     7
420
 16777215
176
     1
 90
        0
176
     1
 90
        4
176
     1
 62
     7
176
     1
 62
   257
176
     1
 90
        1
176
     1
 90
        1
176
     1
 40
1.0
176
     1
 90
        8
176
     1
 62
   257
176
     1
 40
1.0
176
     1
 90
        1
176
     1
 90
        6
176
     1
 90
        2
176
     1
 62
     8
420
  7895160
176
     1
 90
        3
176
     1
 90
        0
176
     1
 90
        0
176
     1
290
     0
176
     1
 90
        5
176
     1
 40
0.0
176
     1
 90
        0
176
     1
290
     0
176
     1
290
     1
176
     1
290
     1
176
     1
290
     0
176
     1
290
     0
176
     1
290
     0
176
     1
290
     0
176
     1
290
     0
176
     1
290
     0
176
     1
 90
       50
176
     1
 40
0.0
176
     1
 40
1.0
176
     1
 90
        0
176
     1
 62
   178
176
     1
 90
       50
176
     1
 90
        3
176
     1
 62
     5
420
      255
176
     1
290
     0
176
     1
 90
       50
176
     1
 90
       50
176
     1
 90
       50
176
     1
290
     0
176
     1
 90
       50
176
     1
 62
   256
176
     0
 40
1.0
176
     0
 90
        2
176
     1
  1
strokes_ogs.tif
176
     1
290
     0
176
     1
 40
1.0
176
     1
 40
1.0
176
     1
  0
VISUALSTYLE
  5
EB
102
{ACAD_REACTORS
330
99
102
}
330
99
100
AcDbVisualStyle
  2
Shaded with edges
 70
    26
177
     3
291
     0
 70
    58
 90
        2
176
     1
 90
        2
176
     1
 90
        1
176
     1
 90
        2
176
     1
 40
0.6
176
     1
 40
30.0
176
     1
 62
     7
420
 16777215
176
     1
 90
        1
176
     1
 90
       10
176
     1
 62
     7
176
     1
 62
   257
176
     1
 90
        2
176
     1
 90
        1
176
     1
 40
1.0
176
     1
 90
        8
176
     1
 62
   257
176
     1
 40
1.0
176
     1
 90
        1
176
     1
 90
        6
176
     1
 90
        2
176
     1
 62
     7
176
     1
 90
        3
176
     1
 90
        0
176
     1
 90
        0
176
     1
290
     0
176
     1
 90
        5
176
     1
 40
0.0
176
     1
 90
        0
176
     1
290
     0
176
     1
290
     1
176
     1
290
     1
176
     1
290
     0
176
     1
290
     0
176
     1
290
     0
176
     1
290
     0
176
     1
290
     0
176
     1
290
     0
176
     1
 90
       50
176
     1
 40
0.0
176
     1
 40
1.0
176
     1
 90
        0
176
     1
 62
   178
176
     1
 90
       50
176
     1
 90
        3
176
     1
 62
     5
420
      255
176
     1
290
     0
176
     1
 90
       50
176
     1
 90
       50
176
     1
 90
       50
176
     1
290
     0
176
     1
 90
       50
176
     1
 62
   256
176
     0
 40
1.0
176
     0
 90
        2
176
     1
  1
strokes_ogs.tif
176
     1
290
     0
176
     1
 40
1.0
176
     1
 40
1.0
176
     1
  0
VISUALSTYLE
  5
E8
102
{ACAD_REACTORS
330
99
102
}
330
99
100
AcDbVisualStyle
  2
Shades of Gray
 70
    23
177
     3
291
     0
 70
    58
 90
        2
176
     1
 90
        2
176
     1
 90
        3
176
     1
 90
        0
176
     1
 40
0.6
176
     1
 40
30.0
176
     1
 62
     7
420
 16777215
176
     1
 90
        2
176
     1
 90
        2
176
     1
 62
     7
176
     1
 62
     7
176
     1
 90
        1
176
     1
 90
        1
176
     1
 40
40.0
176
     1
 90
        8
176
     1
 62
     7
176
     1
 40
1.0
176
     1
 90
        1
176
     1
 90
        6
176
     1
 90
        2
176
     1
 62
     7
176
     1
 90
        3
176
     1
 90
        0
176
     1
 90
        0
176
     1
290
     0
176
     1
 90
        1
176
     1
 40
0.0
176
     1
 90
        0
176
     1
290
     0
176
     1
290
     1
176
     1
290
     1
176
     1
290
     0
176
     1
290
     0
176
     1
290
     0
176
     1
290
     0
176
     1
290
     0
176
     1
290
     0
176
     1
 90
       50
176
     1
 40
0.0
176
     1
 40
1.0
176
     1
 90
        0
176
     1
 62
   178
176
     1
 90
       50
176
     1
 90
        3
176
     1
 62
     5
420
      255
176
     1
290
     0
176
     1
 90
       50
176
     1
 90
       50
176
     1
 90
       50
176
     1
290
     0
176
     1
 90
       50
176
     1
 62
   256
176
     0
 40
1.0
176
     0
 90
        2
176
     1
  1
strokes_ogs.tif
176
     1
290
     0
176
     1
 40
1.0
176
     1
 40
1.0
176
     1
  0
VISUALSTYLE
  5
E9
102
{ACAD_REACTORS
330
99
102
}
330
99
100
AcDbVisualStyle
  2
Sketchy
 70
    24
177
     3
291
     0
 70
    58
 90
        1
176
     1
 90
        2
176
     1
 90
        2
176
     1
 90
        0
176
     1
 40
0.6
176
     1
 40
30.0
176
     1
 62
     7
420
 16777215
176
     1
 90
        2
176
     1
 90
        2
176
     1
 62
     7
176
     1
 62
     7
176
     1
 90
        1
176
     1
 90
        1
176
     1
 40
40.0
176
     1
 90
       11
176
     1
 62
     7
176
     1
 40
1.0
176
     1
 90
        1
176
     1
 90
        6
176
     1
 90
        2
176
     1
 62
     7
176
     1
 90
        6
176
     1
 90
        0
176
     1
 90
        0
176
     1
290
     0
176
     1
 90
        1
176
     1
 40
0.0
176
     1
 90
        0
176
     1
290
     0
176
     1
290
     1
176
     1
290
     1
176
     1
290
     0
176
     1
290
     0
176
     1
290
     0
176
     1
290
     0
176
     1
290
     0
176
     1
290
     0
176
     1
 90
       50
176
     1
 40
0.0
176
     1
 40
1.0
176
     1
 90
        0
176
     1
 62
   178
176
     1
 90
       50
176
     1
 90
        3
176
     1
 62
     5
420
      255
176
     1
290
     0
176
     1
 90
       50
176
     1
 90
       50
176
     1
 90
       50
176
     1
290
     0
176
     1
 90
       50
176
     1
 62
   256
176
     0
 40
1.0
176
     0
 90
        2
176
     1
  1
strokes_ogs.tif
176
     1
290
     0
176
     1
 40
1.0
176
     1
 40
1.0
176
     1
  0
VISUALSTYLE
  5
A6
102
{ACAD_REACTORS
330
99
102
}
330
99
100
AcDbVisualStyle
  2
Thicken
 70
    13
177
     3
291
     1
 70
    58
 90
        2
176
     1
 90
        2
176
     1
 90
        1
176
     1
 90
        0
176
     1
 40
0.6
176
     1
 40
30.0
176
     1
 62
     7
420
 16777215
176
     1
 90
        1
176
     1
 90
        4
176
     1
 62
     7
176
     1
 62
   257
176
     1
 90
        1
176
     1
 90
        1
176
     1
 40
1.0
176
     1
 90
       12
176
     1
 62
     7
176
     1
 40
1.0
176
     1
 90
        1
176
     1
 90
        6
176
     1
 90
        2
176
     1
 62
     7
176
     1
 90
        5
176
     1
 90
        0
176
     1
 90
        0
176
     1
290
     0
176
     1
 90
        1
176
     1
 40
0.0
176
     1
 90
        0
176
     1
290
     0
176
     1
290
     1
176
     1
290
     1
176
     1
290
     0
176
     1
290
     0
176
     1
290
     0
176
     1
290
     0
176
     1
290
     0
176
     1
290
     0
176
     1
 90
       50
176
     1
 40
0.0
176
     1
 40
1.0
176
     1
 90
        0
176
     1
 62
   178
176
     1
 90
       50
176
     1
 90
        3
176
     1
 62
     5
420
      255
176
     1
290
     0
176
     1
 90
       50
176
     1
 90
       50
176
     1
 90
       50
176
     1
290
     0
176
     1
 90
       50
176
     1
 62
   256
176
     0
 40
1.0
176
     0
 90
        2
176
     1
  1
strokes_ogs.tif
176
     1
290
     0
176
     1
 40
1.0
176
     1
 40
1.0
176
     1
  0
VISUALSTYLE
  5
E3
102
{ACAD_REACTORS
330
99
102
}
330
99
100
AcDbVisualStyle
  2
Wireframe
 70
     5
177
     3
291
     0
 70
    58
 90
        0
176
     1
 90
        2
176
     1
 90
        0
176
     1
 90
        0
176
     1
 40
0.6
176
     1
 40
30.0
176
     1
 62
     7
420
 16777215
176
     1
 90
        1
176
     1
 90
        4
176
     1
 62
     7
176
     1
 62
   257
176
     1
 90
        1
176
     1
 90
        1
176
     1
 40
1.0
176
     1
 90
        0
176
     1
 62
   257
176
     1
 40
1.0
176
     1
 90
        1
176
     1
 90
        6
176
     1
 90
        2
176
     1
 62
     7
176
     1
 90
        3
176
     1
 90
        0
176
     1
 90
        0
176
     1
290
     0
176
     1
 90
        1
176
     1
 40
0.0
176
     1
 90
        0
176
     1
290
     0
176
     1
290
     1
176
     1
290
     1
176
     1
290
     0
176
     1
290
     0
176
     1
290
     0
176
     1
290
     0
176
     1
290
     0
176
     1
290
     0
176
     1
 90
       50
176
     1
 40
0.0
176
     1
 40
1.0
176
     1
 90
        0
176
     1
 62
   178
176
     1
 90
       50
176
     1
 90
        3
176
     1
 62
     5
420
      255
176
     1
290
     0
176
     1
 90
       50
176
     1
 90
       50
176
     1
 90
       50
176
     1
290
     0
176
     1
 90
       50
176
     1
 62
   256
176
     0
 40
1.0
176
     0
 90
        2
176
     1
  1
strokes_ogs.tif
176
     1
290
     0
176
     1
 40
1.0
176
     1
 40
1.0
176
     1
  0
VISUALSTYLE
  5
EA
102
{ACAD_REACTORS
330
99
102
}
330
99
100
AcDbVisualStyle
  2
X-Ray
 70
    25
177
     3
291
     0
 70
    58
 90
        2
176
     1
 90
        2
176
     1
 90
        1
176
     1
 90
        1
176
     1
 40
0.5
176
     1
 40
30.0
176
     1
 62
     7
420
 16777215
176
     1
 90
        1
176
     1
 90
        0
176
     1
 62
     7
176
     1
 62
   257
176
     1
 90
        1
176
     1
 90
        1
176
     1
 40
1.0
176
     1
 90
        8
176
     1
 62
     7
176
     1
 40
1.0
176
     1
 90
        1
176
     1
 90
        6
176
     1
 90
        2
176
     1
 62
     7
176
     1
 90
        3
176
     1
 90
        0
176
     1
 90
        0
176
     1
290
     0
176
     1
 90
       13
176
     1
 40
0.0
176
     1
 90
        0
176
     1
290
     0
176
     1
290
     1
176
     1
290
     1
176
     1
290
     0
176
     1
290
     0
176
     1
290
     0
176
     1
290
     0
176
     1
290
     0
176
     1
290
     0
176
     1
 90
       50
176
     1
 40
0.0
176
     1
 40
1.0
176
     1
 90
        0
176
     1
 62
   178
176
     1
 90
       50
176
     1
 90
        3
176
     1
 62
     5
420
      255
176
     1
290
     0
176
     1
 90
       50
176
     1
 90
       50
176
     1
 90
       50
176
     1
290
     0
176
     1
 90
       50
176
     1
 62
   256
176
     0
 40
1.0
176
     0
 90
        2
176
     1
  1
strokes_ogs.tif
176
     1
290
     0
176
     1
 40
1.0
176
     1
 40
1.0
176
     1
  0
DICTIONARYVAR
  5
D8
102
{ACAD_REACTORS
330
66
102
}
330
66
100
DictionaryVariables
280
     0
  1
1:1
  0
DICTIONARYVAR
  5
128
102
{ACAD_REACTORS
330
66
102
}
330
66
100
DictionaryVariables
280
     0
  1
STANDARD
  0
DICTIONARYVAR
  5
89
102
{ACAD_REACTORS
330
66
102
}
330
66
100
DictionaryVariables
280
     0
  1
STANDARD
  0
DICTIONARYVAR
  5
143E
102
{ACAD_REACTORS
330
66
102
}
330
66
100
DictionaryVariables
280
     0
  1
Imperial24
  0
DICTIONARYVAR
  5
143F
102
{ACAD_REACTORS
330
66
102
}
330
66
100
DictionaryVariables
280
     0
  1
Imperial24
  0
DICTIONARYVAR
  5
67
102
{ACAD_REACTORS
330
66
102
}
330
66
100
DictionaryVariables
280
     0
  1
2
  0
DICTIONARYVAR
  5
6B
102
{ACAD_REACTORS
330
66
102
}
330
66
100
DictionaryVariables
280
     0
  1
1
  0
DICTIONARYVAR
  5
DF
102
{ACAD_REACTORS
330
66
102
}
330
66
100
DictionaryVariables
280
     0
  1
0
  0
DICTIONARYVAR
  5
E0
102
{ACAD_REACTORS
330
66
102
}
330
66
100
DictionaryVariables
280
     0
  1
0
  0
DICTIONARY
  5
1443
330
1439
100
AcDbDictionary
280
     1
281
     1
  3
ACAD_XREC_ROUNDTRIP
360
1444
  0
DICTIONARY
  5
1441
330
1438
100
AcDbDictionary
280
     1
281
     1
  3
ACAD_XREC_ROUNDTRIP
360
1442
  0
DICTIONARY
  5
1433
330
87
100
AcDbDictionary
280
     1
281
     1
  3
ACAD_ROUNDTRIP_2008_TABLESTYLE_CELLSTYLEMAP
360
1440
  0
XRECORD
  5
1444
102
{ACAD_REACTORS
330
1443
102
}
330
1443
100
AcDbXrecord
280
     1
102
DISPLAYNAME
  1
Imperial24
102
FLAGS
 90
        0
  0
XRECORD
  5
1442
102
{ACAD_REACTORS
330
1441
102
}
330
1441
100
AcDbXrecord
280
     1
102
DISPLAYNAME
  1
Imperial24
102
FLAGS
 90
        0
  0
CELLSTYLEMAP
  5
1440
102
{ACAD_REACTORS
330
1433
102
}
330
1433
100
AcDbCellStyleMap
 90
        3
300
CELLSTYLE
  1
TABLEFORMAT_BEGIN
 90
        5
170
     1
 91
        0
 92
    32768
 62
   257
 93
        1
300
CONTENTFORMAT
  1
CONTENTFORMAT_BEGIN
 90
        0
 91
        0
 92
      512
 93
        0
300

 40
0.0
140
1.0
 94
        5
 62
     0
340
11
144
0.25
309
CONTENTFORMAT_END
171
     1
301
MARGIN
  1
CELLMARGIN_BEGIN
 40
0.06
 40
0.06
 40
0.06
 40
0.06
 40
0.18
 40
0.18
309
CELLMARGIN_END
 94
        6
 95
        1
302
GRIDFORMAT
  1
GRIDFORMAT_BEGIN
 90
        0
 91
        1
 62
     0
 92
       -2
340
0
 93
        0
 40
0.045
309
GRIDFORMAT_END
 95
        2
302
GRIDFORMAT
  1
GRIDFORMAT_BEGIN
 90
        0
 91
        1
 62
     0
 92
       -2
340
0
 93
        0
 40
0.045
309
GRIDFORMAT_END
 95
        4
302
GRIDFORMAT
  1
GRIDFORMAT_BEGIN
 90
        0
 91
        1
 62
     0
 92
       -2
340
0
 93
        0
 40
0.045
309
GRIDFORMAT_END
 95
        8
302
GRIDFORMAT
  1
GRIDFORMAT_BEGIN
 90
        0
 91
        1
 62
     0
 92
       -2
340
0
 93
        0
 40
0.045
309
GRIDFORMAT_END
 95
       16
302
GRIDFORMAT
  1
GRIDFORMAT_BEGIN
 90
        0
 91
        1
 62
     0
 92
       -2
340
0
 93
        0
 40
0.045
309
GRIDFORMAT_END
 95
       32
302
GRIDFORMAT
  1
GRIDFORMAT_BEGIN
 90
        0
 91
        1
 62
     0
 92
       -2
340
0
 93
        0
 40
0.045
309
GRIDFORMAT_END
309
TABLEFORMAT_END
  1
CELLSTYLE_BEGIN
 90
        1
 91
        1
300
_TITLE
309
CELLSTYLE_END
300
CELLSTYLE
  1
TABLEFORMAT_BEGIN
 90
        5
170
     1
 91
        0
 92
        0
 62
   257
 93
        1
300
CONTENTFORMAT
  1
CONTENTFORMAT_BEGIN
 90
        0
 91
        0
 92
      512
 93
        0
300

 40
0.0
140
1.0
 94
        5
 62
     0
340
11
144
0.18
309
CONTENTFORMAT_END
171
     1
301
MARGIN
  1
CELLMARGIN_BEGIN
 40
0.06
 40
0.06
 40
0.06
 40
0.06
 40
0.18
 40
0.18
309
CELLMARGIN_END
 94
        6
 95
        1
302
GRIDFORMAT
  1
GRIDFORMAT_BEGIN
 90
        0
 91
        1
 62
     0
 92
       -2
340
0
 93
        0
 40
0.045
309
GRIDFORMAT_END
 95
        2
302
GRIDFORMAT
  1
GRIDFORMAT_BEGIN
 90
        0
 91
        1
 62
     0
 92
       -2
340
0
 93
        0
 40
0.045
309
GRIDFORMAT_END
 95
        4
302
GRIDFORMAT
  1
GRIDFORMAT_BEGIN
 90
        0
 91
        1
 62
     0
 92
       -2
340
0
 93
        0
 40
0.045
309
GRIDFORMAT_END
 95
        8
302
GRIDFORMAT
  1
GRIDFORMAT_BEGIN
 90
        0
 91
        1
 62
     0
 92
       -2
340
0
 93
        0
 40
0.045
309
GRIDFORMAT_END
 95
       16
302
GRIDFORMAT
  1
GRIDFORMAT_BEGIN
 90
        0
 91
        1
 62
     0
 92
       -2
340
0
 93
        0
 40
0.045
309
GRIDFORMAT_END
 95
       32
302
GRIDFORMAT
  1
GRIDFORMAT_BEGIN
 90
        0
 91
        1
 62
     0
 92
       -2
340
0
 93
        0
 40
0.045
309
GRIDFORMAT_END
309
TABLEFORMAT_END
  1
CELLSTYLE_BEGIN
 90
        2
 91
        1
300
_HEADER
309
CELLSTYLE_END
300
CELLSTYLE
  1
TABLEFORMAT_BEGIN
 90
        5
170
     1
 91
        0
 92
        0
 62
   257
 93
        1
300
CONTENTFORMAT
  1
CONTENTFORMAT_BEGIN
 90
        0
 91
        0
 92
      512
 93
        0
300

 40
0.0
140
1.0
 94
        2
 62
     0
340
11
144
0.18
309
CONTENTFORMAT_END
171
     1
301
MARGIN
  1
CELLMARGIN_BEGIN
 40
0.06
 40
0.06
 40
0.06
 40
0.06
 40
0.18
 40
0.18
309
CELLMARGIN_END
 94
        6
 95
        1
302
GRIDFORMAT
  1
GRIDFORMAT_BEGIN
 90
        0
 91
        1
 62
     0
 92
       -2
340
0
 93
        0
 40
0.045
309
GRIDFORMAT_END
 95
        2
302
GRIDFORMAT
  1
GRIDFORMAT_BEGIN
 90
        0
 91
        1
 62
     0
 92
       -2
340
0
 93
        0
 40
0.045
309
GRIDFORMAT_END
 95
        4
302
GRIDFORMAT
  1
GRIDFORMAT_BEGIN
 90
        0
 91
        1
 62
     0
 92
       -2
340
0
 93
        0
 40
0.045
309
GRIDFORMAT_END
 95
        8
302
GRIDFORMAT
  1
GRIDFORMAT_BEGIN
 90
        0
 91
        1
 62
     0
 92
       -2
340
0
 93
        0
 40
0.045
309
GRIDFORMAT_END
 95
       16
302
GRIDFORMAT
  1
GRIDFORMAT_BEGIN
 90
        0
 91
        1
 62
     0
 92
       -2
340
0
 93
        0
 40
0.045
309
GRIDFORMAT_END
 95
       32
302
GRIDFORMAT
  1
GRIDFORMAT_BEGIN
 90
        0
 91
        1
 62
     0
 92
       -2
340
0
 93
        0
 40
0.045
309
GRIDFORMAT_END
309
TABLEFORMAT_END
  1
CELLSTYLE_BEGIN
 90
        3
 91
        2
300
_DATA
309
CELLSTYLE_END
  0
ENDSEC
  0
EOF
